<svg width="24" height="24" viewBox="0 0 24 24" fill="none" xmlns="http://www.w3.org/2000/svg">
<path d="M21.5552 5.71999L17.0481 1.85999L15.7841 3.38999L20.2913 7.24999L21.5552 5.71999ZM7.72028 3.38999L6.46612 1.85999L1.95898 5.70999L3.22294 7.23998L7.72028 3.38999ZM12.247 7.99999H10.7773V14L15.4314 16.85L16.1663 15.62L12.247 13.25V7.99999ZM11.7571 3.99999C6.88744 3.99999 2.9388 8.02999 2.9388 13C2.9388 17.97 6.87764 22 11.7571 22C16.6268 22 20.5754 17.97 20.5754 13C20.5754 8.02999 16.6268 3.99999 11.7571 3.99999ZM11.7571 20C7.96524 20 4.89842 16.87 4.89842 13C4.89842 9.12999 7.96524 5.99999 11.7571 5.99999C15.549 5.99999 18.6158 9.12999 18.6158 13C18.6158 16.87 15.549 20 11.7571 20Z" fill="#40BAFF"/>
</svg>
