<svg width="59" height="41" viewBox="0 0 59 41" fill="none" xmlns="http://www.w3.org/2000/svg">
<g clip-path="url(#clip0_1504_27972)">
<path d="M59 0H0V41H59V0Z" fill="#6AA727"/>
<path fill-rule="evenodd" clip-rule="evenodd" d="M5.23438 20.4468L29.4506 4.81335L53.7946 20.4468L29.4932 36.0314L5.23438 20.4468Z" fill="#F3DE3A"/>
<path fill-rule="evenodd" clip-rule="evenodd" d="M29.4429 31.0361C35.048 31.0361 39.6231 26.3958 39.6231 20.7041C39.6231 15.0123 35.048 10.372 29.4429 10.372C23.8378 10.372 19.2627 15.0123 19.2627 20.7041C19.2627 26.3958 23.8336 31.0361 29.4429 31.0361Z" fill="#EBEBEB"/>
<path fill-rule="evenodd" clip-rule="evenodd" d="M29.4425 10.372C34.9497 10.372 39.4355 14.8127 39.6185 20.3536C35.3881 17.7407 30.4427 16.2368 25.1611 16.2368C23.4161 16.2368 21.7095 16.4009 20.0497 16.7159C21.5861 12.9894 25.2164 10.372 29.4425 10.372ZM39.3887 22.9178C35.2944 20.1495 30.4086 18.5392 25.1611 18.5392C23.1735 18.5392 21.2328 18.7699 19.373 19.2091C19.3049 19.697 19.2666 20.1983 19.2666 20.7041C19.2666 26.4091 23.8247 31.0361 29.4468 31.0361C34.3198 31.0361 38.3928 27.5581 39.3929 22.9178H39.3887Z" fill="#1D3191"/>
<path fill-rule="evenodd" clip-rule="evenodd" d="M21.9691 17.6564C21.9819 17.8249 21.9393 17.9669 21.8499 18.0822C21.7606 18.1976 21.6414 18.2641 21.5009 18.273C21.3647 18.2819 21.2456 18.242 21.1477 18.1488C21.0498 18.0556 20.9945 17.9314 20.9817 17.7717C20.9689 17.6031 21.0115 17.4612 21.1009 17.3458C21.1903 17.226 21.3094 17.1639 21.4499 17.1551C21.5861 17.1462 21.7052 17.1861 21.8031 17.2793C21.901 17.3724 21.9563 17.4967 21.9648 17.6564H21.9691ZM21.7563 17.6963C21.7478 17.5809 21.7137 17.4922 21.6542 17.4257C21.5946 17.3591 21.5222 17.3281 21.4414 17.337C21.3647 17.3414 21.3052 17.3813 21.2541 17.4567C21.2073 17.5321 21.186 17.6253 21.1945 17.7318C21.203 17.8471 21.2371 17.9359 21.2967 18.0024C21.3562 18.0689 21.4286 18.1 21.5095 18.0911C21.5861 18.0867 21.6456 18.0468 21.6967 17.9713C21.7435 17.8959 21.7648 17.8028 21.7563 17.6963ZM23.0033 18.0822L22.7735 18.1089C22.6926 17.9225 22.6373 17.8116 22.599 17.7673C22.5607 17.7273 22.5096 17.7096 22.4372 17.7185C22.4075 17.7185 22.3777 17.7229 22.3521 17.7273C22.3649 17.8693 22.3819 18.0068 22.4032 18.1488L22.1861 18.171C22.1776 18.0068 22.1606 17.8205 22.1393 17.6164C22.118 17.4168 22.101 17.2482 22.0797 17.1107L22.2117 17.0974C22.2117 17.0974 22.2585 17.093 22.3096 17.0841C22.3564 17.0752 22.4032 17.0708 22.4458 17.0663C22.6841 17.0397 22.8118 17.1107 22.8288 17.2837C22.8416 17.4168 22.782 17.5188 22.6543 17.5898V17.6031C22.7096 17.612 22.7607 17.6519 22.8033 17.714C22.8501 17.7806 22.9139 17.9048 23.0033 18.0822ZM22.6373 17.3636C22.6245 17.2571 22.5564 17.2083 22.4245 17.2216C22.3777 17.226 22.3351 17.2349 22.2968 17.2482C22.3096 17.3325 22.3266 17.439 22.3394 17.5765C22.3692 17.5765 22.3904 17.5721 22.4117 17.5676C22.5777 17.5499 22.65 17.4789 22.6415 17.3591L22.6373 17.3636ZM23.9481 17.4523C23.9566 17.6076 23.9226 17.7451 23.8332 17.8693C23.7481 17.9935 23.6204 18.0601 23.4502 18.0734C23.3735 18.0778 23.2672 18.0822 23.131 18.0867C23.1267 17.9225 23.1182 17.7362 23.1054 17.5277C23.0927 17.3281 23.0756 17.1595 23.0629 17.022L23.1991 17.0131C23.2203 17.0131 23.2544 17.0087 23.2969 17.0042C23.3395 16.9998 23.3693 16.9954 23.3821 16.9954C23.5693 16.9821 23.7098 17.022 23.7991 17.1107C23.8885 17.2039 23.9396 17.3192 23.9481 17.4567V17.4523ZM23.7396 17.5011C23.731 17.3946 23.697 17.3103 23.6332 17.2438C23.5693 17.1772 23.4799 17.1462 23.3608 17.1551C23.3395 17.1551 23.3097 17.1595 23.2714 17.1684C23.2842 17.2793 23.2927 17.3902 23.3012 17.51C23.3097 17.6386 23.3225 17.7673 23.3352 17.8959C23.3693 17.9004 23.4033 17.9004 23.4374 17.8959C23.548 17.8871 23.6289 17.8471 23.6757 17.7673C23.7225 17.6919 23.7438 17.5987 23.7396 17.4967V17.5011ZM24.8035 17.8072V17.9891L24.1439 18.0201C24.1439 17.856 24.1396 17.6697 24.1311 17.4612C24.1226 17.2615 24.1098 17.093 24.0971 16.9554L24.7269 16.9244V17.1063C24.5695 17.1063 24.429 17.1063 24.3013 17.1151C24.3099 17.1906 24.3184 17.2793 24.3226 17.3813C24.429 17.3769 24.5482 17.368 24.6716 17.3547L24.6801 17.5277C24.5567 17.5277 24.4418 17.5277 24.3311 17.5366C24.3354 17.6475 24.3439 17.7495 24.3524 17.8471C24.4929 17.8383 24.6461 17.8294 24.8078 17.8116L24.8035 17.8072ZM26.1399 17.9846H25.9143C25.9143 17.8915 25.9058 17.7362 25.8973 17.5144C25.8845 17.2926 25.8803 17.1551 25.8803 17.1018H25.8675C25.8633 17.1329 25.8505 17.195 25.8292 17.2837C25.8079 17.3724 25.7654 17.5011 25.7058 17.6741C25.6462 17.8471 25.6164 17.9492 25.6164 17.9846H25.4462C25.4462 17.9492 25.4164 17.8471 25.3568 17.6741C25.2972 17.5011 25.2589 17.3813 25.2376 17.3103C25.2206 17.2394 25.2036 17.1728 25.1951 17.1018H25.1823C25.1823 17.1684 25.1781 17.3148 25.1653 17.541C25.1525 17.7673 25.1483 17.9137 25.1483 17.9846H24.944C24.944 17.9846 24.961 17.8028 24.9993 17.4922C25.0376 17.1817 25.0546 16.9865 25.0546 16.9155H25.3568C25.3568 16.9732 25.3909 17.1107 25.4547 17.3192C25.5185 17.5277 25.5526 17.6608 25.5526 17.7185H25.5654C25.5654 17.6608 25.5994 17.5277 25.6718 17.3148C25.7441 17.1063 25.7782 16.9687 25.7782 16.9111H26.0761C26.0761 17.022 26.0888 17.226 26.1144 17.5144C26.1399 17.8028 26.1527 17.958 26.1527 17.9758L26.1399 17.9846ZM28.4764 17.9846L28.4551 18.1621L27.7955 18.1089C27.8125 17.9447 27.8338 17.7584 27.8465 17.5543C27.8593 17.3547 27.8721 17.1861 27.8763 17.0442L28.5062 17.0974L28.4849 17.2748C28.3317 17.2527 28.1913 17.2349 28.0636 17.226C28.0636 17.3015 28.0593 17.3902 28.0508 17.4967C28.1572 17.5055 28.2764 17.5144 28.3998 17.5188L28.387 17.6874C28.2679 17.6741 28.1487 17.6608 28.0381 17.6519C28.0295 17.7628 28.0253 17.8649 28.021 17.9625C28.1615 17.9758 28.3147 17.9802 28.4764 17.9846ZM30.7831 17.6874C30.7618 17.8161 30.698 17.9004 30.6001 17.9447C30.498 17.9891 30.3831 17.998 30.2511 17.9713C30.2256 17.9669 30.2086 17.9625 30.2001 17.958C30.183 18.0601 30.1618 18.1932 30.1405 18.3617L29.9234 18.3218C29.9575 18.1665 29.9915 17.9846 30.0256 17.7761C30.0596 17.5809 30.0852 17.4168 30.1022 17.2748L30.2341 17.3015C30.2341 17.3015 30.2894 17.3103 30.3448 17.3192C30.4001 17.3281 30.4469 17.337 30.4852 17.3414C30.5831 17.3591 30.6597 17.3991 30.7193 17.4567C30.7789 17.5144 30.8002 17.5943 30.7831 17.6874ZM30.5788 17.6963C30.6001 17.5809 30.5363 17.51 30.3916 17.4834C30.3575 17.4789 30.315 17.4745 30.2724 17.4745C30.2596 17.5765 30.2426 17.6919 30.2213 17.8205C30.2341 17.8205 30.2469 17.8249 30.2639 17.8294C30.4512 17.8649 30.5533 17.8205 30.5746 17.6963H30.5788ZM31.5747 18.6811C31.5492 18.4815 31.5237 18.344 31.5024 18.2641C31.4811 18.1843 31.4428 18.131 31.396 18.1044V18.0911C31.5407 18.0689 31.6301 17.9935 31.6599 17.8604C31.6982 17.6919 31.6003 17.5809 31.3662 17.5233C31.3236 17.5144 31.2811 17.5055 31.23 17.4922C31.1832 17.4834 31.1491 17.4745 31.1321 17.47L31.0002 17.439C30.9789 17.5765 30.9449 17.7451 30.9023 17.9359C30.8597 18.1399 30.8172 18.3174 30.7746 18.4771L30.9874 18.5259C31.0129 18.3839 31.0427 18.2464 31.0725 18.1089C31.0981 18.1133 31.1279 18.1222 31.1576 18.131C31.2257 18.1488 31.2726 18.1843 31.2938 18.2331C31.3151 18.2863 31.3364 18.4105 31.3534 18.6146L31.579 18.6678L31.5747 18.6811ZM31.4513 17.8782C31.4258 17.9935 31.3321 18.0334 31.1704 17.998C31.1491 17.9935 31.1279 17.9846 31.0981 17.9802C31.1279 17.8471 31.1491 17.7407 31.1619 17.6564C31.2002 17.6564 31.2428 17.6652 31.2896 17.6741C31.4173 17.7052 31.4726 17.7717 31.4471 17.8782H31.4513ZM32.7409 18.4017C32.7026 18.5658 32.6217 18.6856 32.5025 18.7699C32.3834 18.8542 32.2514 18.8763 32.1152 18.8364C31.9833 18.8009 31.8812 18.7211 31.8173 18.6013C31.7492 18.4815 31.7365 18.344 31.7748 18.1887C31.8131 18.0246 31.8939 17.9048 32.0131 17.8205C32.1323 17.7362 32.2642 17.7185 32.4046 17.754C32.5366 17.7895 32.6387 17.8693 32.7026 17.9891C32.7664 18.1089 32.7834 18.2464 32.7494 18.4017H32.7409ZM32.5281 18.3706C32.5536 18.2597 32.5493 18.1621 32.511 18.0778C32.4727 17.9935 32.4132 17.9403 32.3365 17.9225C32.2642 17.9048 32.1918 17.9225 32.1237 17.9758C32.0557 18.0334 32.0088 18.1133 31.9833 18.2198C31.9578 18.3307 31.962 18.4283 32.0003 18.5126C32.0386 18.5969 32.094 18.6501 32.1748 18.6678C32.2472 18.6856 32.3195 18.6678 32.3876 18.6146C32.4557 18.5569 32.5025 18.4771 32.5281 18.3706ZM33.5835 19.2401C33.4559 19.2312 33.3537 19.2179 33.2728 19.1913C33.1026 19.1336 32.9877 19.0449 32.9281 18.9163C32.8685 18.7876 32.86 18.6545 32.9026 18.517C32.9451 18.3706 33.0345 18.2553 33.1622 18.1798C33.2899 18.1044 33.4388 18.0911 33.6091 18.1488C33.6899 18.1754 33.758 18.2065 33.8134 18.242L33.7325 18.4194C33.6601 18.3706 33.5963 18.3396 33.5325 18.3174C33.4261 18.2819 33.3409 18.2908 33.2686 18.3396C33.1962 18.3884 33.1452 18.4638 33.1196 18.5614C33.0898 18.659 33.0941 18.7566 33.1281 18.8497C33.1622 18.9429 33.2303 19.005 33.3324 19.0405C33.3622 19.0494 33.3963 19.0582 33.4346 19.0627C33.4431 19.0006 33.4559 18.9429 33.4729 18.8896C33.4899 18.832 33.5027 18.7699 33.5154 18.6945L33.724 18.7654C33.6942 18.8453 33.6686 18.9251 33.6474 19.005C33.6303 19.0627 33.6091 19.1425 33.5835 19.2446V19.2401ZM34.5283 19.6394C34.5283 19.4397 34.5156 19.2978 34.5028 19.2179C34.49 19.1381 34.4603 19.0804 34.4134 19.0494V19.036C34.5624 19.036 34.656 18.9695 34.6986 18.8408C34.7539 18.6811 34.6688 18.5569 34.4432 18.4726C34.4049 18.4593 34.3624 18.4416 34.3113 18.4283C34.2645 18.4105 34.2347 18.4017 34.2177 18.3972L34.09 18.3484C34.0517 18.4815 34.0006 18.6457 33.9368 18.832C33.8687 19.0272 33.8091 19.2002 33.7495 19.3555L33.9538 19.4309C33.9964 19.2933 34.0389 19.1603 34.0815 19.0272C34.107 19.036 34.1325 19.0449 34.1623 19.0582C34.2304 19.0848 34.273 19.1248 34.2858 19.178C34.3028 19.2312 34.307 19.3599 34.3028 19.564L34.5198 19.6438L34.5283 19.6394ZM34.4943 18.8275C34.456 18.9429 34.3581 18.9695 34.2049 18.9118C34.1879 18.9074 34.1623 18.8941 34.1368 18.8852C34.1794 18.7566 34.2134 18.6501 34.2347 18.5702C34.273 18.5747 34.3156 18.588 34.3581 18.6057C34.4815 18.6545 34.5284 18.7255 34.4943 18.832V18.8275ZM35.337 19.7858L35.2689 19.9499L34.6518 19.6971C34.7156 19.5462 34.7837 19.3732 34.8561 19.1824C34.9242 18.9961 34.9795 18.8364 35.022 18.7033L35.6094 18.9473L35.5413 19.1115C35.4008 19.0449 35.2689 18.9872 35.1497 18.9384C35.1284 19.0094 35.0986 19.0937 35.0646 19.1913C35.1667 19.2312 35.2731 19.2756 35.3923 19.3155L35.3327 19.4752C35.2221 19.422 35.1157 19.3776 35.0093 19.3333C34.971 19.4353 34.9369 19.5329 34.9071 19.6261C35.0391 19.6793 35.1838 19.7325 35.337 19.7858ZM36.1669 20.0342C36.1967 19.9499 36.1967 19.8701 36.1669 19.7902C36.1413 19.7325 36.0945 19.666 36.0222 19.5995C35.9583 19.5329 35.9158 19.4885 35.8988 19.4619C35.8817 19.4309 35.8775 19.3954 35.8902 19.3643C35.9158 19.3022 35.9839 19.2933 36.0988 19.3377C36.1754 19.3688 36.2392 19.4087 36.2988 19.4619L36.3882 19.3022C36.3286 19.2579 36.252 19.2179 36.1584 19.178C36.0435 19.1292 35.9456 19.1203 35.8647 19.1425C35.7838 19.1691 35.7285 19.2224 35.6945 19.3111C35.6647 19.3865 35.6647 19.4575 35.6945 19.5285C35.7158 19.5861 35.7583 19.6438 35.8222 19.7104C35.8902 19.7813 35.9371 19.8346 35.9541 19.8701C35.9754 19.91 35.9796 19.9499 35.9669 19.9854C35.9541 20.0209 35.9243 20.0431 35.886 20.0431C35.8477 20.0431 35.7881 20.0298 35.7115 19.9987C35.6434 19.9721 35.5753 19.9277 35.5072 19.8656L35.4093 20.0209C35.4817 20.0786 35.5625 20.1229 35.6519 20.1629C35.9243 20.2738 36.0945 20.2294 36.1711 20.0298L36.1669 20.0342ZM36.9542 20.3935C36.8734 20.5887 36.6989 20.6287 36.4307 20.5089C36.3414 20.469 36.2605 20.4202 36.1882 20.3581L36.2903 20.2072C36.3584 20.2693 36.4222 20.3181 36.4946 20.3492C36.5712 20.3847 36.6308 20.4024 36.6691 20.398C36.7074 20.398 36.7372 20.3802 36.7499 20.3403C36.767 20.3004 36.7627 20.2649 36.7414 20.225C36.7244 20.1895 36.6818 20.1362 36.6138 20.0608C36.5542 19.9943 36.5116 19.9322 36.4903 19.8745C36.4648 19.8035 36.4691 19.7281 36.4988 19.6571C36.5329 19.5728 36.5925 19.5152 36.6733 19.4974C36.7542 19.4752 36.8521 19.493 36.967 19.5418C37.0606 19.5817 37.1372 19.6261 37.1926 19.6704L37.0989 19.8257C37.0436 19.7725 36.9798 19.7281 36.9032 19.6926C36.7925 19.6438 36.7202 19.6483 36.6946 19.7104C36.6819 19.7414 36.6819 19.7769 36.6989 19.808C36.7159 19.8346 36.7542 19.8834 36.818 19.9499C36.8861 20.0209 36.933 20.0874 36.9542 20.1451C36.984 20.225 36.984 20.3048 36.9542 20.3891V20.3935ZM38.0608 20.713C38.1289 20.5754 38.1459 20.4379 38.1076 20.3048C38.0693 20.1717 37.9927 20.0697 37.8693 20.0032C37.7416 19.9322 37.6096 19.9233 37.4735 19.9721C37.3373 20.0209 37.2351 20.1229 37.1585 20.2693C37.0904 20.4069 37.0734 20.5444 37.1117 20.6775C37.15 20.8106 37.2266 20.9126 37.35 20.9791C37.4777 21.0501 37.6096 21.059 37.7416 21.0102C37.8778 20.9614 37.9799 20.8594 38.0565 20.713H38.0608ZM37.8607 20.6287C37.8139 20.7263 37.7501 20.7928 37.6692 20.8283C37.5926 20.8682 37.516 20.8682 37.4522 20.8283C37.3798 20.7884 37.3373 20.7218 37.316 20.6331C37.299 20.5444 37.316 20.4468 37.3628 20.3447C37.4096 20.2471 37.4735 20.1806 37.5543 20.1451C37.6309 20.1096 37.7075 20.1052 37.7714 20.1451C37.8437 20.185 37.8905 20.2516 37.9076 20.3403C37.9246 20.429 37.9076 20.5266 37.8607 20.6287Z" fill="#5F9724"/>
<path fill-rule="evenodd" clip-rule="evenodd" d="M35.6989 25.7836L35.8138 25.2734L35.4138 24.9895L35.9287 24.9407L36.0862 24.4971L36.265 24.9496L36.7374 24.9717L36.3671 25.2823L36.5076 25.7481L36.099 25.4819L35.7074 25.7747L35.6989 25.7836ZM19.7519 20.9968L19.8669 20.4867L19.4668 20.2028L19.9818 20.154L20.1392 19.7103L20.318 20.1628L20.7904 20.185L20.4201 20.4955L20.5606 20.9614L20.152 20.6952L19.7605 20.988L19.7519 20.9968ZM20.4329 24.3152L20.4967 24.0224L20.2669 23.8627L20.5606 23.8361L20.6499 23.5832L20.7521 23.8405L21.0245 23.8538L20.8117 24.0312L20.8925 24.2974L20.6585 24.1466L20.4329 24.3152ZM21.3224 23.734L21.4373 23.2238L21.0372 22.9399L21.5522 22.8911L21.7054 22.4475L21.8884 22.9L22.3608 22.9222L21.9906 23.2327L22.131 23.6985L21.7224 23.4324L21.3309 23.7251L21.3224 23.734ZM22.6673 22.6782L22.7183 22.4519L22.5396 22.3277L22.7651 22.3055L22.8332 22.1103L22.9141 22.31L23.1226 22.3189L22.9567 22.4564L23.0162 22.6649L22.8332 22.5495L22.6587 22.6782H22.6673ZM23.8334 24.4216L23.8972 24.1288L23.6674 23.9691L23.9611 23.9425L24.0504 23.6897L24.1526 23.947L24.425 23.9603L24.2122 24.1377L24.293 24.4039L24.0589 24.2531L23.8334 24.4216ZM23.5099 25.5529L23.5738 25.2601L23.344 25.1004L23.6376 25.0738L23.727 24.8209L23.8291 25.0782L24.0973 25.0915L23.8845 25.269L23.9653 25.5351L23.7312 25.3843L23.5057 25.5529H23.5099ZM24.9186 26.7196L25.0336 26.2095L24.6335 25.9255L25.1485 25.8767L25.3059 25.4331L25.4847 25.8856L25.9571 25.9078L25.5868 26.2183L25.7273 26.6841L25.3187 26.418L24.9272 26.7108L24.9186 26.7196ZM26.0039 22.4963L26.1188 21.9861L25.7188 21.7022L26.2337 21.6534L26.3912 21.2098L26.5742 21.6623L27.0466 21.6845L26.6763 21.995L26.8168 22.4608L26.4082 22.1946L26.0167 22.4874L26.0039 22.4963ZM28.3447 24.5769L28.4596 24.0667L28.0595 23.7828L28.5745 23.734L28.732 23.2904L28.915 23.7429L29.3874 23.7651L29.0171 24.0756L29.1576 24.5414L28.749 24.2752L28.3574 24.568L28.3447 24.5769ZM29.3959 23.2904L29.5108 22.7802L29.1107 22.4963L29.6257 22.4475L29.7832 22.0039L29.9619 22.4564L30.4343 22.4786L30.0641 22.7891L30.2045 23.2549L29.7959 22.9887L29.4044 23.2815L29.3959 23.2904ZM29.63 25.1936L29.681 24.9673L29.5023 24.8431L29.7278 24.8209L29.7959 24.6257L29.8768 24.8253L30.0854 24.8342L29.9236 24.9717L29.9832 25.1802L29.8002 25.0649L29.6257 25.1936H29.63ZM29.7832 26.1651L29.847 25.8723L29.6172 25.7126L29.9109 25.686L30.0002 25.4331L30.1024 25.6904L30.3705 25.7037L30.1577 25.8812L30.2386 26.1473L30.0045 25.9965L29.7789 26.1651H29.7832ZM29.6427 28.4764L29.7066 28.1836L29.4768 28.0195L29.7704 27.9928L29.8598 27.74L29.9619 27.9973L30.2343 28.0106L30.0215 28.188L30.1024 28.4542L29.8683 28.3034L29.6427 28.472V28.4764ZM30.7961 24.6346L30.911 24.1244L30.5109 23.8405L31.0259 23.7917L31.1834 23.3481L31.3664 23.8006L31.8388 23.8227L31.4685 24.1333L31.6047 24.5991L31.1961 24.3329L30.8046 24.6257L30.7961 24.6346ZM32.5453 20.9436L32.6091 20.6508L32.3793 20.4911L32.673 20.4645L32.7623 20.2116L32.8645 20.4689L33.1369 20.4822L32.9241 20.6597L33.0049 20.9259L32.7708 20.775L32.5453 20.9436ZM32.2346 27.1278L32.2857 26.9015L32.1069 26.7773L32.3367 26.7551L32.4048 26.5599L32.4857 26.7596L32.6942 26.7684L32.5283 26.906L32.5878 27.1145L32.4048 26.9991L32.2303 27.1278H32.2346ZM32.7581 28.0549L32.8091 27.8287L32.6304 27.7045L32.8602 27.6823L32.9283 27.4871L33.0092 27.6867L33.2177 27.6956L33.0517 27.8331L33.1113 28.0416L32.9283 27.9263L32.7538 28.0549H32.7581ZM33.4007 27.4649L33.4518 27.2387L33.273 27.1145L33.4986 27.0923L33.5667 26.8971L33.6476 27.0967L33.8561 27.1056L33.6901 27.2431L33.7497 27.4516L33.5667 27.3363L33.3922 27.4649H33.4007ZM33.5539 17.3059L33.6688 16.7957L33.2688 16.5118L33.7838 16.463L33.9412 16.0193L34.12 16.4718L34.5924 16.494L34.2221 16.8046L34.3626 17.2704L33.954 17.0042L33.5624 17.297L33.5539 17.3059ZM34.286 27.8908L34.3328 27.6867L34.171 27.5714L34.3796 27.5536L34.4434 27.3762L34.5158 27.5581L34.7073 27.567L34.5583 27.6912L34.6137 27.8775L34.4477 27.771L34.2902 27.8908H34.286ZM34.8477 28.3832L34.886 28.2102L34.7499 28.1126L34.9243 28.0949L34.9754 27.944L35.035 28.0993L35.1967 28.1082L35.0733 28.2147L35.1201 28.3744L34.9797 28.2856L34.8477 28.3832ZM34.9073 27.2653L34.9456 27.0923L34.8094 26.9947L34.9839 26.9769L35.035 26.8261L35.0946 26.9814L35.2563 26.9902L35.1329 27.0967L35.1797 27.2564L35.0393 27.1677L34.9073 27.2653ZM35.6649 27.1899L35.7032 27.0169L35.567 26.9193L35.7415 26.9015L35.7926 26.7507L35.8521 26.9015L36.0139 26.9104L35.8904 27.0169L35.9373 27.1766L35.7968 27.0878L35.6649 27.1899ZM36.2096 26.5466L36.2607 26.3204L36.082 26.1961L36.3075 26.174L36.3756 25.9788L36.4565 26.1784L36.665 26.1873L36.499 26.3248L36.5586 26.5333L36.3756 26.418L36.2011 26.5466H36.2096ZM36.6012 27.1633L36.6523 26.937L36.4735 26.8128L36.6991 26.7906L36.7672 26.5954L36.848 26.795L37.0566 26.8039L36.8948 26.9414L36.9544 27.1499L36.7714 27.0346L36.5969 27.1633H36.6012ZM37.4353 25.1448L37.4992 24.852L37.2694 24.6878L37.563 24.6612L37.6524 24.4083L37.7545 24.6656L38.0269 24.6789L37.8141 24.8564L37.895 25.1226L37.6609 24.9717L37.4353 25.1403V25.1448Z" fill="#EBEBEB"/>
</g>
<defs>
<clipPath id="clip0_1504_27972">
<rect width="59" height="41" fill="white"/>
</clipPath>
</defs>
</svg>
