<svg width="29" height="29" viewBox="0 0 29 29" fill="none" xmlns="http://www.w3.org/2000/svg">
<path d="M19.5347 15.7083C18.1139 15.7083 15.9 16.1191 14.2069 16.9166C12.5139 16.107 10.2999 15.7083 8.8792 15.7083C6.31005 15.7083 1.18359 17.0133 1.18359 19.6354V22.9583H27.2303V19.6354C27.2303 17.0133 22.1038 15.7083 19.5347 15.7083ZM14.7989 21.1458H2.9595V19.6354C2.9595 18.9829 5.99039 17.5208 8.8792 17.5208C11.768 17.5208 14.7989 18.9829 14.7989 19.6354V21.1458ZM25.4544 21.1458H16.5748V19.6354C16.5748 19.0795 16.338 18.5962 15.9592 18.1612C17.001 17.7987 18.2797 17.5208 19.5347 17.5208C22.4235 17.5208 25.4544 18.9829 25.4544 19.6354V21.1458ZM8.8792 14.5C11.1642 14.5 13.023 12.6029 13.023 10.2708C13.023 7.93871 11.1642 6.04163 8.8792 6.04163C6.5942 6.04163 4.73541 7.93871 4.73541 10.2708C4.73541 12.6029 6.5942 14.5 8.8792 14.5ZM8.8792 7.85413C10.1815 7.85413 11.2471 8.94163 11.2471 10.2708C11.2471 11.6 10.1815 12.6875 8.8792 12.6875C7.57687 12.6875 6.51132 11.6 6.51132 10.2708C6.51132 8.94163 7.57687 7.85413 8.8792 7.85413ZM19.5347 14.5C21.8197 14.5 23.6785 12.6029 23.6785 10.2708C23.6785 7.93871 21.8197 6.04163 19.5347 6.04163C17.2497 6.04163 15.3909 7.93871 15.3909 10.2708C15.3909 12.6029 17.2497 14.5 19.5347 14.5ZM19.5347 7.85413C20.837 7.85413 21.9025 8.94163 21.9025 10.2708C21.9025 11.6 20.837 12.6875 19.5347 12.6875C18.2323 12.6875 17.1668 11.6 17.1668 10.2708C17.1668 8.94163 18.2323 7.85413 19.5347 7.85413Z" fill="#00BCFF"/>
</svg>
