<svg width="492" height="472" viewBox="0 0 492 472" fill="none" xmlns="http://www.w3.org/2000/svg">
<g clip-path="url(#clip0_454_54010)">
<g style="mix-blend-mode:multiply" opacity="0.5">
<path d="M179.255 464.891C179.255 467.866 168.794 470.269 155.9 470.269C143.006 470.269 132.545 467.866 132.545 464.891C132.545 461.915 143.006 459.512 155.9 459.512C168.794 459.512 179.255 461.915 179.255 464.891Z" fill="#33AEE3"/>
</g>
<g style="mix-blend-mode:multiply" opacity="0.5">
<path d="M89.5132 431.175C89.5132 433.621 80.8982 435.61 70.2654 435.61C59.6326 435.61 51.0176 433.621 51.0176 431.175C51.0176 428.729 59.6326 426.741 70.2654 426.741C80.8982 426.741 89.5132 428.729 89.5132 431.175Z" fill="#33AEE3"/>
</g>
<g style="mix-blend-mode:multiply" opacity="0.5">
<path d="M226.609 451.387C248.581 451.387 266.392 449.402 266.392 446.953C266.392 444.504 248.581 442.519 226.609 442.519C204.637 442.519 186.825 444.504 186.825 446.953C186.825 449.402 204.637 451.387 226.609 451.387Z" fill="#33AEE3"/>
</g>
<g style="mix-blend-mode:multiply" opacity="0.5">
<path d="M356.135 407.945C371.365 407.945 383.712 405.96 383.712 403.511C383.712 401.062 371.365 399.077 356.135 399.077C340.905 399.077 328.559 401.062 328.559 403.511C328.559 405.96 340.905 407.945 356.135 407.945Z" fill="#33AEE3"/>
</g>
<g style="mix-blend-mode:multiply" opacity="0.5">
<path d="M414.236 391.982C448.878 391.982 476.96 389.196 476.96 385.759C476.96 382.323 448.878 379.537 414.236 379.537C379.595 379.537 351.513 382.323 351.513 385.759C351.513 389.196 379.595 391.982 414.236 391.982Z" fill="#33AEE3"/>
</g>
<g style="mix-blend-mode:multiply" opacity="0.5">
<path d="M219.425 392.683C261.97 392.683 296.459 389.833 296.459 386.317C296.459 382.802 261.97 379.952 219.425 379.952C176.88 379.952 142.391 382.802 142.391 386.317C142.391 389.833 176.88 392.683 219.425 392.683Z" fill="#33AEE3"/>
</g>
<g style="mix-blend-mode:multiply" opacity="0.5">
<path d="M325.324 472C362.408 472 392.47 469.176 392.47 465.692C392.47 462.208 362.408 459.384 325.324 459.384C288.241 459.384 258.179 462.208 258.179 465.692C258.179 469.176 288.241 472 325.324 472Z" fill="#33AEE3"/>
</g>
<g style="mix-blend-mode:multiply">
<path d="M126.664 324.952C126.12 315.983 123.544 307.372 119.265 299.704L126.592 295.628C122.914 289.033 118.149 283.068 112.439 277.99L106.858 284.27C100.403 278.548 92.6328 274.114 83.7888 271.582L86.0785 263.557L85.9784 263.529C79.8391 261.798 73.6426 260.968 67.5462 260.968C66.2154 260.968 64.8988 261.011 63.5822 261.083L64.0831 269.451C55.1103 269.98 46.4953 272.555 38.8105 276.817L34.7319 269.494C28.1347 273.156 22.1529 277.919 17.0726 283.626L23.3407 289.205C17.6021 295.642 13.1658 303.409 10.6328 312.249L2.60454 309.961L2.56161 310.118C0.830017 316.24 0 322.434 0 328.528C0 329.829 0.0429319 331.131 0.114485 332.433L8.48621 331.946C9.01571 340.915 11.5773 349.526 15.8419 357.208L8.51483 361.285C12.1784 367.879 16.9438 373.858 22.6394 378.936L28.2349 372.671C34.6747 378.407 42.4454 382.855 51.2894 385.387L48.9853 393.412L49.2 393.469C55.3393 395.2 61.5358 396.03 67.6321 396.03C68.9916 396.03 70.3511 395.987 71.7106 395.901L71.1955 387.533C80.1682 386.989 88.7832 384.4 96.4538 380.123L100.547 387.447C107.129 383.771 113.111 378.993 118.177 373.286L111.895 367.707C117.619 361.256 122.055 353.489 124.56 344.634L132.588 346.909V346.851C134.334 340.715 135.178 334.521 135.164 328.427C135.164 327.083 135.121 325.738 135.05 324.408L126.678 324.909L126.664 324.952ZM102.035 338.24C97.5843 354.004 83.2021 364.288 67.6035 364.288C64.3836 364.288 61.1065 363.845 57.8293 362.93C42.059 358.481 31.7696 344.105 31.7553 328.513C31.7553 325.295 32.199 322.019 33.1148 318.743C37.5654 302.98 51.9476 292.695 67.5462 292.681C70.7661 292.681 74.0433 293.124 77.3204 294.04C93.0907 298.489 103.38 312.864 103.38 328.456C103.38 331.675 102.936 334.95 102.021 338.226L102.035 338.24Z" fill="#2787AD"/>
</g>
<path d="M85.3205 153.786H44.9072C44.9072 143.015 53.6367 134.275 64.427 134.275H65.8151C76.591 134.275 85.3348 143 85.3348 153.786H85.3205Z" fill="white"/>
<path d="M112.096 163.456H29.5518C29.5518 155.259 36.2062 148.608 44.4062 148.608H97.2554C105.455 148.608 112.11 155.259 112.11 163.456H112.096Z" fill="white"/>
<path d="M131.601 177.603H23.8559C19.7488 177.603 16.4287 174.284 16.4287 170.179C16.4287 166.073 19.7488 162.755 23.8559 162.755H131.615C135.722 162.755 139.042 166.073 139.042 170.179C139.042 174.284 135.722 177.603 131.615 177.603H131.601Z" fill="white"/>
<path d="M359.541 171.209V339.056C359.541 344.591 355.033 349.097 349.495 349.097H79.038C73.4997 349.097 69.0205 344.591 69.0205 339.056V171.209C69.0205 165.63 73.4997 161.167 79.038 161.167H349.481C355.019 161.167 359.527 165.644 359.527 171.209H359.541Z" fill="#10384F"/>
<path d="M359.541 330.559V339.041C359.541 344.577 355.033 349.083 349.495 349.083H79.038C73.4997 349.083 69.0205 344.577 69.0205 339.041V330.559H359.527H359.541Z" fill="#F9F8F7"/>
<path d="M348.807 172.324H79.7529V319.215H348.807V172.324Z" fill="white"/>
<path d="M336.93 190.476H160.107V222.518H336.93V190.476Z" fill="#BFD0DA"/>
<path d="M208.005 231.229H160.107V275.931H208.005V231.229Z" fill="#BFD0DA"/>
<path d="M204.441 285.715H177.924V310.476H204.441V285.715Z" fill="#D30F4B"/>
<path d="M314.276 285.715H287.759V310.476H314.276V285.715Z" fill="#00617F"/>
<path d="M246.988 310.476H245.227C238.387 310.476 232.849 304.94 232.849 298.102C232.849 291.265 238.387 285.729 245.227 285.729H246.988C253.828 285.729 259.366 291.265 259.366 298.102C259.366 304.94 253.828 310.476 246.988 310.476Z" fill="#66B512"/>
<path d="M335.069 231.229H218.695V236.765H335.069V231.229Z" fill="#BFD0DA"/>
<path d="M335.069 243.989H218.695V249.525H335.069V243.989Z" fill="#BFD0DA"/>
<path d="M296.846 256.748H218.695V262.284H296.846V256.748Z" fill="#BFD0DA"/>
<path d="M315.349 269.508H218.695V275.044H315.349V269.508Z" fill="#BFD0DA"/>
<path d="M154.168 172.324H79.7529V319.215H154.168V172.324Z" fill="#00BCFF"/>
<path d="M154.168 297.301H79.7529V319.215H154.168V297.301Z" fill="#00617F"/>
<path d="M105.641 216.196H84.9482V236.765H105.641V216.196Z" fill="#00617F"/>
<path d="M139.185 216.196H118.492V236.765H139.185V216.196Z" fill="#00617F"/>
<path d="M105.641 244.39H84.9482V264.959H105.641V244.39Z" fill="#00617F"/>
<path d="M139.185 244.39H118.492V264.959H139.185V244.39Z" fill="#00617F"/>
<path d="M144.48 184.154H84.1182V189.69H144.48V184.154Z" fill="white"/>
<path d="M144.48 277.518H84.1182V283.054H144.48V277.518Z" fill="#89D329"/>
<path d="M96.5827 194.038H84.1182V199.574H96.5827V194.038Z" fill="#00617F"/>
<path d="M113.999 194.038H101.534V199.574H113.999V194.038Z" fill="#66B512"/>
<path d="M131.215 194.038H118.75V199.574H131.215V194.038Z" fill="#D30F4B"/>
<path d="M248.776 349.097H180.156V380.252H248.776V349.097Z" fill="#BFD0DA"/>
<path d="M268.424 380.238H160.136V386.417H268.424V380.238Z" fill="#F9F8F7"/>
<path d="M304.587 184.154C306.334 184.154 307.75 182.739 307.75 180.993C307.75 179.247 306.334 177.831 304.587 177.831C302.841 177.831 301.425 179.247 301.425 180.993C301.425 182.739 302.841 184.154 304.587 184.154Z" fill="#89D329"/>
<path d="M318.741 184.154C320.487 184.154 321.903 182.739 321.903 180.993C321.903 179.247 320.487 177.831 318.741 177.831C316.994 177.831 315.578 179.247 315.578 180.993C315.578 182.739 316.994 184.154 318.741 184.154Z" fill="#FF3162"/>
<path d="M332.894 184.154C334.641 184.154 336.057 182.739 336.057 180.993C336.057 179.247 334.641 177.831 332.894 177.831C331.147 177.831 329.731 179.247 329.731 180.993C329.731 182.739 331.147 184.154 332.894 184.154Z" fill="#00617F"/>
<path d="M380.448 96.3396L448.953 96.3396V85.5255L380.448 85.5255V96.3396Z" fill="#10384F"/>
<path d="M380.448 96.3396L448.953 96.3396V85.5255L380.448 85.5255V96.3396Z" fill="#10384F"/>
<path d="M380.448 96.3396L448.953 96.3396V85.5255L380.448 85.5255V96.3396Z" fill="#10384F"/>
<path d="M380.448 96.3396L448.953 96.3396V85.5255L380.448 85.5255V96.3396Z" fill="#10384F"/>
<path d="M446.105 85.5256L383.31 85.5256V73.7675C383.31 52.1822 400.841 34.6737 422.421 34.6737H446.105V85.5256Z" fill="#10384F"/>
<path d="M446.105 85.5256L383.31 85.5256V73.7675C383.31 52.1822 400.841 34.6737 422.421 34.6737H446.105V85.5256Z" fill="#10384F"/>
<path d="M446.105 85.5256L383.31 85.5256V73.7675C383.31 52.1822 400.841 34.6737 422.421 34.6737H446.105V85.5256Z" fill="#10384F"/>
<path d="M383.296 52.6686V85.5256H446.091V34.6737H401.299C391.353 34.6737 383.296 42.727 383.296 52.6686Z" fill="#10384F"/>
<path d="M382.652 360.369H446.764V340.615H382.652V360.369Z" fill="#10384F"/>
<path d="M369.915 385.816H459.5V360.355H369.915V385.816Z" fill="#10384F"/>
<path d="M392.627 342.245H426.429L433.427 347.781L435.058 345.721L430.679 342.26H436.775V94.6947H392.641V342.245H392.627ZM433.47 338.955H426.515L398.065 316.455H433.47V338.955ZM395.918 97.9847H433.47V106.439H395.918V97.9847ZM395.918 288.332L431.051 313.823H395.918V288.332ZM395.918 258.708L431.051 284.198H395.918V258.708ZM395.918 229.084L431.051 254.574H395.918V229.084ZM395.918 199.46L431.051 224.95H395.918V199.46ZM395.918 169.835L431.051 195.326H395.918V169.835ZM395.918 140.211L431.051 165.701H395.918V140.211ZM395.918 110.587L431.051 136.077H395.918V110.587ZM433.47 109.085V134.575L398.337 109.085H433.47ZM433.47 138.709V164.199L398.337 138.709H433.47ZM433.47 168.333V193.824L398.337 168.333H433.47ZM433.47 197.958V223.448L398.337 197.958H433.47ZM433.47 227.582V253.072L398.337 227.582H433.47ZM433.47 257.206V282.697L398.337 257.206H433.47ZM433.47 286.83V312.321L398.337 286.83H433.47ZM422.264 338.955H395.918V318.128L422.264 338.955Z" fill="#10384F"/>
<path d="M399.84 37.0911L414.694 13.446L429.549 37.0911L432.339 35.3316L416.64 10.3563L418.114 8.01038H411.274L412.748 10.3563L397.063 35.3316L399.84 37.0911Z" fill="#10384F"/>
<path d="M177.108 70.5775H492V38.7361H206.502L177.123 70.5775H177.108ZM488.708 67.2875H468.817L488.708 50.2082V67.2875ZM466.198 66.0717V42.0404H488.708V46.7465L466.198 66.086V66.0717ZM463.565 67.2875H438.85L463.565 43.4851V67.2875ZM436.56 65.8428V42.0404H461.275L436.56 65.8428ZM433.927 67.2875H409.213L433.927 43.4851V67.2875ZM406.923 65.8428V42.0404H431.638L406.923 65.8428ZM404.29 67.2875H379.575L404.29 43.4851V67.2875ZM377.286 65.8428V42.0404H402L377.286 65.8428ZM374.653 67.2875H349.938L374.653 43.4851V67.2875ZM347.648 65.8428V42.0404H372.363L347.648 65.8428ZM345.015 67.2875H320.301L345.015 43.4851V67.2875ZM318.011 65.8428V42.0404H342.726L318.011 65.8428ZM315.378 67.2875H290.663L315.378 43.4851V67.2875ZM288.374 65.8428V42.0404H313.088L288.374 65.8428ZM261.026 67.2875L285.741 43.4851V67.2875H261.026ZM258.736 65.8428V42.0404H283.451L258.736 65.8428ZM247.316 67.2875H184.65L207.962 42.0261H256.103V67.2875H247.316Z" fill="#10384F"/>
<path d="M201.021 69.8766L228.426 43.4851V68.9325L230.673 69.8623L257.992 42.4123L256.117 40.5528L231.059 65.7427V40.3811L228.827 39.437L199.189 67.9742L201.021 69.8766Z" fill="#10384F"/>
<path d="M383.296 52.6686V73.6673C411.788 73.1667 425.054 46.203 429.433 34.6594H401.299C391.353 34.6594 383.296 42.7128 383.296 52.6543V52.6686Z" fill="#10384F"/>
<path d="M206.545 80.2186H248.704V68.7036H206.545V80.2186Z" fill="#10384F"/>
<path d="M228.955 78.4592H226.322V105.995H228.955V78.4592Z" fill="#10384F"/>
<path d="M218.08 131.457H237.185V104.25H218.08V131.457Z" fill="#10384F"/>
<path d="M224.977 130.99L224.923 138.972L230.189 139.007L230.243 131.026L224.977 130.99Z" fill="#10384F"/>
<path d="M228.312 156.461C233.75 156.203 238.243 151.726 238.487 146.29C238.773 140.154 233.864 135.076 227.796 135.076V139.024C231.517 139.024 234.551 142.056 234.551 145.775C234.551 149.495 231.517 152.527 227.796 152.527C224.534 152.527 221.342 150.21 220.598 147.134C220.412 146.348 219.74 145.775 218.938 145.775C217.894 145.775 217.078 146.72 217.264 147.735C218.223 152.856 222.845 156.718 228.297 156.461H228.312Z" fill="#10384F"/>
<path d="M414.694 21.9428C420.756 21.9428 425.67 17.0308 425.67 10.9714C425.67 4.91207 420.756 0 414.694 0C408.632 0 403.718 4.91207 403.718 10.9714C403.718 17.0308 408.632 21.9428 414.694 21.9428Z" fill="#10384F"/>
<path d="M408.884 10.9714C408.884 14.1899 411.488 16.7933 414.708 16.7933C417.928 16.7933 420.533 14.1899 420.533 10.9714C420.533 7.75292 417.928 5.14954 414.708 5.14954C411.488 5.14954 408.884 7.75292 408.884 10.9714Z" fill="#10384F"/>
<path d="M422.564 15.1064L421.904 16.2451L464.511 40.9226L465.171 39.784L422.564 15.1064Z" fill="#10384F"/>
<path d="M403.724 11.7189L229.642 39.7147L229.851 41.014L403.933 13.0182L403.724 11.7189Z" fill="#10384F"/>
<path d="M152.437 356.95L163.885 360.884V360.941C163.885 360.941 160.809 360.541 160.122 361.785C159.435 363.044 159.42 364.059 158.734 364.059C158.047 364.059 157.818 361.828 156.916 361.942C156 362.057 155.585 363.874 156.272 364.746C156.959 365.619 154.054 367.736 151.936 366.577C151.95 366.52 151.979 366.463 151.993 366.405C152.508 364.589 150.963 358.953 152.279 357.136L152.351 356.922L152.451 356.965L152.437 356.95Z" fill="#414042"/>
<path d="M163.585 408.589C163.643 411.993 163.686 414.296 163.686 414.296L161.882 414.21L158.849 414.053C159.75 415.712 160.366 416.8 160.366 416.8L161.983 416.027L162.069 415.984L165.102 414.525L165.904 414.139C165.618 413.223 164.716 411.064 163.6 408.575L163.585 408.589Z" fill="#624963"/>
<path d="M152.437 355.491L167.334 360.626C167.291 361.084 167.22 361.542 167.091 362L165.431 361.427L163.885 360.898L152.437 356.965L152.336 356.922L151.778 356.736C151.964 356.292 152.179 355.877 152.437 355.506V355.491Z" fill="#66B512"/>
<path d="M174.218 463.117C174.504 465.22 159.821 470.283 158.92 468.238C158.09 466.35 157.832 460.07 157.789 459.055L164.386 456.523C164.515 456.995 165.603 461 166.819 461.472C168.136 461.987 173.917 461.014 174.218 463.117Z" fill="#6D4B35"/>
<path d="M170.14 376.49C170.14 376.49 171.37 384.586 168.694 387.59C167.034 389.464 163.542 390.122 163.542 390.122H163.442C163.442 387.719 163.485 385.602 163.542 384.057C163.585 383.099 163.5 382.183 163.356 381.325C163.714 381.311 166.047 381.125 166.19 379.594C166.347 377.92 165.961 375.803 165.961 375.803L166.462 375.775L169.567 375.632L170.054 375.603L170.14 376.476V376.49Z" fill="#443247"/>
<path d="M169.324 371.626C169.953 372.07 170.082 372.728 170.011 373.386L164.501 371.612C164.988 371.469 167.907 370.639 169.324 371.626Z" fill="#E0BD96"/>
<path d="M164.658 373.1L169.71 374.716C169.595 375.102 169.523 375.417 169.566 375.603V375.646L166.461 375.789V375.703C166.461 375.703 166.719 374.773 166.361 374.316C166.017 373.872 164.801 373.901 164.644 373.1H164.658Z" fill="#E0BD96"/>
<path d="M168.622 361.056C168.98 361.17 169.18 361.571 169.051 361.928C168.994 362.114 168.865 362.243 168.708 362.314C168.551 362.4 168.364 362.415 168.178 362.357L167.091 361.985C167.22 361.528 167.305 361.07 167.334 360.612L168.622 361.056Z" fill="#66B512"/>
<path d="M166.905 416.857C167.921 417.701 168.55 418.845 167.692 421.148C166.833 423.451 162.712 422.25 163.942 420.948C165.159 419.632 163.628 418.101 163.055 417.772C162.554 417.472 162.139 416.285 162.039 415.984L165.073 414.525C165.159 414.668 165.917 416.041 166.89 416.857H166.905Z" fill="#E0BD96"/>
<path d="M161.882 352.244C165.488 353.474 167.649 356.993 167.334 360.612L152.437 355.477C154.426 352.416 158.275 350.985 161.882 352.23V352.244Z" fill="#89D329"/>
<path d="M164.387 456.508L157.79 459.04L156.659 459.484C154.827 452.489 152.58 442.647 151.192 436.711C150.82 435.123 150.505 433.836 150.276 432.935C148.717 426.67 146.269 413.796 146.184 413.395L157.761 413.982L158.849 414.039C159.75 415.698 160.365 416.785 160.365 416.785L161.983 416.013C162.34 421.434 163.442 438.099 163.914 443.491C164.258 447.311 165.174 452.26 165.889 455.922L164.372 456.508H164.387Z" fill="#00617F"/>
<path d="M165.431 361.413L165.402 361.499C165.402 361.499 163.127 370.539 160.852 370.139C160.508 370.082 160.208 370.082 159.907 370.139L151.335 367.378C151.607 367.121 151.807 366.849 151.936 366.563C154.054 367.721 156.959 365.604 156.272 364.732C155.585 363.874 156.015 362.043 156.916 361.928C157.832 361.814 158.047 364.045 158.734 364.045C159.42 364.045 159.435 363.03 160.122 361.771C160.809 360.526 163.871 360.927 163.871 360.927V360.87L165.431 361.399V361.413Z" fill="#E0BD96"/>
<path d="M170.011 373.386L164.501 371.612L159.922 370.153C159.206 370.253 158.619 370.625 158.176 371.026L164.673 373.114L169.724 374.731L183.205 379.05L183.62 377.749L170.025 373.4L170.011 373.386Z" fill="#0F7292"/>
<path d="M163.585 408.589C163.642 411.993 163.685 414.296 163.685 414.296L161.882 414.211L158.848 414.053C156.916 410.506 153.639 404.312 152.179 400.364C149.904 394.227 148.616 383.842 148.616 383.842C148.616 383.842 149.746 396.802 152.866 403.926C155.757 410.549 157.531 413.61 157.775 413.996L146.197 413.41L142.333 413.209L141.646 413.166C141.646 413.166 143.135 399.749 143.135 394.528C143.135 389.307 142.219 378.507 144.838 373.844C146.426 371.011 148.544 369.538 150.075 368.422L150.762 368.637C151.006 369.867 152.122 372.642 157.188 372.199C157.188 372.199 162.325 375.331 163.399 381.339C163.542 382.197 163.613 383.099 163.585 384.071C163.527 385.616 163.499 387.733 163.485 390.136C163.456 395.972 163.542 403.497 163.628 408.589H163.585Z" fill="#624963"/>
<path d="M151.321 367.392L159.893 370.153C159.177 370.253 158.591 370.625 158.147 371.026L150.72 368.637C150.634 368.251 150.634 368.008 150.634 367.979C150.891 367.779 151.12 367.593 151.306 367.392H151.321Z" fill="#E0BD96"/>
<path d="M158.848 414.053L157.76 413.996C157.517 413.61 155.757 410.563 152.852 403.926C149.746 396.802 148.602 383.842 148.602 383.842C148.602 383.842 149.89 394.227 152.165 400.364C153.625 404.326 156.902 410.506 158.834 414.053H158.848Z" fill="#443247"/>
<path d="M150.734 368.637L158.162 371.026C157.518 371.584 157.16 372.199 157.16 372.199C152.108 372.656 150.978 369.881 150.734 368.637Z" fill="#E0BD96"/>
<path d="M151.149 355.048L152.437 355.491C152.18 355.877 151.965 356.292 151.779 356.721L150.706 356.349C150.348 356.221 150.148 355.834 150.277 355.463C150.334 355.291 150.463 355.148 150.62 355.076C150.777 355.005 150.963 354.991 151.149 355.048Z" fill="#66B512"/>
<path d="M136.967 362.786L151.321 367.392C151.135 367.578 150.906 367.779 150.648 367.965C150.462 368.108 150.262 368.265 150.047 368.422L135.88 363.888L136.295 362.586C136.223 363.001 136.08 363.444 135.951 363.731L136.581 364.017C136.624 363.902 136.839 363.402 136.967 362.801V362.786Z" fill="#0F7292"/>
<path d="M151.178 436.726L151.063 436.754C150.162 441.103 147.586 450.329 146.212 455.135L145.253 455.378L139.343 456.909L138.728 457.066C138.628 446.224 140.402 434.537 141.518 430.332C142.906 425.139 142.406 414.597 142.334 413.209L146.198 413.41C146.284 413.81 148.731 426.684 150.291 432.949C150.52 433.85 150.835 435.152 151.207 436.726H151.178Z" fill="#10384F"/>
<path d="M150.734 368.637L150.047 368.422C150.262 368.265 150.462 368.108 150.648 367.965C150.648 367.965 150.648 368.251 150.734 368.637Z" fill="#E0BD96"/>
<path d="M149.26 459.884C149.432 461.701 141.246 466.879 140.115 466.364C138.985 465.849 139.371 456.938 139.371 456.938V456.909L145.267 455.378V455.45C145.267 455.45 145.181 458.525 145.511 459.083C145.854 459.655 149.088 458.068 149.274 459.884H149.26Z" fill="#443247"/>
<path d="M136.867 361.256C137.096 361.685 137.067 362.272 136.967 362.786L136.309 362.572C136.395 362.186 136.395 361.799 136.266 361.571C136.066 361.184 135.436 360.984 134.921 360.898L135.279 360.269C135.865 360.412 136.567 360.684 136.867 361.242V361.256Z" fill="#0F7292"/>
<path d="M136.309 362.572L136.967 362.786C136.853 363.387 136.624 363.902 136.581 364.002L135.951 363.716C136.094 363.43 136.223 362.987 136.295 362.572H136.309Z" fill="#0F7292"/>
<path d="M136.824 356.864C136.824 357.351 136.71 357.837 136.438 358.295L135.279 360.283C134.849 360.183 134.492 360.169 134.406 360.169L134.377 360.855C134.506 360.855 134.692 360.884 134.921 360.913L131.544 366.763C130.757 368.151 128.982 368.623 127.608 367.822C126.22 367.035 125.748 365.261 126.549 363.888L131.429 355.42C132.231 354.032 133.991 353.56 135.365 354.361C136.281 354.89 136.796 355.863 136.796 356.864H136.824Z" fill="#0F7292"/>
<path d="M135.279 360.283L134.921 360.913C134.692 360.87 134.506 360.855 134.377 360.855L134.406 360.169C134.491 360.169 134.849 360.183 135.279 360.283Z" fill="#0F7292"/>
<path d="M164.372 456.465C164.372 456.465 164.372 456.48 164.372 456.508C164.5 456.98 165.588 460.986 166.804 461.458C168.121 461.973 173.903 461 174.203 463.103C174.489 465.205 159.807 470.269 158.905 468.224C158.075 466.335 157.817 460.056 157.774 459.04V458.897" fill="#443247"/>
<path d="M105.928 346.808C106.328 347.724 105.012 350.728 103.767 351.686C103.509 351.887 103.151 351.915 102.779 351.801C103.896 349.769 104.854 347.924 105.541 346.479C105.885 346.623 105.942 346.808 105.942 346.808H105.928Z" fill="#E0BD96"/>
<path d="M104.739 346.351C105.097 346.351 105.355 346.408 105.527 346.479C104.84 347.939 103.881 349.784 102.765 351.801C101.262 351.443 99.1869 349.212 99.5017 348.039C99.8881 346.565 104.725 346.336 104.725 346.336L104.739 346.351Z" fill="#E0BD96"/>
<path d="M57.8863 361.871C62.8664 362.643 67.7607 357.379 68.1041 357.022C67.9038 357.365 65.6999 361.127 62.1509 362.1C58.7306 363.044 57.2567 362.515 57.042 362.443C57.0849 361.928 57.0992 361.628 57.0992 361.628V361.585C57.3568 361.728 57.6144 361.828 57.9006 361.871H57.8863Z" fill="#D30F4B"/>
<path d="M67.0023 353.746C66.573 353.789 62.795 354.104 62.2082 353.574C61.5786 353.002 62.7234 343.275 62.7234 343.275C62.7234 343.275 60.5625 353.732 61.3639 354.418C62.1224 355.062 66.573 353.861 67.0166 353.746H67.0023ZM67.0452 353.746L68.1329 356.993C68.1329 356.993 68.1329 356.993 68.1185 357.022C67.7751 357.379 62.8952 362.643 57.9007 361.871C57.6145 361.828 57.3569 361.728 57.1137 361.585C52.9063 359.182 54.4805 343.132 55.6253 338.398C56.8131 333.391 67.3315 333.277 67.3315 333.277C67.3315 333.277 68.7482 335.837 73.7569 335.251C73.7569 335.251 79.7531 338.684 81.5133 342.074L77.7067 346.837L72.8554 352.916C72.011 351.801 74.3151 350.585 73.0843 349.541C71.8393 348.453 67.0596 353.746 67.0596 353.746H67.0452Z" fill="#FF3162"/>
<path d="M79.8966 322.977C80.24 323.02 80.4547 323.335 80.4117 323.664C80.3688 323.979 80.0969 324.193 79.7964 324.193C79.7678 324.193 79.7391 324.193 79.7105 324.193L78.6229 324.036L77.5639 323.879L74.0864 323.364L72.1545 323.078L65.085 322.048L64.7559 322.005H64.5985L63.5109 321.819C63.1674 321.776 62.9527 321.461 62.9957 321.132C63.0386 320.832 63.3105 320.617 63.5967 320.617C63.6253 320.617 63.654 320.617 63.6826 320.617L64.67 320.76L78.9091 322.849L79.8822 322.992L79.8966 322.977Z" fill="#FCEE21"/>
<path d="M73.5134 378.936C68.2185 379.408 60.8628 379.666 57.829 379.251C57.0133 379.136 56.5124 378.979 56.4552 378.75C56.0688 377.448 56.8129 365.662 57.0276 362.443C57.2422 362.529 58.7162 363.058 62.1365 362.1C65.6998 361.127 67.8894 357.365 68.0897 357.022C68.0897 357.007 68.104 356.993 68.104 356.993C68.104 356.993 68.5763 357.108 69.3634 357.251L62.8091 365.461C62.8091 365.461 65.0845 366.42 66.8447 365.69C68.6049 364.961 73.5564 363.587 77.0195 364.503C77.5061 364.632 78.0928 364.846 78.7654 365.089C79.3951 371.855 80.2251 377.434 79.3236 378.006C79.066 378.178 78.3075 378.35 77.2199 378.521C76.2038 378.679 74.9302 378.822 73.4848 378.965L73.5134 378.936Z" fill="#FF3162"/>
<path d="M79.1519 351.758C79.3808 352.244 79.0088 353.417 78.2217 354.561C78.2217 353.546 78.2646 352.559 78.3075 351.6C78.7226 351.5 79.0374 351.515 79.1376 351.758H79.1519Z" fill="#E0BD96"/>
<path d="M72.8416 314.638C76.7771 315.225 79.4961 318.872 78.9237 322.792V322.834L64.6846 320.746C64.6846 320.746 64.6846 320.732 64.6846 320.703C65.257 316.769 68.8919 314.052 72.8416 314.624V314.638Z" fill="#89D329"/>
<path d="M78.3081 351.6C78.2509 352.559 78.2222 353.56 78.2222 354.561C77.2777 355.992 75.7322 357.394 73.972 357.494C72.1402 357.594 70.4659 357.408 69.3926 357.236L72.8414 352.916C72.8414 352.916 72.8844 352.974 72.8987 353.002C73.7001 353.889 76.7769 351.944 78.3081 351.6Z" fill="#E0BD96"/>
<path d="M106.615 343.404C105.699 342.374 89.671 343.29 87.7391 342.946C86.0504 342.646 83.2598 341.101 82.5872 340.715L81.4996 342.074L77.693 346.837L72.8417 352.916C72.8417 352.916 72.8846 352.974 72.8989 353.002C73.7003 353.889 76.7771 351.944 78.3083 351.6C78.7233 351.5 79.0382 351.515 79.1384 351.758C79.3673 352.244 78.9952 353.417 78.2082 354.561C77.2637 355.992 75.7181 357.394 73.9579 357.494C72.1261 357.594 70.4518 357.408 69.3785 357.236L62.8242 365.447C62.8242 365.447 65.0996 366.405 66.8598 365.676C68.62 364.946 73.5715 363.573 77.0347 364.489C77.5213 364.617 78.108 364.832 78.7806 365.075C82.9021 366.692 89.8713 370.382 91.3024 369.939C92.3471 369.61 98.5579 359.468 102.751 351.801C101.248 351.443 99.1733 349.212 99.4881 348.039C99.8745 346.565 104.711 346.336 104.711 346.336C105.069 346.336 105.327 346.394 105.499 346.465C106.329 344.734 106.758 343.576 106.586 343.39L106.615 343.404Z" fill="#89D329"/>
<path d="M73.4562 427.285C74.1431 427.456 80.6831 429.33 80.6831 430.517C80.6831 432.62 73.6852 431.876 71.9822 431.247C70.1934 429.716 68.0468 427.8 68.1469 426.012V425.783H69.6639C69.6639 425.783 69.7211 425.239 69.8213 424.295H70.0073L72.7979 424.309C72.7979 424.309 72.7979 427.099 73.4848 427.27L73.4562 427.285Z" fill="#624963"/>
<path d="M77.5784 323.864C77.5784 323.864 77.9934 329.572 76.6339 331.088C75.2744 332.604 74.058 331.918 74.058 331.918L73.7432 335.251C68.7344 335.837 67.3177 333.277 67.3177 333.277C67.3177 333.277 67.4751 331.989 67.2891 330.745H67.3749C69.2782 330.058 69.3498 326.84 69.3498 326.11C69.3498 325.381 70.6091 325.624 71.9686 325.28C73.3282 324.937 74.0866 323.421 74.0866 323.421V323.335L77.5641 323.85L77.5784 323.864Z" fill="#E0BD96"/>
<path d="M77.2628 378.507V378.65L73.2988 424.338H69.8213C70.5511 417.114 73.7138 385.917 73.5277 378.95C74.9731 378.807 76.2611 378.664 77.2628 378.507Z" fill="#10384F"/>
<path d="M71.9826 431.276C73.3135 432.434 74.4584 433.407 74.3582 433.979C74.1292 435.338 64.5125 434.437 62.6807 433.836C60.8632 433.221 61.5502 425.797 61.5502 425.797H68.1474V426.026C68.0615 427.814 70.1938 429.716 71.9826 431.276Z" fill="#443247"/>
<path d="M74.101 323.349V323.435C74.101 323.435 73.3425 324.951 71.9687 325.295C70.6092 325.638 69.3499 325.409 69.3499 326.124C69.3499 326.84 69.2783 330.058 67.375 330.745H67.2891C67.2033 330.187 67.0459 329.615 66.7596 329.186C65.8438 327.827 65.0996 322.033 65.0996 322.033L72.1691 323.063L74.101 323.349Z" fill="#414042"/>
<path d="M73.5136 378.936C73.6996 385.917 70.537 417.1 69.8071 424.309C69.7069 425.268 69.6497 425.797 69.6497 425.797H60.219C60.219 425.797 59.99 397.503 59.1886 392.611C58.4588 388.105 57.915 380.424 57.8291 379.251C60.863 379.68 68.2186 379.408 73.5136 378.936Z" fill="#00617F"/>
<path d="M73.056 349.541C74.2867 350.599 71.9827 351.801 72.8271 352.916L69.3782 357.236C68.5911 357.093 68.1189 356.979 68.1189 356.979L67.0312 353.732C67.0312 353.732 71.811 348.454 73.056 349.526V349.541Z" fill="#E0BD96"/>
<path d="M62.2087 353.574C62.7955 354.104 66.5735 353.789 67.0028 353.746C66.5592 353.861 62.1086 355.062 61.3501 354.418C60.5487 353.732 62.7096 343.275 62.7096 343.275C62.7096 343.275 61.5791 353.002 62.1944 353.574H62.2087Z" fill="#DD4517"/>
<path d="M64.6843 320.746L78.9234 322.834L79.8966 322.977C80.24 323.02 80.4547 323.335 80.4117 323.664C80.3688 323.979 80.0969 324.193 79.7964 324.193C79.7678 324.193 79.7391 324.193 79.7105 324.193L78.6229 324.036L77.5639 323.879L74.0864 323.364L72.1545 323.078L65.085 322.048L64.7559 322.005H64.5985L63.5109 321.819C63.1674 321.776 62.9527 321.461 62.9957 321.132C63.0386 320.832 63.3105 320.617 63.5967 320.617C63.6253 320.617 63.654 320.617 63.6826 320.617L64.67 320.76L64.6843 320.746Z" fill="#66B512"/>
<path d="M67.0028 353.746C66.5592 353.861 62.1086 355.062 61.3501 354.418C60.5487 353.732 62.7096 343.275 62.7096 343.275C62.7096 343.275 61.5791 353.002 62.1944 353.574C62.7812 354.104 66.5592 353.789 66.9885 353.746H67.0028Z" fill="#D30F4B"/>
<path d="M77.2773 378.636L73.2846 424.324H72.7837H69.9932" fill="#10384F"/>
<path d="M350.096 403.654C350.096 403.797 350.096 403.926 350.096 404.04C349.939 405.986 337.159 406.043 336.787 404.24C336.415 402.438 341.438 401.566 342.368 400.779C343.127 400.121 343.012 397.231 342.955 396.287L349.867 396.316C350.168 397.303 350.053 401.694 350.11 403.668L350.096 403.654Z" fill="#6D4B35"/>
<path d="M363.791 395.815C363.919 396.259 364.234 401.608 364.091 403.468C363.934 405.399 351.212 405.785 350.84 403.997C350.825 403.94 350.825 403.868 350.825 403.811C350.825 402.138 355.519 401.294 356.406 400.521C357.179 399.863 357.05 396.945 356.993 396.015L363.791 395.815Z" fill="#6D4B35"/>
<path d="M342.841 396.445H341.796C341.796 396.445 342.454 379.894 342.454 370.439C342.454 360.984 343.112 349.297 343.112 349.297L343.17 349.083C344.014 349.297 345.789 349.426 347.978 349.469V349.626C347.978 349.626 350.425 361.399 352.314 369.409L352.214 369.438C351.556 374.816 351.126 396.459 351.126 396.459H342.841V396.445Z" fill="#00617F"/>
<path d="M363.075 395.858L356.993 396.015L355.59 396.058C355.59 396.058 355.462 380.166 354.016 375.961C353.63 374.831 353 372.37 352.299 369.409C350.41 361.399 347.963 349.626 347.963 349.626V349.469C353.272 349.584 361.014 349.226 363.633 348.668C364.377 352.044 364.306 360.24 364.306 362.958C364.306 365.676 364.177 370.253 364.048 373.601C363.919 377.148 365.293 395.801 365.293 395.801L363.061 395.858H363.075Z" fill="#10384F"/>
<path d="M341.838 328.27C341.896 328.456 341.91 328.628 341.81 328.728C341.724 328.828 341.509 328.814 341.194 328.756C341.409 328.585 341.624 328.427 341.838 328.27Z" fill="#89D329"/>
<path d="M346.16 329.786L345.144 332.79L345.058 332.762C345.058 332.762 343.527 332.175 341.452 332.361C341.323 332.375 341.194 332.375 341.066 332.375C339.792 332.375 338.404 331.789 337.66 330.902C337.245 330.401 337.03 329.801 337.173 329.157C337.388 328.127 338.59 328.199 339.72 328.427C340.279 328.528 340.794 328.685 341.18 328.742C341.495 328.799 341.71 328.799 341.796 328.714C341.896 328.613 341.881 328.442 341.824 328.256C341.652 327.626 340.951 326.654 341.481 326.21C342.168 325.624 344.214 328.17 344.6 328.971C344.972 329.729 346.089 329.758 346.089 329.758L346.146 329.786H346.16Z" fill="#E0BD96"/>
<path d="M325.682 320.489L327.9 317.899L328.444 317.256C328.444 317.256 334.411 324.494 335.384 324.637C335.671 324.68 336.357 323.993 337.23 322.949H337.831L339.706 328.442C338.576 328.227 337.374 328.141 337.159 329.171C337.03 329.815 337.245 330.416 337.645 330.916C336.873 331.26 336.143 331.489 335.527 331.489C332.479 331.489 324.98 321.29 324.98 321.29L325.653 320.489H325.682Z" fill="#FF3162"/>
<path d="M353.931 335.465L353.172 335.737C349.251 334.993 345.388 334.178 344.801 334.049C345.43 334.149 349.81 334.907 353.931 335.465Z" fill="#FCEE21"/>
<path d="M344.729 334.049L345.159 332.79L345.073 332.762C345.073 332.762 343.542 332.175 341.466 332.361C341.338 332.375 341.209 332.375 341.08 332.375L343.441 339.284L343.556 339.242L353.187 335.723C349.266 334.979 345.402 334.163 344.815 334.035C344.758 334.035 344.729 334.02 344.729 334.02V334.049Z" fill="#89D329"/>
<path d="M352.042 317.227L337.846 322.935L339.72 328.427C340.279 328.528 340.794 328.685 341.18 328.742C341.395 328.571 341.609 328.413 341.824 328.256C341.652 327.626 340.951 326.654 341.481 326.21C342.168 325.624 344.214 328.17 344.6 328.971C344.972 329.729 346.089 329.758 346.089 329.758L346.146 329.786L346.575 328.528C346.575 328.528 355.433 330.702 356.75 329.972L352.042 317.241V317.227Z" fill="#89D329"/>
<path d="M360.628 336.924C364.02 337.21 365.022 329.028 365.251 326.496H365.337C364.907 330.616 364.321 334.593 364.321 336.495C364.321 340.543 365.308 347.238 364.521 348.31C364.435 348.425 364.12 348.539 363.648 348.639C361.029 349.197 353.287 349.541 347.978 349.44C345.788 349.398 344.014 349.269 343.169 349.054C342.883 348.983 342.697 348.911 342.654 348.811C341.967 347.624 342.554 344.191 343.441 339.857C343.484 339.671 343.527 339.456 343.556 339.256L353.187 335.737C356.092 336.281 359.011 336.781 360.643 336.924H360.628Z" fill="#FF3162"/>
<path d="M365.265 326.496C365.021 329.028 364.034 337.21 360.642 336.924C359.011 336.795 356.092 336.281 353.187 335.737L353.945 335.465C356.922 335.88 359.769 336.195 360.986 336.109C363.891 335.923 365.193 326.725 365.308 325.838C365.308 325.953 365.279 326.182 365.265 326.496Z" fill="#DD4517"/>
<path d="M344.801 334.063L344.715 334.049L345.144 332.79L346.16 329.786L346.589 328.528C346.589 328.528 355.448 330.702 356.764 329.972L352.056 317.241L337.86 322.949H337.259C339.42 320.36 342.683 315.611 343.484 314.495C344.614 312.922 349.065 312.521 349.065 312.521C349.065 312.521 352.686 313.036 354.775 311.277C354.775 311.277 363.261 310.99 365.122 315.024C366.109 317.156 365.837 321.905 365.351 326.496H365.265C365.293 326.167 365.308 325.938 365.308 325.824C365.193 326.725 363.891 335.909 360.986 336.095C359.769 336.18 356.922 335.851 353.945 335.451C349.824 334.893 345.444 334.149 344.815 334.035L344.801 334.063Z" fill="#FF3162"/>
<path d="M358.911 302.15C358.911 302.322 358.825 302.465 358.725 302.565C358.611 302.68 358.468 302.737 358.296 302.737H356.879L349.48 302.637L357.308 302.723C357.28 302.322 357.223 301.921 357.122 301.535H358.296C358.625 301.55 358.897 301.821 358.897 302.15H358.911Z" fill="#FCEE21"/>
<path d="M357.308 302.723L349.48 302.637H348.665L343.298 302.579H343.27C343.298 302.165 343.37 301.778 343.47 301.392L357.122 301.535C357.222 301.921 357.28 302.322 357.308 302.723Z" fill="#FCEE21"/>
<path d="M357.137 301.535L343.484 301.392C344.271 298.331 347.062 296.1 350.368 296.128C353.674 296.157 356.421 298.46 357.137 301.521V301.535Z" fill="#FCEE21"/>
<path d="M356.893 302.908C356.893 302.908 356.993 305.269 356.063 306.942C355.405 308.115 354.832 308.988 354.689 309.932H354.646C353.759 309.674 352.872 308.587 353.215 307.858C353.559 307.114 353.258 306.628 352.915 306.47C352.571 306.327 351.77 306.299 351.612 306.899C351.469 307.486 351.026 306.799 351.026 306.799C351.026 306.799 350.925 306.356 351.169 305.569C351.412 304.782 350.153 304.882 349.466 304.682C348.779 304.482 348.679 302.637 348.679 302.637H349.494L356.893 302.723V302.908Z" fill="#414042"/>
<path d="M354.632 309.932H354.675C354.603 310.361 354.632 310.805 354.761 311.277C352.686 313.022 349.051 312.521 349.051 312.521C349.051 310.347 346.389 309.932 345.359 309.174C343.613 307.886 344.414 302.651 344.414 302.651V302.608L348.664 302.651C348.664 302.651 348.765 304.496 349.451 304.697C350.138 304.897 351.398 304.797 351.154 305.583C350.897 306.37 351.011 306.814 351.011 306.814C351.011 306.814 351.455 307.5 351.598 306.914C351.741 306.327 352.557 306.342 352.9 306.485C353.244 306.628 353.544 307.128 353.201 307.872C352.857 308.602 353.745 309.689 354.632 309.932Z" fill="#E0BD96"/>
<path d="M342.296 301.378H343.47C343.37 301.778 343.298 302.165 343.269 302.579H342.282C341.953 302.579 341.695 302.293 341.695 301.964C341.695 301.807 341.767 301.664 341.881 301.55C341.982 301.449 342.139 301.378 342.311 301.378H342.296Z" fill="#FCEE21"/>
<path d="M327.914 317.885C327.756 317.814 326.082 317.098 325.953 316.011C325.81 314.881 324.909 311.091 320.243 310.89C320.243 310.89 319.299 311.134 319.299 311.577C319.299 312.02 322.061 311.92 322.991 313.751C323.921 315.582 320.143 313.966 319.757 314.609C319.37 315.253 320.93 316.369 322.018 316.369C323.105 316.369 325.481 320.145 325.696 320.489V320.503" fill="#E0BD96"/>
<path d="M356.765 329.972V329.958L352.042 317.227L337.86 322.949L339.735 328.442" fill="#89D329"/>
<path d="M341.08 332.39L343.441 339.299L343.542 339.256L353.173 335.751L353.931 335.465H353.945" fill="#89D329"/>
<path d="M341.753 458.354H288.088L293.082 444.679L297.69 432.077L301.898 420.547L306.506 407.945L312.344 391.953C313.132 389.807 316.695 389.807 317.482 391.953L323.321 407.945L327.929 420.547L332.136 432.077L336.744 444.679L341.739 458.354H341.753Z" fill="#FF3162"/>
<path d="M352.486 464.519H277.369L277.326 457.81H352.529L352.486 464.519Z" fill="#FF3162"/>
<path d="M327.943 420.547H301.912L306.52 407.931H323.335L327.943 420.547Z" fill="#FFFEFF"/>
<path d="M336.758 444.679H293.097L297.705 432.077H332.15L336.758 444.679Z" fill="#FFFEFF"/>
<path d="M376.413 459.255C377.787 459.226 378.889 460.328 378.903 461.701C378.903 462.96 377.987 464.004 376.785 464.19C376.671 464.204 376.556 464.19 376.456 464.19H371.991L367.669 464.233L353.459 464.319L345.574 464.362L316.666 464.533H315.335L314.663 464.576H310.226C308.853 464.605 307.751 463.503 307.736 462.13C307.736 460.9 308.652 459.87 309.826 459.684C309.94 459.67 310.083 459.641 310.198 459.67L314.219 459.612L372.449 459.255H376.427H376.413Z" fill="#89D329"/>
<path d="M343.112 430.203C359.226 430.131 372.306 443.062 372.406 459.126C372.406 459.174 372.416 459.221 372.435 459.269L314.205 459.627C314.205 459.579 314.205 459.527 314.205 459.469C314.105 443.406 326.998 430.303 343.112 430.188V430.203Z" fill="#89D329"/>
<path d="M204.385 353.775H202.811V447.325H204.385V353.775Z" fill="#FFFEFF"/>
<path d="M206.946 418.673H200.392V422.407H206.946V418.673Z" fill="#FFFEFF"/>
<path d="M257.305 418.673H250.751V422.407H257.305V418.673Z" fill="#FFFEFF"/>
<path d="M254.729 353.775H253.155V447.325H254.729V353.775Z" fill="#FFFEFF"/>
<path d="M261.585 356.879H195.512C194.682 356.879 194.01 357.551 194.01 358.381V369.381C194.01 370.21 194.682 370.883 195.512 370.883H261.585C262.414 370.883 263.087 370.21 263.087 369.381V358.381C263.087 357.551 262.414 356.879 261.585 356.879Z" fill="#89D329"/>
<path d="M209.164 356.879L198.989 370.883H195.526C194.696 370.883 194.023 370.21 194.023 369.381V368.451L202.438 356.879H209.178H209.164Z" fill="#414042"/>
<path d="M222.917 356.879L212.742 370.883H206.002L216.177 356.879H222.917Z" fill="#414042"/>
<path d="M236.669 356.879L226.495 370.883H219.769L229.943 356.879H236.669Z" fill="#414042"/>
<path d="M250.422 356.879L240.248 370.883H233.521L243.696 356.879H250.422Z" fill="#414042"/>
<path d="M263.087 358.381L253.999 370.883H247.273L257.448 356.879H261.584C262.414 356.879 263.087 357.551 263.087 358.381Z" fill="#414042"/>
<path d="M261.585 405.985H195.512C194.682 405.985 194.01 406.658 194.01 407.487V418.487C194.01 419.317 194.682 419.989 195.512 419.989H261.585C262.414 419.989 263.087 419.317 263.087 418.487V407.487C263.087 406.658 262.414 405.985 261.585 405.985Z" fill="#89D329"/>
<path d="M209.164 405.985L198.989 419.989H195.526C194.696 419.989 194.023 419.317 194.023 418.487V417.558L202.438 405.985H209.178H209.164Z" fill="#414042"/>
<path d="M222.917 405.985L212.742 419.989H206.002L216.177 405.985H222.917Z" fill="#414042"/>
<path d="M236.669 405.985L226.495 419.989H219.769L229.943 405.985H236.669Z" fill="#414042"/>
<path d="M250.422 405.985L240.248 419.989H233.521L243.696 405.985H250.422Z" fill="#414042"/>
<path d="M263.087 407.487L253.999 419.989H247.273L257.448 405.985H261.584C262.414 405.985 263.087 406.658 263.087 407.487Z" fill="#414042"/>
<path d="M260.74 372.685H196.357C195.061 372.685 194.01 373.735 194.01 375.031V401.494C194.01 402.79 195.061 403.84 196.357 403.84H260.74C262.036 403.84 263.087 402.79 263.087 401.494V375.031C263.087 373.735 262.036 372.685 260.74 372.685Z" fill="#89D329"/>
<path d="M261.856 376.004V400.507C261.856 401.58 260.969 402.452 259.881 402.452H197.2C196.113 402.452 195.226 401.58 195.226 400.507V376.004C195.226 374.931 196.113 374.058 197.2 374.058H259.881C260.969 374.058 261.856 374.931 261.856 376.004Z" stroke="#414042" stroke-width="0.5" stroke-miterlimit="10"/>
<path d="M221.73 384.157C221.73 385.144 221.1 385.874 219.869 385.874C218.638 385.874 218.009 385.173 218.009 384.157V380.881H219.039V384.1C219.039 384.758 219.297 385.087 219.855 385.087C220.413 385.087 220.685 384.758 220.685 384.1V380.881H221.715V384.157H221.73Z" fill="#414042"/>
<path d="M226.38 385.759H225.049L223.504 381.883C223.561 382.326 223.647 382.956 223.647 383.857V385.759H222.702V380.881H224.004L225.579 384.758C225.536 384.429 225.435 383.757 225.435 383.027V380.881H226.38V385.759Z" fill="#414042"/>
<path d="M231.203 383.299C231.203 385.273 230.001 385.759 228.799 385.759H227.396V380.881H228.67C229.958 380.881 231.189 381.282 231.189 383.299H231.203ZM228.441 381.64V385.001H228.87C229.586 385.001 230.13 384.672 230.13 383.299C230.13 381.926 229.557 381.64 228.856 381.64H228.455H228.441Z" fill="#414042"/>
<path d="M234.795 381.64H233.035V382.913H234.566V383.656H233.035V385.001H234.924V385.759H231.99V380.881H234.91L234.795 381.64Z" fill="#414042"/>
<path d="M237.284 383.857H236.755V385.774H235.725V380.896H237.242C238.544 380.896 239.202 381.368 239.202 382.355C239.202 382.998 238.887 383.385 238.229 383.671L239.488 385.774H238.315L237.27 383.857H237.284ZM236.755 383.127H237.299C237.843 383.127 238.143 382.898 238.143 382.355C238.143 381.854 237.857 381.64 237.227 381.64H236.755V383.142V383.127Z" fill="#414042"/>
<path d="M207.776 389.764L207.261 390.365C206.989 390.136 206.703 390.022 206.374 390.022C205.715 390.022 205.243 390.508 205.243 391.781C205.243 393.054 205.715 393.526 206.388 393.526C206.789 393.526 207.075 393.355 207.361 393.126L207.848 393.727C207.533 394.041 207.018 394.342 206.359 394.342C205.057 394.342 204.17 393.441 204.17 391.781C204.17 390.122 205.114 389.235 206.345 389.235C206.975 389.235 207.39 389.421 207.805 389.764H207.776Z" fill="#414042"/>
<path d="M212.37 391.781C212.37 393.383 211.54 394.327 210.209 394.327C208.879 394.327 208.034 393.398 208.034 391.781C208.034 390.165 208.864 389.235 210.209 389.235C211.555 389.235 212.37 390.151 212.37 391.781ZM209.122 391.781C209.122 393.054 209.523 393.555 210.195 393.555C210.868 393.555 211.268 393.054 211.268 391.781C211.268 390.508 210.896 390.008 210.195 390.008C209.494 390.008 209.122 390.508 209.122 391.781Z" fill="#414042"/>
<path d="M216.835 394.227H215.504L213.959 390.351C214.016 390.794 214.102 391.424 214.102 392.325V394.227H213.157V389.35H214.46L216.034 393.226C215.991 392.897 215.891 392.225 215.891 391.495V389.35H216.835V394.227Z" fill="#414042"/>
<path d="M221 389.85L220.513 390.422C220.17 390.136 219.826 390.008 219.44 390.008C219.01 390.008 218.724 390.193 218.724 390.537C218.724 390.88 218.91 391.023 219.712 391.266C220.599 391.552 221.157 391.91 221.157 392.826C221.157 393.741 220.456 394.342 219.268 394.342C218.452 394.342 217.866 394.056 217.465 393.655L217.994 393.069C218.352 393.369 218.738 393.555 219.239 393.555C219.74 393.555 220.084 393.312 220.084 392.883C220.084 392.497 219.898 392.325 219.153 392.096C218.095 391.767 217.665 391.338 217.665 390.594C217.665 389.764 218.381 389.221 219.368 389.221C220.098 389.221 220.585 389.435 221.014 389.836L221 389.85Z" fill="#414042"/>
<path d="M224.835 390.151H223.604V394.213H222.574V390.151H221.271V389.335H224.949L224.835 390.151Z" fill="#414042"/>
<path d="M227.038 392.311H226.509V394.227H225.479V389.35H226.995C228.298 389.35 228.956 389.822 228.956 390.809C228.956 391.452 228.641 391.839 227.983 392.125L229.242 394.227H228.069L227.024 392.311H227.038ZM226.509 391.581H227.053C227.596 391.581 227.897 391.352 227.897 390.809C227.897 390.308 227.611 390.093 226.981 390.093H226.509V391.581Z" fill="#414042"/>
<path d="M233.393 392.611C233.393 393.598 232.763 394.328 231.532 394.328C230.302 394.328 229.672 393.627 229.672 392.611V389.335H230.702V392.554C230.702 393.212 230.96 393.541 231.518 393.541C232.076 393.541 232.348 393.212 232.348 392.554V389.335H233.378V392.611H233.393Z" fill="#414042"/>
<path d="M237.743 389.764L237.228 390.365C236.956 390.136 236.67 390.022 236.341 390.022C235.682 390.022 235.21 390.508 235.21 391.781C235.21 393.054 235.682 393.526 236.355 393.526C236.756 393.526 237.042 393.355 237.328 393.126L237.815 393.727C237.5 394.041 236.985 394.342 236.326 394.342C235.024 394.342 234.137 393.441 234.137 391.781C234.137 390.122 235.081 389.235 236.312 389.235C236.942 389.235 237.357 389.421 237.772 389.764H237.743Z" fill="#414042"/>
<path d="M241.434 390.151H240.204V394.213H239.173V390.151H237.871V389.335H241.549L241.434 390.151Z" fill="#414042"/>
<path d="M243.109 394.227H242.079V389.35H243.109V394.227Z" fill="#414042"/>
<path d="M248.247 391.781C248.247 393.383 247.417 394.327 246.086 394.327C244.755 394.327 243.911 393.398 243.911 391.781C243.911 390.165 244.741 389.235 246.086 389.235C247.432 389.235 248.247 390.151 248.247 391.781ZM244.999 391.781C244.999 393.054 245.399 393.555 246.072 393.555C246.745 393.555 247.145 393.054 247.145 391.781C247.145 390.508 246.773 390.008 246.072 390.008C245.371 390.008 244.999 390.508 244.999 391.781Z" fill="#414042"/>
<path d="M252.712 394.227H251.381L249.836 390.351C249.893 390.794 249.979 391.424 249.979 392.325V394.227H249.034V389.35H250.336L251.911 393.226C251.868 392.897 251.767 392.225 251.767 391.495V389.35H252.712V394.227Z" fill="#414042"/>
<path d="M341.452 97.4984H327.471C327.471 93.7649 330.49 90.7467 334.225 90.7467H334.698C338.433 90.7467 341.452 93.7649 341.452 97.4984Z" fill="white"/>
<path d="M350.711 100.846H322.146C322.146 98.0133 324.45 95.7103 327.284 95.7103H345.573C348.407 95.7103 350.711 98.0133 350.711 100.846Z" fill="white"/>
<path d="M357.465 105.738H320.186C318.77 105.738 317.61 104.593 317.61 103.163C317.61 101.747 318.755 100.588 320.186 100.588H357.465C358.882 100.588 360.041 101.732 360.041 103.163C360.041 104.579 358.897 105.738 357.465 105.738Z" fill="white"/>
<path d="M137.239 36.9052H114.814C114.814 30.926 119.666 26.0768 125.648 26.0768H126.42C132.402 26.0768 137.254 30.926 137.254 36.9052H137.239Z" fill="white"/>
<path d="M152.094 42.2693H106.285C106.285 37.7205 109.977 34.03 114.528 34.03H143.851C148.401 34.03 152.094 37.7205 152.094 42.2693Z" fill="white"/>
<path d="M162.912 50.1224H103.122C100.847 50.1224 99.001 48.2771 99.001 46.0027C99.001 43.7283 100.847 41.8831 103.122 41.8831H162.912C165.188 41.8831 167.034 43.7283 167.034 46.0027C167.034 48.2771 165.188 50.1224 162.912 50.1224Z" fill="white"/>
<path d="M275.852 160.723C274.994 160.723 274.464 160.766 274.464 160.766C273.448 161.31 271.001 176.816 271.001 176.816L269.37 176.415L265.019 175.342L264.762 175.285C264.762 175.285 266.393 154.787 268.969 153.543V153.314H293.726V152.928H298.048C298.048 152.928 300.696 160.881 295.158 161.11C289.619 161.339 283.981 161.081 284.296 163.584C284.611 166.073 285.798 181.522 285.798 181.522L285.469 181.579L281.047 182.38L278.8 182.781C278.8 182.781 274.293 163.799 275.695 160.909C275.738 160.824 275.781 160.809 275.838 160.723H275.852Z" fill="#00617F"/>
<path d="M269.355 176.43L269.312 176.63C269.312 176.63 269.241 182.867 267.566 183.682C265.892 184.512 257.22 181.45 257.535 180.263C257.85 179.062 259.08 177.302 261.914 177.531C264.733 177.76 265.005 175.457 265.005 175.457L265.033 175.357L269.384 176.43H269.355Z" fill="#443247"/>
<path d="M285.483 181.579C285.712 182.166 287.73 187.401 286.571 188.717C285.34 190.119 276.167 190.648 275.995 189.418C275.823 188.188 276.296 186.085 278.972 185.213C281.09 184.526 281.147 182.995 281.061 182.38L285.483 181.579Z" fill="#443247"/>
<path d="M298.048 152.913H293.726V151.969H289.476V151.454H289.647C289.647 151.454 293.297 151.054 294.341 150.439L294.398 150.71C294.398 150.71 296.001 150.367 298.062 149.795V152.899L298.048 152.913Z" fill="#443247"/>
<path d="M293.726 152.913V153.314H289.476V151.984H293.726V152.913Z" fill="#F9F8F7"/>
<path d="M289.475 153.314H268.954H263.73V136.935H279.644H289.475V147.764V151.468V151.983V153.314Z" fill="#F9F8F7"/>
<path d="M289.662 147.764C289.963 147.649 293.641 147.85 293.641 147.85L293.769 147.821L294.328 150.453C293.283 151.068 289.634 151.469 289.634 151.469H289.462V147.764H289.648H289.662Z" fill="#E0BD96"/>
<path d="M294.327 150.453L293.769 147.821L293.611 147.063C293.611 147.063 295.844 146.391 298.062 145.647V149.809C296.001 150.367 294.398 150.725 294.398 150.725L294.341 150.453H294.327Z" fill="#443247"/>
<path d="M289.662 147.764H289.476V136.935H279.645V136.692C279.645 136.692 280.661 129.44 282.535 128.439C284.41 127.423 288.703 127.967 288.703 127.967C288.703 127.967 290.964 129.526 293.612 127.967C293.612 127.967 301.64 126.407 303.744 132.244C305.847 138.094 308.652 143.229 307.25 145.733C306.377 147.292 301.54 148.865 298.048 149.809V145.647C300.109 144.946 302.184 144.159 302.413 143.787C302.885 143.015 298.048 137.093 298.048 137.093V145.647C295.83 146.391 293.597 147.063 293.597 147.063L293.755 147.821L293.626 147.85C293.626 147.85 289.948 147.649 289.648 147.764H289.662Z" fill="#D30F4B"/>
<path d="M293.612 127.28V127.981C290.95 129.54 288.703 127.981 288.703 127.981C288.617 126.894 286.9 126.651 284.095 126.179C281.29 125.706 281.29 117.138 281.29 117.138V116.823L286.599 116.881V116.995C286.599 116.995 288.002 121.358 289.791 121.358C291.579 121.358 294.857 120.657 294.857 122.13C294.857 123.604 291.665 124.319 291.823 125.792C291.98 127.28 293.626 127.28 293.626 127.28H293.612Z" fill="#E0BD96"/>
<path d="M288.903 116.909L298.477 117.009C298.477 117.009 299.364 119.956 298.205 122.374C297.032 124.791 293.755 126.422 293.611 127.28C293.611 127.28 291.98 127.28 291.808 125.792C291.651 124.319 294.842 123.618 294.842 122.13C294.842 120.643 291.579 121.358 289.776 121.358C287.973 121.358 286.585 116.995 286.585 116.995V116.881H287.844L288.889 116.909H288.903Z" fill="#414042"/>
<path d="M281.132 115.279C281.003 115.779 280.903 116.294 280.875 116.809H279.587C279.157 116.809 278.828 116.437 278.828 116.008C278.828 115.808 278.914 115.608 279.057 115.465C279.186 115.336 279.401 115.25 279.615 115.25H281.132V115.279Z" fill="#66B512"/>
<path d="M300.853 116.795C300.71 116.938 300.509 117.024 300.295 117.024L298.477 116.995L288.903 116.895L299.035 116.995C299.007 116.48 298.921 115.965 298.806 115.465H300.323C300.753 115.479 301.096 115.837 301.096 116.266C301.096 116.48 300.996 116.666 300.867 116.809L300.853 116.795Z" fill="#66B512"/>
<path d="M298.792 115.465C298.906 115.965 298.992 116.48 299.021 116.995L288.889 116.895H287.844L286.585 116.866L281.276 116.809H280.875C280.904 116.28 280.989 115.779 281.133 115.279L298.792 115.465Z" fill="#66B512"/>
<path d="M290.034 108.484C294.299 108.527 297.862 111.488 298.792 115.465L281.133 115.279C282.149 111.316 285.755 108.441 290.034 108.47V108.484Z" fill="#89D329"/>
</g>
<defs>
<clipPath id="clip0_454_54010">
<rect width="492" height="472" fill="white"/>
</clipPath>
</defs>
</svg>
