<svg width="31" height="31" viewBox="0 0 31 31" fill="none" xmlns="http://www.w3.org/2000/svg">
<path d="M16.3393 12.9167C15.2801 9.90709 12.4126 7.75 9.04136 7.75C4.76593 7.75 1.29134 11.2246 1.29134 15.5C1.29134 19.7754 4.76593 23.25 9.04136 23.25C12.4126 23.25 15.2801 21.0929 16.3393 18.0834H21.9581V23.25H27.1247V18.0834H29.7081V12.9167H16.3393ZM9.04136 18.0834C7.62052 18.0834 6.45802 16.9209 6.45802 15.5C6.45802 14.0792 7.62052 12.9167 9.04136 12.9167C10.4622 12.9167 11.6247 14.0792 11.6247 15.5C11.6247 16.9209 10.4622 18.0834 9.04136 18.0834Z" fill="white"/>
</svg>
