<svg width="20" height="20" viewBox="0 0 20 20" fill="none" xmlns="http://www.w3.org/2000/svg">
<path d="M9.99102 1.66663C5.39102 1.66663 1.66602 5.39996 1.66602 9.99996C1.66602 14.6 5.39102 18.3333 9.99102 18.3333C14.5993 18.3333 18.3327 14.6 18.3327 9.99996C18.3327 5.39996 14.5993 1.66663 9.99102 1.66663ZM15.766 6.66663H13.3077C13.041 5.62496 12.6577 4.62496 12.1577 3.69996C13.691 4.22496 14.966 5.29163 15.766 6.66663ZM9.99935 3.36663C10.691 4.36663 11.2327 5.47496 11.591 6.66663H8.40768C8.76602 5.47496 9.30768 4.36663 9.99935 3.36663ZM3.54935 11.6666C3.41602 11.1333 3.33268 10.575 3.33268 9.99996C3.33268 9.42496 3.41602 8.86663 3.54935 8.33329H6.36602C6.29935 8.88329 6.24935 9.43329 6.24935 9.99996C6.24935 10.5666 6.29935 11.1166 6.36602 11.6666H3.54935ZM4.23268 13.3333H6.69102C6.95768 14.375 7.34102 15.375 7.84102 16.3C6.30768 15.775 5.03268 14.7166 4.23268 13.3333ZM6.69102 6.66663H4.23268C5.03268 5.28329 6.30768 4.22496 7.84102 3.69996C7.34102 4.62496 6.95768 5.62496 6.69102 6.66663ZM9.99935 16.6333C9.30768 15.6333 8.76602 14.525 8.40768 13.3333H11.591C11.2327 14.525 10.691 15.6333 9.99935 16.6333ZM11.9493 11.6666H8.04935C7.97435 11.1166 7.91602 10.5666 7.91602 9.99996C7.91602 9.43329 7.97435 8.87496 8.04935 8.33329H11.9493C12.0243 8.87496 12.0827 9.43329 12.0827 9.99996C12.0827 10.5666 12.0243 11.1166 11.9493 11.6666ZM12.1577 16.3C12.6577 15.375 13.041 14.375 13.3077 13.3333H15.766C14.966 14.7083 13.691 15.775 12.1577 16.3ZM13.6327 11.6666C13.6994 11.1166 13.7493 10.5666 13.7493 9.99996C13.7493 9.43329 13.6994 8.88329 13.6327 8.33329H16.4493C16.5827 8.86663 16.666 9.42496 16.666 9.99996C16.666 10.575 16.5827 11.1333 16.4493 11.6666H13.6327Z" fill="white"/>
</svg>
