<svg width="26" height="26" viewBox="0 0 26 26" fill="none" xmlns="http://www.w3.org/2000/svg">
<g clip-path="url(#clip0_433_21597)">
<path fill-rule="evenodd" clip-rule="evenodd" d="M14.1328 15.7444C14.3878 15.7922 15.6801 16.1811 16.1051 16.2897L22.0585 17.8976C22.2866 17.9306 23.7073 18.3378 24.0785 18.4351C24.4037 18.5201 24.8088 18.6886 25.1219 18.4854C25.4038 18.3031 25.4341 18.0296 25.5217 17.6215C26.1705 14.5871 26.1514 11.4076 25.5156 8.37662C25.4315 7.9755 25.3821 7.68203 25.0802 7.52575C24.7567 7.35818 24.3656 7.52402 24.0438 7.61084C23.3863 7.78796 22.6899 8.00154 22.029 8.14914C21.7115 8.26288 20.5059 8.552 20.0601 8.67789C19.4079 8.86196 18.7435 9.033 18.0861 9.20665L14.1302 10.2477L14.1094 7.35732C14.1085 7.34863 14.105 7.34603 14.1016 7.34082L14.1319 15.7435L14.1328 15.7444Z" fill="#E0E0E0"/>
<path fill-rule="evenodd" clip-rule="evenodd" d="M16.7806 0.125071C16.7763 0.130281 16.7694 0.13549 16.7659 0.138095C16.4745 0.386408 16.2524 0.628644 15.9749 0.909951C15.7129 1.1765 15.4571 1.43523 15.203 1.68875C14.6591 2.2314 14.1561 2.74278 13.6574 3.24462C13.1127 3.79334 12.6053 4.3082 12.1144 4.80309C11.8455 5.07398 11.5897 5.33879 11.3468 5.58623C11.293 5.6418 10.633 6.32162 10.5801 6.34073L12.313 6.3442C12.8152 6.4015 13.1257 6.24869 13.5542 6.49614C13.7979 6.63766 14.0815 6.94762 14.0997 7.34179C14.1032 7.347 14.1066 7.34874 14.1075 7.35829L14.1283 10.2486L18.0842 9.20762C18.7417 9.03311 19.406 8.86293 20.0583 8.67887C20.505 8.55297 21.7097 8.26385 22.0271 8.15012C21.9308 7.57969 21.4 6.18097 21.1615 5.61923C20.6038 4.30125 19.8501 2.96331 19.0045 1.83982C18.7018 1.43697 18.406 1.02977 18.0582 0.659032C17.8726 0.461076 17.6835 0.148514 17.4112 0.0425895C17.2438 -0.0225277 16.863 -0.0181865 16.7789 0.126808L16.7806 0.125071Z" fill="white"/>
<path fill-rule="evenodd" clip-rule="evenodd" d="M13.0449 22.1295V22.1442L13.064 22.1677L13.0866 22.1894L13.1091 22.2111L13.1317 22.2328L13.1533 22.2553L13.175 22.2771L13.1976 22.2996L13.2193 22.3222L13.2409 22.3439L13.2635 22.3656L13.2852 22.3873L13.3069 22.4099L13.3294 22.4325L13.352 22.4542L13.3745 22.4767L13.3962 22.4985L13.4187 22.5202L13.4404 22.5427L13.463 22.5653L13.4855 22.587L13.5072 22.6087L13.5298 22.6304L13.5523 22.6521L13.5749 22.6738L13.5974 22.6955L13.62 22.7181L13.6416 22.7407L13.6642 22.7624L13.6859 22.785L13.7076 22.8075L13.7301 22.8301L13.7527 22.8518L13.7743 22.8744L13.7969 22.897L13.8186 22.9187L13.8411 22.9404L13.8637 22.9621L13.8862 22.9838L13.9088 23.0064L13.9305 23.0289L13.9521 23.0515L13.9747 23.0741L13.9973 23.0958L14.0198 23.1175L14.0415 23.1392L14.064 23.1609L14.0866 23.1835L14.1083 23.2061L14.1308 23.2278L14.1534 23.2495L14.1751 23.272L14.1967 23.2946L14.2193 23.3172L14.2418 23.3389L14.2644 23.3606L14.2869 23.3832L14.3095 23.4049L14.332 23.4266L14.3546 23.4492L14.3763 23.4717L14.398 23.4943L14.4205 23.516L14.4431 23.5386L14.4656 23.5603L14.4882 23.582L14.5107 23.6037L14.5333 23.6245L14.5558 23.6471L14.5775 23.6697L14.6 23.6914L14.6226 23.714L14.6451 23.7357L14.6668 23.7583L14.6894 23.7808L14.7119 23.8025L14.7345 23.8242L14.7562 23.8468L14.7787 23.8685L14.8004 23.8902L14.823 23.9128L14.8455 23.9354L14.8681 23.9571L14.8906 23.9797L14.9123 24.0022L14.934 24.0248L14.9565 24.0465L14.9782 24.0691L15.0008 24.0908L15.0233 24.1134L15.045 24.1359L15.0675 24.1576L15.0901 24.1793L15.1126 24.201L15.1343 24.2236L15.1569 24.2462L15.1794 24.2679L15.202 24.2905L15.2237 24.3131L15.2453 24.3348L15.2679 24.3573L15.2904 24.3799L15.313 24.4016L15.3355 24.4233L15.3572 24.4459L15.3798 24.4685L15.4023 24.4902L15.4249 24.5127L15.4474 24.5353L15.47 24.557L15.4925 24.5787L15.5151 24.6004L15.5376 24.623L15.5602 24.6447L15.5819 24.6673L15.6036 24.6899L15.627 24.7116L15.6487 24.7333L15.6712 24.755L15.6938 24.7767L15.7163 24.7984L15.738 24.821L15.7605 24.8427L15.7822 24.8652L15.8039 24.8878L15.8265 24.9104L15.849 24.9321L15.8716 24.9538L15.8941 24.9764L15.9158 24.999L15.9383 25.0207L15.9609 25.0424L15.9826 25.0649L16.0051 25.0875L16.0268 25.1101L16.0494 25.1327L16.0719 25.1544L16.0945 25.1769L16.1161 25.1986L16.1387 25.2212L16.1612 25.2429L16.1838 25.2646L16.2063 25.2863L16.228 25.308L16.2497 25.3306L16.2723 25.3532L16.2948 25.3749L16.3165 25.3975L16.339 25.4192L16.3616 25.4409L16.3841 25.4635L16.4058 25.486L16.4284 25.5077L16.4501 25.5303L16.4717 25.552L16.4943 25.5737L16.5169 25.5954L16.5394 25.618L16.562 25.6406L16.5836 25.6623L16.6053 25.6849L16.6279 25.7066L16.6496 25.7283C16.6799 25.7283 16.6721 25.7205 16.6712 25.7508L16.6929 25.7734L16.7163 25.7942L16.7415 25.8134C16.7797 25.8099 16.7684 25.8021 16.7684 25.842C16.8013 25.9149 16.9496 25.9644 17.0537 25.9853C17.5221 26.0816 17.7164 25.7309 17.8734 25.5833L18.085 25.3515C18.144 25.275 18.2151 25.1926 18.2767 25.1214L19.0312 24.1715C20.1701 22.6035 21.014 21.0364 21.6653 19.1618C21.7096 19.0351 22.0522 17.9151 22.0678 17.8986L16.1144 16.2906C15.6903 16.1812 14.3971 15.7931 14.1421 15.7454C14.1551 16.3688 14.1438 17.0043 14.1438 17.6286C14.1438 18.2528 14.1594 18.8779 14.1386 19.49C14.1247 19.8972 14.1967 21.0207 14.0857 21.3038C13.8992 21.7778 13.6512 22.0808 13.0553 22.1303L13.0449 22.1295Z" fill="#BCBCBC"/>
<path fill-rule="evenodd" clip-rule="evenodd" d="M15.2503 1.62355L10.7792 6.12358C10.5684 6.33456 10.6153 6.34846 10.4288 6.34846C10.3698 6.34846 10.3091 6.34759 10.2501 6.34759H2.03649C1.62538 6.34759 0.974881 6.28681 0.638356 6.45438C0.0945392 6.7244 0.132702 7.02394 0 7.30264V18.6747C0.0286219 18.7355 0.0503052 18.8787 0.0849985 18.9612C0.192548 19.213 0.346065 19.3867 0.594989 19.516C0.961003 19.7062 1.46492 19.6454 1.90379 19.6454H7.66027C8.61087 19.6454 9.58662 19.6237 10.5337 19.6463C11.0802 19.6428 11.7038 19.6732 12.2433 19.6419C12.7402 19.6124 13.0889 19.2799 13.2225 18.8961C13.3352 18.5723 13.2867 17.6519 13.2867 17.2517C13.2867 16.6821 13.2945 16.1065 13.2867 15.5378C13.258 14.7095 13.2841 13.8309 13.2841 12.9965L13.2893 7.92169C13.2893 7.45892 13.3231 7.17675 13.1036 6.84074C12.8122 6.39534 12.4159 6.39794 12.3161 6.34498L10.5832 6.34151C10.6361 6.32241 11.2961 5.64258 11.3499 5.58702C11.5919 5.33957 11.8486 5.07389 12.1175 4.80387C12.6084 4.30898 13.1149 3.79412 13.6605 3.2454C14.1592 2.74357 14.6622 2.23218 15.2061 1.68954C15.4602 1.43601 15.7152 1.17728 15.978 0.910734C16.2547 0.629428 16.4767 0.387192 16.769 0.138878C16.7725 0.135405 16.7794 0.130196 16.7837 0.125854C16.6007 0.228306 15.4888 1.38826 15.2529 1.62442L15.2503 1.62355ZM9.91273 9.79967C9.85462 9.99155 9.59963 10.3875 9.49121 10.5741C8.92137 11.5552 8.342 12.6101 7.77042 13.5713C7.62818 13.81 7.43303 14.0696 7.4287 14.4134C7.42349 14.8206 7.48074 16.4425 7.36451 16.7108C7.10692 17.3046 6.13377 17.3185 5.86229 16.7004C5.74954 16.4434 5.81025 14.8154 5.80158 14.4126C5.79464 14.0826 5.58822 13.8135 5.45031 13.5669C5.20052 13.1189 3.41035 9.98721 3.35484 9.74844C3.18051 9.00263 4.07819 8.58675 4.64977 8.9818C4.84058 9.11377 4.98889 9.44283 5.11812 9.71024C5.44424 10.3875 5.96464 11.372 6.32285 12.051C6.48677 12.3609 6.55529 12.5381 6.68366 12.8793C6.74437 12.809 6.79988 12.5702 6.84498 12.4669C6.94125 12.2472 7.32288 11.5726 7.45645 11.306L8.27868 9.75799C8.41832 9.50621 8.54148 9.19798 8.72536 9.03042C9.27264 8.53032 10.1313 9.08251 9.9136 9.79967H9.91273Z" fill="#EFEFEF"/>
<path fill-rule="evenodd" clip-rule="evenodd" d="M13.2862 15.5369L14.1067 15.7592C14.0555 15.9467 14.1223 18.8918 14.0928 19.4674C14.0668 19.9693 13.6635 20.3513 13.2272 20.4459C12.8638 20.5241 11.7345 20.4294 11.3945 20.4902C11.431 20.544 12.9566 22.0817 13.0468 22.1285C13.6427 22.0799 13.8907 21.776 14.0772 21.302C14.1882 21.0189 14.1162 19.8955 14.1301 19.4883C14.1509 18.8762 14.1353 18.2415 14.1353 17.6268C14.1353 17.0121 14.1474 16.3661 14.1336 15.7436L14.1032 7.34086C14.0841 6.94668 13.8014 6.63672 13.5577 6.4952C13.1301 6.24776 12.8187 6.40056 12.3165 6.34326C12.4162 6.39622 12.8126 6.39362 13.104 6.83902C13.3235 7.17503 13.2897 7.45807 13.2897 7.91997L13.2844 12.9948C13.2844 13.8291 13.2576 14.7078 13.287 15.5361L13.2862 15.5369Z" fill="#999999"/>
<path fill-rule="evenodd" clip-rule="evenodd" d="M10.533 19.6463C10.5807 19.7244 11.644 20.7672 11.7819 20.9035C11.9337 21.0537 12.9129 22.0756 13.0439 22.1442L13.0647 22.1676L13.0873 22.1893L13.1098 22.2111L13.1324 22.2328L13.1541 22.2553L13.1757 22.277L13.1983 22.2996L13.22 22.3222L13.2417 22.3439L13.2642 22.3656L13.2859 22.3873L13.3076 22.4099L13.3301 22.4325L13.3527 22.4542L13.3752 22.4767L13.3969 22.4984L13.4195 22.5201L13.4411 22.5427L13.4637 22.5653L13.4862 22.587L13.5079 22.6087L13.5305 22.6304L13.553 22.6521L13.5756 22.6738L13.5981 22.6955L13.6207 22.7181L13.6424 22.7407L13.6649 22.7624L13.6866 22.785L13.7083 22.8075L13.7308 22.8301L13.7534 22.8518L13.7751 22.8744L13.7976 22.897L13.8193 22.9187L13.8419 22.9404L13.8644 22.9621L13.887 22.9838L13.9095 23.0064L13.9312 23.0289L13.9529 23.0515L13.9754 23.0741L13.998 23.0958L14.0205 23.1175L14.0422 23.1392L14.0648 23.1609L14.0873 23.1835L14.109 23.206L14.1315 23.2277L14.1541 23.2495L14.1758 23.272L14.1975 23.2946L14.22 23.3172L14.2426 23.3389L14.2651 23.3606L14.2877 23.3832L14.3102 23.4049L14.3328 23.4266L14.3553 23.4491L14.377 23.4717L14.3987 23.4943L14.4212 23.516L14.4438 23.5386L14.4663 23.5603L14.4889 23.582L14.5114 23.6037L14.534 23.6245L14.5565 23.6471L14.5782 23.6697L14.6008 23.6914L14.6233 23.714L14.6459 23.7357L14.6676 23.7582L14.6901 23.7808L14.7127 23.8025L14.7352 23.8242L14.7569 23.8468L14.7794 23.8685L14.8011 23.8902L14.8237 23.9128L14.8462 23.9354L14.8688 23.9571L14.8913 23.9796L14.913 24.0022L14.9347 24.0248L14.9572 24.0465L14.9789 24.0691L15.0015 24.0908L15.024 24.1133L15.0457 24.1359L15.0683 24.1576L15.0908 24.1793L15.1134 24.201L15.135 24.2236L15.1576 24.2462L15.1801 24.2679L15.2027 24.2905L15.2244 24.313L15.2461 24.3347L15.2686 24.3573L15.2912 24.3799L15.3137 24.4016L15.3363 24.4233L15.358 24.4459L15.3805 24.4684L15.4031 24.4902L15.4256 24.5127L15.4482 24.5353L15.4707 24.557L15.4933 24.5787L15.5158 24.6004L15.5384 24.623L15.5609 24.6447L15.5826 24.6673L15.6043 24.6898L15.6277 24.7116L15.6494 24.7333L15.6719 24.755L15.6945 24.7767L15.717 24.7984L15.7387 24.821L15.7613 24.8427L15.7829 24.8652L15.8046 24.8878L15.8272 24.9104L15.8497 24.9321L15.8723 24.9538L15.8948 24.9764L15.9165 24.9989L15.9391 25.0206L15.9616 25.0423L15.9833 25.0649L16.0058 25.0875L16.0275 25.1101L16.0501 25.1326L16.0726 25.1544L16.0952 25.1769L16.1169 25.1986L16.1394 25.2212L16.162 25.2429L16.1845 25.2646L16.2071 25.2863L16.2288 25.308L16.2504 25.3306L16.273 25.3532L16.2955 25.3749L16.3172 25.3975L16.3398 25.4192L16.3623 25.4409L16.3849 25.4634L16.4066 25.486L16.4291 25.5077L16.4508 25.5303L16.4725 25.552L16.495 25.5737L16.5176 25.5954L16.5401 25.618L16.5627 25.6406L16.5844 25.6623L16.606 25.6848L16.6286 25.7065L16.6503 25.7282L16.672 25.7508C16.6711 25.7812 16.6633 25.7743 16.6936 25.7734C16.6936 25.8038 16.6858 25.796 16.7171 25.7942L16.7422 25.8133L16.7691 25.842C16.7691 25.8021 16.7795 25.8099 16.7422 25.8133L16.7171 25.7942L16.6936 25.7734L16.672 25.7508C16.6728 25.7204 16.6806 25.7274 16.6503 25.7282L16.6286 25.7065L16.606 25.6848L16.5844 25.6623L16.5627 25.6406L16.5401 25.618L16.5176 25.5954L16.495 25.5737L16.4725 25.552L16.4508 25.5303L16.4291 25.5077L16.4066 25.486L16.3849 25.4634L16.3623 25.4409L16.3398 25.4192L16.3172 25.3975L16.2955 25.3749L16.273 25.3532L16.2504 25.3306L16.2288 25.308L16.2071 25.2863L16.1845 25.2646L16.162 25.2429L16.1394 25.2212L16.1169 25.1986L16.0952 25.1769L16.0726 25.1544L16.0501 25.1326L16.0275 25.1101L16.0058 25.0875L15.9833 25.0649L15.9616 25.0423L15.9391 25.0206L15.9165 24.9989L15.8948 24.9764L15.8723 24.9538L15.8497 24.9321L15.8272 24.9104L15.8046 24.8878L15.7829 24.8652L15.7613 24.8427L15.7387 24.821L15.717 24.7984L15.6945 24.7767L15.6719 24.755L15.6494 24.7333L15.6277 24.7116L15.6043 24.6898L15.5826 24.6673L15.5609 24.6447L15.5384 24.623L15.5158 24.6004L15.4933 24.5787L15.4707 24.557L15.4482 24.5353L15.4256 24.5127L15.4031 24.4902L15.3805 24.4684L15.358 24.4459L15.3363 24.4233L15.3137 24.4016L15.2912 24.3799L15.2686 24.3573L15.2461 24.3347L15.2244 24.313L15.2027 24.2905L15.1801 24.2679L15.1576 24.2462L15.135 24.2236L15.1134 24.201L15.0908 24.1793L15.0683 24.1576L15.0457 24.1359L15.024 24.1133L15.0015 24.0908L14.9789 24.0691L14.9572 24.0465L14.9347 24.0248L14.913 24.0022L14.8913 23.9796L14.8688 23.9571L14.8462 23.9354L14.8237 23.9128L14.8011 23.8902L14.7794 23.8685L14.7569 23.8468L14.7352 23.8242L14.7127 23.8025L14.6901 23.7808L14.6676 23.7582L14.6459 23.7357L14.6233 23.714L14.6008 23.6914L14.5782 23.6697L14.5565 23.6471L14.534 23.6245L14.5114 23.6037L14.4889 23.582L14.4663 23.5603L14.4438 23.5386L14.4212 23.516L14.3987 23.4943L14.377 23.4717L14.3553 23.4491L14.3328 23.4266L14.3102 23.4049L14.2877 23.3832L14.2651 23.3606L14.2426 23.3389L14.22 23.3172L14.1975 23.2946L14.1758 23.272L14.1541 23.2495L14.1315 23.2277L14.109 23.206L14.0873 23.1835L14.0648 23.1609L14.0422 23.1392L14.0205 23.1175L13.998 23.0958L13.9754 23.0741L13.9529 23.0515L13.9312 23.0289L13.9095 23.0064L13.887 22.9838L13.8644 22.9621L13.8419 22.9404L13.8193 22.9187L13.7976 22.897L13.7751 22.8744L13.7534 22.8518L13.7308 22.8301L13.7083 22.8075L13.6866 22.785L13.6649 22.7624L13.6424 22.7407L13.6207 22.7181L13.5981 22.6955L13.5756 22.6738L13.553 22.6521L13.5305 22.6304L13.5079 22.6087L13.4862 22.587L13.4637 22.5653L13.4411 22.5427L13.4195 22.5201L13.3969 22.4984L13.3752 22.4767L13.3527 22.4542L13.3301 22.4325L13.3076 22.4099L13.2859 22.3873L13.2642 22.3656L13.2417 22.3439L13.22 22.3222L13.1983 22.2996L13.1757 22.277L13.1541 22.2553L13.1324 22.2328L13.1098 22.2111L13.0873 22.1893L13.0647 22.1676L13.0439 22.1442V22.1294C12.9554 22.0826 11.4289 20.5458 11.3925 20.4911C11.7325 20.4303 12.8626 20.525 13.2252 20.4468C13.6615 20.3522 14.0648 19.9702 14.0908 19.4683C14.1203 18.8927 14.0544 15.9476 14.1047 15.7601L13.2842 15.5378C13.292 16.1065 13.2842 16.6822 13.2842 17.2517C13.2842 17.6528 13.3327 18.5732 13.22 18.8962C13.0864 19.279 12.7377 19.6124 12.2408 19.642C11.7013 19.6732 11.0785 19.6437 10.5312 19.6463H10.533Z" fill="#606060"/>
</g>
<defs>
<clipPath id="clip0_433_21597">
<rect width="26" height="26" fill="white"/>
</clipPath>
</defs>
</svg>
