<svg width="218" height="290" viewBox="0 0 218 290" fill="none" xmlns="http://www.w3.org/2000/svg">
<mask id="mask0_1107_27453" style="mask-type:luminance" maskUnits="userSpaceOnUse" x="-28" y="-5" width="276" height="300">
<path d="M247.548 -4.98376H-27.0519V294.882H247.548V-4.98376Z" fill="white"/>
</mask>
<g mask="url(#mask0_1107_27453)">
<path fill-rule="evenodd" clip-rule="evenodd" d="M74.7941 46.159C75.2182 45.834 75.6236 45.6472 76.003 45.6025V45.5335C76.1295 46.228 76.1109 47.5278 75.9398 49.4288C75.8542 50.1721 75.7464 50.6351 75.6199 50.8179C75.4488 51.1429 75.2368 51.3744 74.9838 51.5125H73.3286L73.2654 46.7155H74.1581L74.2846 46.6464L74.7941 46.159Z" fill="#00BCFF"/>
<path fill-rule="evenodd" clip-rule="evenodd" d="M74.4111 52.5522L75.1104 53.0396L72.9456 55.4036V55.3345L70.4609 58.255L67.6601 57.8366C66.9794 57.6985 66.4065 57.4873 65.9416 57.2111L65.2423 56.6546L65.3055 56.3784C65.644 54.8471 65.9007 53.99 66.0681 53.8073C66.0681 53.7626 66.5367 53.596 67.4703 53.3198C68.9545 52.9949 69.7839 52.6496 69.955 52.2759C70.1261 51.951 70.1261 51.5123 69.955 50.9558L68.9991 49.4245C68.404 48.5431 68.1064 48.0354 68.1064 47.8973L68.0432 46.7153H72.8191L72.9456 51.9997H74.4744C74.2214 52.2313 74.1991 52.4181 74.4111 52.5562V52.5522Z" fill="#00BCFF"/>
<path fill-rule="evenodd" clip-rule="evenodd" d="M89.1858 69.1044L90.205 69.9371C89.3978 71.0948 89.1226 71.9559 89.3755 72.5123C89.502 73.0241 89.5689 73.6497 89.5689 74.3889L88.9329 74.3199C88.5498 74.3199 88.2968 74.2061 88.1667 73.9705L87.8468 72.9957C87.7203 72.7195 87.4004 72.5083 86.8908 72.3702C86.3812 72.3214 86.0204 72.1386 85.8084 71.8137L85.2988 70.8389C85.0868 70.4692 84.9604 70.3068 84.9157 70.3514V70.9079C84.8748 71.2775 84.5326 71.2329 83.8966 70.7698L83.8333 70.7008L83.134 70.1443C82.8774 69.9574 82.7509 69.6122 82.7509 69.1004C82.8365 68.3571 82.8588 67.894 82.8141 67.7112L82.6877 67.3619L88.2931 67.7112L88.3563 67.8493C88.5684 68.4058 88.8436 68.8242 89.1821 69.1004L89.1858 69.1044Z" fill="#00BCFF"/>
<path fill-rule="evenodd" clip-rule="evenodd" d="M85.0453 57.3532L88.6757 55.7528L88.9955 56.6586C89.5051 57.6335 89.4605 58.5108 88.8691 59.3029C88.6571 59.6278 88.5083 60.3671 88.4227 61.5288L88.1028 64.3112C88.1028 64.7295 88.0173 64.961 87.8462 65.0057C87.6342 65.1926 87.5486 65.4688 87.5933 65.8384L88.1028 67.2276L82.4974 66.8132C82.4118 66.5817 82.051 66.2121 81.415 65.7003L80.2061 63.9618L77.595 62.0853L77.6582 62.0162C81.3927 59.4207 83.8551 57.8691 85.0453 57.3573V57.3532Z" fill="#00BCFF"/>
<path fill-rule="evenodd" clip-rule="evenodd" d="M91.4808 74.8762C90.8001 74.7828 90.3761 74.6894 90.2087 74.6L90.0153 74.4579C89.9744 73.7633 89.8888 73.0687 89.7586 72.3701C89.5912 71.8623 89.8665 71.1434 90.5881 70.2173L90.8447 70.3554L91.7337 71.5374C91.7784 71.8136 91.9271 72.1385 92.1801 72.5122L92.4367 72.7884L92.8831 72.9956C93.0542 72.9956 93.1806 72.9509 93.2662 72.8575H93.3294C93.6679 72.8087 93.9246 72.8087 94.0957 72.8575C94.2221 72.9956 94.3709 73.0646 94.542 73.0646C95.2227 73.2962 96.1563 73.2068 97.3429 72.7844C97.5958 72.7397 97.9566 72.5285 98.4253 72.1588L99.4444 71.5333L99.954 71.4643C100.59 71.4643 101.758 71.7405 103.458 72.2969C104.053 72.5285 104.54 72.7844 104.923 73.0606L105.243 73.4789V73.8283C105.202 75.4977 104.86 77.0737 104.224 78.5563L104.098 78.4182C103.674 78.1379 103.354 77.6505 103.142 76.9559C102.974 76.3994 102.885 75.7983 102.885 75.1484C102.885 74.6853 102.632 74.2669 102.123 73.8973C101.446 73.5236 101.022 73.2474 100.85 73.0606C100.679 72.9225 100.49 72.8534 100.278 72.8534C99.7271 72.8534 99.2362 73.0849 98.8121 73.548C98.1761 74.3807 97.6851 74.8681 97.3466 75.0062C97.0899 75.1443 97.3243 75.8429 98.0459 77.094C98.0868 77.1874 98.005 77.2768 97.793 77.3743H97.0304C96.7738 77.4189 96.413 77.4433 95.948 77.4433H95.8178L94.9921 77.3052C94.6536 77.2605 94.3114 76.9803 93.9729 76.4725C93.5489 75.8226 93.2104 75.4286 92.9538 75.2905C92.6562 75.1037 92.1689 74.9656 91.4882 74.8722L91.4808 74.8762Z" fill="#00BCFF"/>
<path fill-rule="evenodd" clip-rule="evenodd" d="M72.6933 56.2402L76.6398 58.397L76.5766 60.5539L75.6206 60.6229C75.2375 60.6229 74.5159 60.3223 73.4558 59.7171L71.4175 58.4661L70.9711 58.2589L72.6896 56.2442L72.6933 56.2402Z" fill="#00BCFF"/>
<path fill-rule="evenodd" clip-rule="evenodd" d="M80.9724 52.8323C81.9916 52.8323 82.7132 52.7836 83.1372 52.6942H83.3269C83.7101 52.6942 84.3684 52.8323 85.3021 53.1126L86.3845 53.2507C87.0205 53.3441 87.4669 53.3644 87.7235 53.3198C88.1476 53.3198 88.4451 53.9696 88.6162 55.2694L84.8594 56.9389C83.7547 57.4019 81.2923 58.9535 77.4723 61.5978C77.4723 61.3663 77.6211 61.017 77.9186 60.5539C77.9186 60.4158 77.8331 60.3468 77.6657 60.3468L77.0297 60.4849L77.0929 58.1209L73.0162 55.895L75.5009 53.1816L76.0105 53.2507L80.9762 52.8323H80.9724Z" fill="#00BCFF"/>
<path fill-rule="evenodd" clip-rule="evenodd" d="M107.397 41.2194L106.315 41.2884L104.66 41.0082C104.321 40.9148 104.236 40.7767 104.403 40.5898L105.359 39.8262C105.53 39.55 105.508 39.3144 105.296 39.1316L104.913 38.9935L103.194 38.5751C102.811 38.5305 102.558 38.3192 102.432 37.9496C101.837 36.4224 101.137 35.6303 100.33 35.5856L100.077 35.5166L99.1213 35.6547L98.7381 35.7928L97.8492 35.8618H97.7227L97.533 35.7928L97.2131 35.5816C96.3204 34.8382 95.3868 34.3752 94.4122 34.1883L93.0769 33.8431C92.8203 33.705 92.6938 33.5181 92.6938 33.2866C92.6938 32.6814 92.2289 32.3808 91.2952 32.3808C90.7856 32.3808 90.4248 32.4742 90.2128 32.6611C89.9562 32.8926 89.852 33.0998 89.8929 33.2866L90.529 34.5377C90.8266 35.1388 90.8675 35.4434 90.6555 35.4434C90.4434 35.4434 90.1012 35.2566 89.6363 34.887C89.2122 34.4686 88.8514 34.2371 88.5539 34.1924C88.3009 34.099 87.8732 34.0543 87.2818 34.0543H86.9656L86.5193 33.9852C85.7977 33.9852 85.5856 33.8228 85.8832 33.4978C86.3519 32.8967 87.0065 32.3402 87.8583 31.8284C88.9221 31.2272 89.8967 30.8779 90.7856 30.7845L94.1593 30.5042C95.6025 30.5042 96.6849 30.8292 97.4065 31.4791C98.2583 32.2671 99.1882 32.9617 100.207 33.5669C101.182 34.1233 102.097 34.4483 102.945 34.5417C103.667 34.6351 104.262 34.822 104.727 35.0982L105.999 36.073C106.594 36.5361 107.591 36.9057 108.993 37.186C110.098 37.4662 110.5 37.7181 110.202 37.9496C110.035 38.1365 110.012 38.2989 110.139 38.437C110.18 38.6198 110.395 38.7376 110.775 38.7864C114.297 39.8506 114.915 40.4558 112.62 40.5939C110.328 40.9635 108.588 41.1747 107.397 41.2194Z" fill="#10384F"/>
<path fill-rule="evenodd" clip-rule="evenodd" d="M103.13 45.9474L102.941 45.7403V45.6022L103.261 45.5331C103.685 45.4397 104.15 45.464 104.659 45.6022C105.124 45.6468 105.701 45.8337 106.378 46.1586C106.928 46.3414 106.991 46.5079 106.567 46.646L104.339 47.1335C104.086 47.1335 103.956 47.1091 103.956 47.0644C104.042 46.646 103.763 46.2764 103.127 45.9515L103.13 45.9474Z" fill="#00BCFF"/>
<path fill-rule="evenodd" clip-rule="evenodd" d="M122.36 41.7759H122.87C124.357 41.7759 125.373 42.0318 125.927 42.5395C126.054 42.6329 126.351 43.0513 126.82 43.7946C127.158 44.3511 127.434 44.6273 127.646 44.6273C127.984 44.6273 128.263 44.8385 128.475 45.2528C128.732 45.6225 128.773 45.8337 128.602 45.8784L126.437 45.3909H126.373L126.31 45.3219L126.121 45.3909H126.057C125.89 45.3909 125.801 45.4153 125.801 45.46L124.718 45.9474L124.209 46.0855L124.145 46.1546H123.829C123.658 46.1546 123.554 46.1099 123.509 46.0124L123.19 45.594L123.063 45.4559L122.937 45.3869L122.747 45.3178H122.557L121.858 46.0124C121.605 46.2439 121.307 46.3617 120.965 46.3617C120.753 46.3617 120.478 46.248 120.139 46.0124V41.5647C120.861 41.7028 121.605 41.7718 122.367 41.7718L122.36 41.7759Z" fill="#00BCFF"/>
<path fill-rule="evenodd" clip-rule="evenodd" d="M119.686 41.569C119.686 41.569 119.686 41.967 119.686 41.9874C119.686 42.6454 119.686 43.3034 119.686 43.9614C119.686 44.2904 119.69 44.6194 119.686 44.9525C119.686 45.0784 119.686 45.2043 119.686 45.3262C119.686 45.5049 119.619 45.6796 119.612 45.8542C119.612 45.9152 119.664 46.0248 119.652 46.0736C119.604 46.3173 119.08 46.2726 118.89 46.2848C118.072 46.3376 117.246 46.3214 116.428 46.2645C115.84 46.2239 115.219 46.1914 114.646 46.033C114.456 45.9802 114.356 45.9517 114.545 45.8177C114.765 45.6593 115.089 45.578 115.341 45.509C116.104 45.3018 116.9 45.4684 117.674 45.3668C117.867 45.3424 118.44 45.3059 118.529 45.05C118.611 44.8185 118.209 44.5991 118.083 44.4691C117.874 44.2539 117.692 44.0427 117.514 43.7949C116.919 42.9622 116.409 42.3814 115.985 42.0564C115.773 41.9183 115.728 41.7315 115.858 41.4999C116.07 41.2684 116.346 41.1506 116.688 41.1506H117.134C117.901 41.3821 118.749 41.5243 119.682 41.569H119.686Z" fill="#0091DF"/>
<path fill-rule="evenodd" clip-rule="evenodd" d="M132.423 45.6673C132.594 45.5739 133.036 45.4602 133.758 45.318H134.587C136.54 45.318 136.477 45.8298 134.398 46.8493C133.888 47.0321 133.55 47.1296 133.379 47.1296H133.189L132.806 47.0605C132.508 47.0159 132.296 46.8778 132.17 46.6422V46.3619C132.17 46.037 132.255 45.8054 132.426 45.6673H132.423Z" fill="#00BCFF"/>
<path fill-rule="evenodd" clip-rule="evenodd" d="M143.566 47.8974L143.63 48.1045L143.566 48.3848L143.377 48.4538C143.291 48.4538 143.187 48.3848 143.057 48.2467C142.971 47.9217 142.949 47.7349 142.994 47.6902L143.12 47.5521L143.31 47.483H143.373L143.563 47.9014L143.566 47.8974Z" fill="#00BCFF"/>
<path fill-rule="evenodd" clip-rule="evenodd" d="M145.795 49.2175V49.1485L146.115 49.0794H146.561L146.688 49.2175V49.2866L146.624 49.4247L146.498 49.4937C146.286 49.7252 146.074 49.774 145.862 49.6318L145.672 49.5628L145.609 49.4937V49.4247L145.799 49.2175H145.795Z" fill="#00BCFF"/>
<path fill-rule="evenodd" clip-rule="evenodd" d="M147.643 54.2216C147.684 54.3597 147.643 54.5669 147.517 54.8472L147.327 54.9853L147.264 54.9162V54.705L147.391 54.1485C147.562 54.0998 147.647 54.1241 147.647 54.2176L147.643 54.2216Z" fill="#00BCFF"/>
<path fill-rule="evenodd" clip-rule="evenodd" d="M147.386 60.8992V60.8302C147.472 60.6474 147.58 60.5296 147.706 60.4808H148.089L148.283 60.6189L148.219 60.8992C148.134 60.9926 148.026 61.0373 147.9 61.0373C147.814 61.1754 147.728 61.1998 147.643 61.1064H147.58L147.386 60.8992Z" fill="#00BCFF"/>
<path fill-rule="evenodd" clip-rule="evenodd" d="M147.706 58.393C147.918 58.393 148.026 58.5067 148.026 58.7423C148.111 58.9738 147.985 59.1119 147.643 59.1607H147.516L147.453 59.0916L147.39 58.8114C147.39 58.5311 147.498 58.393 147.71 58.393H147.706Z" fill="#00BCFF"/>
<path fill-rule="evenodd" clip-rule="evenodd" d="M145.988 64.5143L146.051 63.9578C146.263 63.7263 146.475 63.7019 146.687 63.8887C146.899 64.0268 146.899 64.2827 146.687 64.6564L146.561 64.8636H146.431C146.345 64.8636 146.241 64.7945 146.114 64.6564L145.988 64.5183V64.5143Z" fill="#00BCFF"/>
<path fill-rule="evenodd" clip-rule="evenodd" d="M152.929 60.4117V60.761L152.735 61.1104C152.695 61.2485 152.564 61.3175 152.352 61.3175H152.096L151.906 61.1794L151.653 60.8991C151.608 60.8057 151.653 60.6676 151.78 60.4808L152.226 60.2736H152.479L152.542 60.2046C152.754 60.298 152.881 60.367 152.925 60.4158L152.929 60.4117Z" fill="#00BCFF"/>
<path fill-rule="evenodd" clip-rule="evenodd" d="M103.067 25.0861C103.406 25.0861 103.662 25.3176 103.83 25.7806C103.915 26.199 103.893 26.4996 103.767 26.6864L103.194 26.7555L102.941 26.6174L102.747 26.4062L102.621 26.1259L102.558 25.4313C102.558 25.1998 102.729 25.082 103.067 25.082V25.0861Z" fill="#00BCFF"/>
<path fill-rule="evenodd" clip-rule="evenodd" d="M103.514 28.1485C103.559 27.8236 103.707 27.6611 103.96 27.6611C104.213 27.6611 104.299 27.7992 104.217 28.0795C104.132 28.311 104.024 28.4491 103.897 28.4978H103.707L103.451 28.3597L103.514 28.1526V28.1485Z" fill="#00BCFF"/>
<path fill-rule="evenodd" clip-rule="evenodd" d="M150.716 70.4041C150.615 70.3797 150.541 70.3269 150.563 70.205C150.582 70.0954 150.738 69.9898 150.805 69.9207C150.891 69.8313 151.017 69.7095 151.058 69.5836C151.103 69.4414 151.077 69.2424 151.08 69.0921C151.095 68.755 150.969 68.9215 150.738 68.7509C150.716 68.5234 150.939 68.564 151.073 68.5519C151.307 68.5315 151.534 68.5153 151.772 68.5112C151.999 68.5112 152.222 68.5234 152.416 68.6697C153.476 69.4577 151.653 70.3025 151.077 70.3959C151.006 70.4081 150.839 70.4325 150.716 70.4041Z" fill="#CCCCCC"/>
<path fill-rule="evenodd" clip-rule="evenodd" d="M28.5665 4.92296C28.9905 5.29259 29.7345 6.21869 30.7946 7.70533L31.8137 9.16353C32.3233 9.81343 33.0449 10.4836 33.9785 11.1782L34.4881 11.5275C35.8048 12.3155 36.5897 12.7095 36.8463 12.7095C37.2295 12.7095 37.5456 12.2221 37.8023 11.2473L37.8655 11.1782L38.1222 10.3455L40.0973 10.9711L40.4172 11.1782C41.2243 11.5032 41.7748 11.8037 42.0724 12.084C42.3253 12.3155 42.7307 12.9898 43.2812 14.1027C43.7053 15.171 44.1739 15.9346 44.6835 16.3977C45.022 16.678 45.3828 17.3482 45.7659 18.4164L46.5322 19.8746C47.0827 20.4758 49.0131 21.2191 52.3273 22.1005H52.3905L52.3273 22.726C52.2008 23.4694 52.0521 24.0015 51.881 24.3264C51.628 24.696 51.3937 25.2769 51.1817 26.0649C50.8432 27.1778 50.6089 27.8034 50.4824 27.9415L50.3559 28.4289C50.315 28.7538 50.3559 29.2616 50.4824 29.9602C50.6535 30.935 50.6944 31.5606 50.6089 31.8368C50.5233 32.2551 50.6088 32.6938 50.8618 33.1569L51.7545 34.6882C52.0521 35.1512 52.2008 35.6184 52.2008 36.0814C52.1599 36.8694 52.1599 37.3568 52.2008 37.5396C52.2864 38.0961 52.6658 38.6079 53.3465 39.0709C54.109 39.6721 54.5144 40.0661 54.5553 40.2529L54.745 41.2968C54.8306 41.6664 54.9794 41.967 55.1914 42.1986L55.5745 42.686L55.5113 43.3115C55.5113 43.5877 56.0209 43.8192 57.04 44.0061L58.9519 44.4935C59.123 44.5382 59.4615 44.7941 59.9711 45.2571L60.0975 45.3262C60.3505 45.4196 60.5848 45.3709 60.7968 45.1881L61.3696 44.4935H61.4961C61.749 44.4935 61.9834 44.5382 62.1954 44.6316L63.0881 44.9078L63.5345 44.9769L63.9176 44.8388V44.7697H63.9808L64.3007 44.2132L64.6206 43.933L64.8103 43.8639H65L66.9751 44.2823C67.6558 44.4204 68.2063 44.1198 68.6303 43.3805L68.6935 43.1693L69.3928 41.9873C69.6048 41.8939 69.6048 41.7314 69.3928 41.4999C69.2664 41.3618 69.2217 41.244 69.2664 41.1506C69.4375 41.1059 69.5416 40.9191 69.5862 40.5941C69.6718 40.3139 69.6718 40.062 69.5862 39.8305C69.5862 39.599 69.735 39.1806 70.0326 38.5794C70.3711 37.9295 70.6054 37.5843 70.7319 37.5355L71.6878 36.5607C72.3239 35.9595 72.7256 35.6346 72.8967 35.5859L73.2798 35.3787H73.7262C74.1502 35.3787 74.511 35.4478 74.8086 35.5859L75.1917 35.724L75.638 35.5859H75.7013L75.891 35.4478L76.5902 35.2365H76.7799L76.9064 35.3056L77.6057 36.0692L77.8623 36.1383L78.5616 36.0002L79.1345 35.793C79.3465 35.793 79.4729 36.0002 79.5176 36.4185C79.6031 36.8816 79.6254 37.2065 79.5808 37.3934C79.4543 38.0433 79.008 38.7135 78.2417 39.4081C78.0297 39.5949 77.8809 40.452 77.7954 41.9833C77.7954 43.4212 77.7098 44.2092 77.5425 44.3473V44.4163L76.9696 44.8347C76.8841 44.8347 76.6498 44.6722 76.2704 44.3473L75.9505 44.1401H75.824L75.7608 44.2782V44.4163L75.9542 45.1109C75.5302 45.249 75.0615 45.5049 74.5519 45.8745C74.2543 46.0126 74.087 46.1751 74.0423 46.3619H67.6744V46.7113C67.5888 47.1296 67.5888 47.5236 67.6744 47.8933L67.8008 48.2426L68.8832 50.1192C69.3482 50.8625 69.6272 51.4189 69.7127 51.7886L69.6495 51.9957C69.4784 52.2719 68.8237 52.5522 67.6744 52.8284C66.5697 53.1046 65.9113 53.3158 65.6993 53.4539C65.6137 53.6408 65.3385 54.5669 64.8735 56.2363L64.4272 55.7489C64.0887 55.4727 63.5568 54.7781 62.8352 53.6611C62.3256 52.8731 61.9016 52.2963 61.5631 51.9226C61.2655 51.7358 60.9493 51.5977 60.6071 51.5043L60.0975 51.3661L59.2681 50.9478L58.8217 50.8787C58.2266 50.8787 57.4641 51.1793 56.5305 51.7845L54.745 52.9665H54.3619C54.0644 52.9665 53.4915 52.8528 52.6435 52.6172L50.9882 52.1298C50.3931 52.0363 49.5451 51.5042 48.4403 50.5294C48.0163 50.2045 46.0412 49.4408 42.5187 48.2345C41.0755 47.7227 40.1196 47.2149 39.6546 46.7031C39.5282 46.565 39.0595 46.3782 38.2523 46.1467C37.3596 46.0045 36.7459 45.8217 36.4037 45.5902V45.5211L30.6086 41.4877C29.9725 40.8866 29.634 40.3992 29.5894 40.0295C29.634 39.7533 29.6117 39.473 29.5262 39.1968C29.4406 38.9653 29.5485 38.616 29.8461 38.1529L30.4189 37.1781L30.4821 36.8978L30.1659 35.3015C30.0395 34.4201 29.8907 33.7702 29.7196 33.3518L29.5299 32.9335C28.8083 31.126 28.109 29.9196 27.4283 29.3184C26.6658 28.5751 26.1116 27.9252 25.7731 27.3728L25.5834 26.9544C25.5834 26.5807 24.7762 25.5856 23.1657 23.9649L23.1024 23.8959V23.8268C22.8049 23.5019 22.3362 23.1322 21.7001 22.7139L20.4913 21.67C20.2383 21.4831 20.1528 21.1825 20.2383 20.7682L20.4913 19.8624C20.4913 19.7243 20.004 19.1922 19.0257 18.2621C18.3897 17.6122 17.5193 16.8729 16.4146 16.0362L13.4835 13.465L12.7843 12.283L12.5276 11.7266C12.23 11.032 11.9771 10.6136 11.7651 10.4755L11.6386 10.2684L11.1923 9.01731C10.9803 8.22931 10.8315 7.81094 10.7459 7.76626L10.6195 7.6972L10.5562 7.62815C10.3851 7.44131 10.281 7.23415 10.2363 7.00263L10.1099 5.47537C10.1954 5.057 10.1099 4.84985 9.85693 4.84985C9.47382 4.75642 9.22088 4.663 9.09442 4.56958L7.4392 3.45663C6.59113 2.9489 6.10386 2.55084 5.97367 2.27464L5.91044 2.13653H5.84721C5.72074 2.27464 5.63519 2.4168 5.59427 2.5549V2.69301L5.53104 2.83111V3.24948C5.57196 3.3429 5.55336 3.64348 5.46781 4.15527C5.38226 4.61832 5.40457 4.96764 5.53104 5.19917C5.70214 5.52411 5.82861 6.03185 5.91416 6.72642C6.04062 7.32758 6.06294 7.79469 5.97739 8.11964C5.97739 8.35116 6.27496 8.74516 6.8701 9.30163L8.26867 10.6217C8.56623 11.0401 9.03118 11.5722 9.67096 12.2221L10.4372 13.1969L10.6901 13.6844L10.8798 13.9646L11.0695 14.383L13.8704 18.8348C14.339 19.6228 14.804 20.2727 15.2727 20.7804C15.6967 21.3369 15.7823 21.6375 15.5256 21.6822C15.1425 21.7756 14.9528 21.869 14.9528 21.9624C14.9528 22.1939 15.1425 22.5433 15.5256 23.0063L15.9087 23.4937L16.1654 23.9121L16.7382 24.6067C16.9911 25.0251 16.9911 25.3459 16.7382 25.5815C16.4815 25.7196 16.3997 25.8577 16.4815 25.9999L19.0295 28.502C19.539 29.1519 19.8143 29.5703 19.8589 29.753C19.9445 30.2161 19.8366 30.541 19.539 30.7238L18.7765 31.3493L18.5868 31.4184C18.4604 31.4184 18.3302 31.325 18.2037 31.1422L17.9471 30.935L17.6941 30.5857C17.3556 30.0293 17.1622 29.6353 17.1213 29.4037C17.1213 29.1275 16.8647 28.7335 16.3588 28.2217V28.1527L13.4947 25.4394L13.0483 24.8138L12.9851 24.6757L12.7954 24.1193L12.6689 22.8682C12.6689 22.4498 12.5425 21.8934 12.2858 21.1988C11.9027 20.4595 11.6275 20.0168 11.4564 19.8787C10.7757 19.1841 10.1396 18.9038 9.54449 19.046L9.16137 18.9079C8.82289 18.8145 8.07897 18.3068 6.93333 17.3807C6.08526 16.4992 5.87325 16.0606 6.29728 16.0606C6.59485 16.0606 6.76595 15.9224 6.80686 15.6422L7.25322 14.184L7.31645 13.6966V13.6275L7.12675 13.002L7.06352 12.9329C6.93705 12.6527 6.76595 12.4252 6.55393 12.2384C6.42746 12.0556 5.91788 11.5681 5.02518 10.7801L3.81631 9.73625C3.39227 9.17978 3.13562 8.64768 3.05379 8.13588L2.99055 7.64846L2.80086 7.09199L0 1.25105L5.53848 0L15.3433 5.21541H22.6672L23.3033 3.47694H27.0601C27.6961 4.17152 28.2057 4.65894 28.5888 4.93921L28.5665 4.92296Z" fill="#0091DF"/>
<path fill-rule="evenodd" clip-rule="evenodd" d="M157.158 202.532C156.987 202.349 156.563 202.093 155.882 201.768V201.63C156.053 199.774 156.284 198.336 156.582 197.316C156.879 196.342 157.046 194.835 157.091 192.796L157.218 189.664L158.237 188.551C159.003 188.738 159.594 188.994 160.022 189.315C161.506 190.566 163.124 191.658 164.865 192.584C165.628 192.954 166.159 193.441 166.457 194.047C166.84 194.697 167.179 195.16 167.476 195.44C168.328 196.37 169.198 197.178 170.087 197.877H170.154C169.857 198.758 169.496 199.595 169.072 200.379C168.391 201.585 167.584 202.56 166.65 203.304C166.182 203.767 164.482 204.092 161.555 204.278C161.257 204.278 160.896 204.185 160.472 204.002L160.026 203.795L159.133 202.889L158.177 202.82L157.285 202.613L157.158 202.544V202.532Z" fill="#00BCFF"/>
<path fill-rule="evenodd" clip-rule="evenodd" d="M216.798 113.748C216.757 113.423 216.563 113.147 216.225 112.915H216.161L214.759 112.079C213.866 111.66 213.123 111.429 212.531 111.384L210.11 111.035C209.258 110.897 208.581 110.641 208.071 110.271L206.349 108.39C205.542 107.647 204.672 107.233 203.738 107.139L197.876 106.79L196.474 106.096C196.005 105.815 195.432 105.632 194.755 105.539L192.97 105.677H192.713C192.375 105.677 192.14 105.584 192.014 105.397L191.378 104.422C190.995 104.004 190.615 103.727 190.232 103.589L185.772 101.294L184.816 100.669C184.433 100.389 184.095 100.251 183.797 100.251C183.63 100.251 183.436 100.32 183.224 100.462C182.968 100.649 182.503 101.368 181.822 102.619C181.186 103.687 180.762 104.219 180.55 104.219C180.338 104.219 180.509 103.707 181.06 102.688L182.016 101.018C182.016 100.738 181.93 100.437 181.759 100.112L181.566 99.7631C181.394 99.4381 181.119 99.2757 180.736 99.2757L180.29 99.3447H180.1L179.207 99.5519H179.081L178.954 99.6209H178.382L178.129 99.4828L178.002 99.3447L177.556 98.508C177.299 98.2318 177.154 98.0896 177.109 98.0896L176.726 98.2318L175.964 99.2757C175.625 99.6453 175.413 99.8321 175.328 99.8321L175.134 99.625V99.4138C175.134 99.1822 175.346 98.902 175.77 98.5811L176.853 97.6753C177.065 97.5372 177.236 97.2366 177.362 96.7695L177.426 96.2821C177.638 95.5388 177.682 95.0514 177.552 94.8198C177.511 94.5883 177.277 94.1699 176.853 93.5647L176.47 92.9392C176.258 92.663 175.834 91.7816 175.194 90.2949L174.175 87.6507L173.792 87.1632C172.899 89.2064 172.177 90.5264 171.623 91.1276C171.073 91.8222 170.306 92.4274 169.328 92.9392C168.476 93.3576 167.862 93.5891 167.479 93.6338L167.29 93.7028L165.251 93.2154H165.188L165.125 93.1463L164.359 92.9392L162.956 92.8011L162.32 92.8701H162.257L162.131 92.9392H162.004L159.263 93.914C157.987 94.4705 157.076 94.7955 156.525 94.8889C156.228 94.9823 155.889 95.2138 155.506 95.5835C154.996 96.1887 154.487 96.4892 153.977 96.4892C153.341 96.4892 152.746 95.9775 152.192 94.9579C151.638 93.9384 151.344 92.9636 151.299 92.0375V87.6547C151.299 87.0048 151.128 86.3549 150.79 85.7091C150.451 85.0145 150.109 84.6205 149.77 84.5271C149.644 84.5271 149.473 84.7343 149.261 85.1526L149.134 85.4329C148.71 86.3631 148.264 87.0089 147.795 87.3826C146.903 87.9391 144.544 88.2193 140.724 88.2193C140.259 88.2193 139.768 87.9391 139.259 87.3826L138.749 87.0333L138.429 87.1714C138.132 87.4963 138.515 88.6336 139.579 90.5833L140.408 92.1146C140.747 92.9026 140.683 93.6216 140.218 94.2715C139.921 94.6898 139.411 95.1285 138.69 95.5956L138.496 95.7337C137.392 96.6152 136.268 97.0538 135.119 97.0538C134.483 97.0538 133.802 96.6842 133.081 95.9409C132.485 95.3397 132.084 94.6898 131.868 93.9912L131.741 93.8531H131.678L130.086 94.0643L129.96 94.1334L130.086 94.5517L130.213 95.3154C130.213 96.0587 129.662 96.4283 128.558 96.4283L127.155 96.2212L127.029 96.1521C126.731 96.1521 126.222 96.6152 125.5 97.5453L125.117 98.0327C125.076 98.1708 125.266 98.5202 125.69 99.0766C126.326 99.6778 126.709 100.328 126.835 101.026C127.047 102.233 126.538 104.134 125.307 106.729C124.797 107.887 124.414 109.442 124.157 111.392L124.031 112.087L123.138 111.53L122.692 111.599H121.799L120.97 111.737C120.631 111.969 120.207 112.087 119.694 112.087L118.675 112.018L117.975 112.16C117.592 112.205 117.231 112.554 116.893 113.204C116.64 113.716 116.51 114.13 116.51 114.455C116.51 114.735 116.32 115.036 115.937 115.361L113.263 117.306C113.263 117.725 113.475 118.63 113.899 120.02L114.598 122.595C114.81 123.383 116.275 124.077 118.994 124.683H119.314C119.612 124.683 120.144 124.475 120.906 124.057L121.289 123.846C121.844 123.521 122.204 123.358 122.372 123.358H122.562C122.774 123.452 122.9 123.659 122.945 123.984L123.008 125.515C123.008 126.86 123.071 127.696 123.198 128.021C123.198 128.164 123.517 128.233 124.154 128.233L125.556 128.094V128.164L127.531 127.883C128.085 127.883 128.952 127.514 130.142 126.77C130.823 126.307 131.332 126.003 131.671 125.865L132.88 125.239C133.858 124.589 134.706 124.264 135.428 124.264C135.681 124.264 135.915 124.382 136.127 124.613C136.551 125.077 136.636 126.307 136.384 128.302L136.32 129.553C136.406 129.784 136.956 130.385 137.979 131.36L138.809 132.124C139.106 132.449 139.891 132.749 141.167 133.03L142.632 133.379C143.566 133.704 144.608 134.468 145.753 135.674C145.88 135.816 146.412 135.93 147.345 136.023L148.621 136.234C149.131 136.373 149.469 136.58 149.64 136.86C149.979 137.278 150.042 137.762 149.83 138.322C149.789 138.741 149.852 139.086 150.02 139.366C150.358 139.874 150.678 140.503 150.976 141.243C151.444 142.311 151.783 142.961 151.995 143.192C152.162 143.375 152.441 143.473 152.824 143.473L154.61 143.261L154.866 143.33C155.29 143.375 155.566 143.68 155.692 144.236L155.755 146.6C155.755 146.832 155.99 147.063 156.458 147.295L157.414 147.92C157.838 148.383 157.987 149.265 157.861 150.565C157.734 151.771 157.436 152.697 156.968 153.347L156.648 154.042C156.521 154.46 156.585 155.11 156.841 155.991L156.905 156.129L157.477 160.861C157.563 161.231 158.731 161.532 160.981 161.767C161.915 161.861 162.465 161.954 162.636 162.043C162.975 162.275 163.295 162.807 163.592 163.644C163.89 164.338 164.039 164.988 164.039 165.589C164.039 165.959 164.232 166.377 164.612 166.84L165.058 167.397C165.396 167.86 165.567 168.559 165.567 169.485C165.567 170.504 165.396 171.272 165.058 171.78C164.931 171.967 164.931 172.129 165.058 172.267L165.951 172.755L166.144 172.824C166.698 173.104 167.078 173.912 167.29 175.261C167.457 176.093 167.502 176.93 167.416 177.767C167.416 178.092 167.078 178.555 166.397 179.16L161.364 183.267C160.684 183.868 160.111 184.591 159.646 185.423C159.307 186.029 159.01 186.723 158.753 187.511L158.433 188.206C159.326 188.437 159.94 188.693 160.282 188.969C161.513 189.989 163.105 191.057 165.062 192.17C165.783 192.54 166.293 192.958 166.59 193.421C167.186 194.351 167.591 194.908 167.803 195.091C168.696 196.11 169.525 196.923 170.288 197.528L170.481 196.691C170.481 196.553 170.608 196.297 170.864 195.923L171.5 195.091L172.393 194.327C172.691 193.957 172.839 193.421 172.839 192.727C172.798 191.057 173.01 189.92 173.475 189.319C173.773 188.9 174.071 188.669 174.368 188.624H174.431C174.77 188.531 174.922 188.649 174.878 188.973L174.178 190.643C173.966 191.155 173.881 191.455 173.922 191.549H174.048L174.558 191.199C175.153 190.781 175.96 189.924 176.979 188.624C177.191 188.393 177.444 187.812 177.742 186.886L178.062 185.842C178.486 184.497 178.891 183.685 179.274 183.405L180.357 182.986C180.74 182.755 181.015 182.499 181.186 182.223C181.313 181.898 181.357 181.459 181.313 180.899C181.268 180.249 181.29 179.786 181.376 179.505C181.502 179.274 181.439 178.831 181.182 178.181C180.926 177.58 180.862 177.113 180.993 176.788L181.056 175.188C181.015 174.351 181.141 173.701 181.439 173.238C181.863 172.637 182.566 171.824 183.541 170.801L185.326 169.269C185.795 168.989 186.07 168.827 186.155 168.782C186.494 168.644 186.963 168.343 187.558 167.88C187.896 167.555 188.279 167.324 188.703 167.186C188.956 167.092 189.403 166.767 190.042 166.211C190.638 165.654 191.147 165.281 191.571 165.098C192.207 164.818 193.249 164.655 194.696 164.611C196.139 164.566 197.221 164.472 197.943 164.334C198.624 164.196 199.282 163.753 199.918 163.01L200.937 161.548L202.02 159.042C202.656 157.466 203.143 156.491 203.485 156.121C203.909 155.658 204.27 154.895 204.571 153.826C204.869 152.807 205.058 151.808 205.144 150.837C205.144 150.65 205.356 149.63 205.78 147.774C206.119 146.43 206.29 145.642 206.29 145.41C206.29 145.272 206.394 144.971 206.61 144.508C206.822 144.045 206.929 143.395 206.929 142.559L206.736 138.452C206.695 136.734 206.866 135.763 207.246 135.532C207.755 135.207 208.138 134.906 208.395 134.626L209.414 133.164L211.263 129.894C212.241 128.269 213.067 127.181 213.747 126.624C214.64 125.881 215.533 124.837 216.426 123.492C217.404 122.01 217.891 120.848 217.891 120.011C217.891 117.786 217.657 116.161 217.192 115.141C217.024 114.861 216.894 114.398 216.809 113.748H216.798ZM179.65 110.409C179.65 111.197 179.438 111.616 179.014 111.66L178.951 111.729C178.78 111.729 178.694 111.66 178.694 111.522L178.631 111.453V111.315L178.568 111.108L178.631 110.551C178.716 109.857 178.887 109.438 179.14 109.3L179.204 109.231L179.46 109.442L179.523 109.512V109.65L179.65 110.344V110.413V110.409Z" fill="#66B512"/>
<path fill-rule="evenodd" clip-rule="evenodd" d="M125.746 149.931L125.556 151.531C125.511 152.181 125.641 152.807 125.939 153.408C126.11 153.826 126.493 154.476 127.085 155.358C127.297 155.776 127.382 156.052 127.341 156.194C127.129 156.799 127.17 157.425 127.468 158.075C128.104 159.513 128.658 161.601 129.123 164.338C129.164 164.801 129.357 165.22 129.696 165.589L129.439 165.87L130.585 166.008H130.778L131.288 166.077C131.243 166.446 130.8 167.214 129.949 168.372C129.186 169.44 128.42 170.297 127.654 170.947C127.271 171.272 126.973 171.873 126.761 172.754L126.441 175.049C126.4 175.699 126.315 176.3 126.188 176.861L125.169 180.825C124.191 184.814 123.406 187.759 122.811 189.66L122.748 189.94C122.491 190.635 122.472 192.097 122.684 194.323L122.811 196.061C122.811 196.662 122.896 197.455 123.067 198.429C123.365 201.35 123.406 203.023 123.194 203.438C123.026 203.763 122.896 204.551 122.811 205.806C122.77 207.337 122.599 208.263 122.301 208.588L122.238 208.726C121.643 209.514 121.219 210.188 120.962 210.745C120.538 211.626 120.326 212.577 120.326 213.596L120.453 218.19C120.453 218.885 120.43 219.234 120.389 219.234C120.092 219.746 119.88 220.302 119.753 220.904C119.541 221.692 119.433 222.341 119.433 222.853L119.244 224.035C119.158 224.36 119.073 224.917 118.987 225.705C118.946 226.123 118.667 228 118.158 231.338C118.031 232.126 118.284 233.313 118.924 234.889L119.18 235.583C119.307 235.908 119.348 236.095 119.307 236.14L118.351 237.74C118.139 238.248 118.202 238.715 118.544 239.133L120.393 240.803L118.927 241.01C118.756 241.193 118.671 241.379 118.671 241.566C118.671 241.704 118.842 241.96 119.18 242.33L119.943 243.162L119.623 243.581C118.901 244.324 118.626 245.019 118.794 245.669L119.05 248.938C119.091 250.332 118.946 251.302 118.604 251.859C118.18 252.602 117.882 253.504 117.711 254.572C117.499 255.592 117.391 256.449 117.391 257.147C117.391 257.61 116.904 258.634 115.926 260.21L115.033 261.461C114.479 262.298 114.248 263.455 114.33 264.942C114.416 266.287 114.65 267.168 115.033 267.586C115.2 267.911 115.457 268.074 115.796 268.074C116.052 268.074 116.35 267.911 116.688 267.586L117.261 267.099L117.581 266.961V268.143C117.536 270.369 117.73 271.855 118.154 272.595C118.622 273.383 119.813 273.777 121.725 273.777H123.19C123.744 273.777 124.656 273.939 125.931 274.264V274.333C125.719 274.703 125.314 274.983 124.723 275.17L124.023 275.377C123.387 275.609 122.982 275.795 122.811 275.933C122.599 276.165 122.387 276.514 122.175 276.977C122.048 277.396 121.855 277.652 121.602 277.745L120.456 277.883C120.159 277.928 120.01 277.859 120.01 277.676V277.469L120.073 277.4L120.2 276.705L120.136 276.356L119.88 276.218C119.411 276.218 118.689 276.705 117.711 277.68L117.075 278.306L116.439 278.724L116.182 278.793L116.119 278.724L116.246 278.448C116.372 278.306 116.394 278.237 116.309 278.237C116.309 278.192 116.223 278.168 116.052 278.168C115.498 278.212 115.096 278.212 114.843 278.168C114.546 277.981 114.419 277.635 114.46 277.124L114.65 275.942L115.16 274.065V273.854L115.033 273.923L113.887 276.08L113.694 276.149H113.568C113.396 275.966 113.292 275.755 113.248 275.523C112.991 274.873 112.928 274.362 113.054 273.992L113.117 273.574L112.991 273.224C112.865 273.086 112.883 272.968 113.054 272.875C113.14 272.83 113.181 272.643 113.181 272.318V271.969C113.095 271.413 113.158 271.019 113.37 270.787C113.668 270.507 113.754 270.231 113.627 269.95L113.054 269.118C112.63 268.423 112.608 267.936 112.991 267.655C113.077 267.562 112.991 267.192 112.734 266.542C112.608 266.173 112.563 265.893 112.608 265.71C112.608 265.523 112.693 265.409 112.865 265.361C113.077 265.361 113.225 265.198 113.311 264.873C113.311 264.642 113.207 264.223 112.991 263.622L112.671 263.066V262.997L112.481 262.578C112.396 262.208 112.567 261.953 112.991 261.815C113.415 261.676 113.586 261.465 113.501 261.189C113.415 260.957 113.203 260.771 112.865 260.633C112.653 260.584 112.504 260.263 112.418 259.658C112.377 259.195 112.418 258.89 112.545 258.752C113.14 257.964 113.329 257.383 113.117 257.013L112.608 256.039C112.437 255.669 112.545 255.364 112.928 255.137C113.184 255.043 113.608 255.019 114.204 255.068C114.628 255.112 114.903 255.068 115.033 254.93C115.245 254.698 114.628 254.467 113.184 254.235C112.716 254.19 112.396 253.585 112.228 252.428L111.656 250.064C111.57 249.832 111.462 249.714 111.336 249.714C111.038 249.714 110.7 249.995 110.317 250.547L110.186 250.616L110.123 250.547C110.082 250.409 110.123 250.015 110.25 249.365C110.421 248.297 110.633 247.626 110.886 247.346C111.012 247.302 111.075 247.09 111.075 246.721V246.583C111.075 246.213 111.139 245.908 111.269 245.677L111.525 245.47L111.652 245.401H111.715C112.054 245.494 112.31 245.632 112.481 245.819L112.734 246.099C112.946 246.331 113.14 246.449 113.307 246.449L114.006 246.798C114.178 246.981 114.345 247.029 114.516 246.936L114.709 246.725L114.836 246.03L115.093 245.193C115.264 244.588 115.453 244.219 115.665 244.08C115.963 243.894 116.089 243.731 116.049 243.593L115.349 242.829C115.178 242.643 115.16 242.411 115.286 242.135C115.457 241.81 115.669 241.647 115.922 241.647C116.093 241.647 116.261 241.416 116.432 240.953L116.752 240.116L115.859 238.24C115.818 237.915 116.03 237.452 116.495 236.846L116.432 234.759C116.432 234.109 116.495 233.528 116.625 233.02L116.815 231.558L116.752 230.234C116.752 229.771 116.666 229.539 116.495 229.539L116.305 229.677C116.049 229.677 115.922 229.653 115.922 229.608C115.751 229.421 115.669 229.47 115.669 229.746V230.165L115.732 230.372L115.922 230.721C116.008 231.046 115.9 231.416 115.602 231.834L115.029 232.74C115.029 233.016 114.921 233.503 114.709 234.202C114.453 234.945 114.222 235.315 114.006 235.315C113.791 235.315 113.623 234.99 113.497 234.34C113.326 233.784 113.24 233.252 113.24 232.74C113.24 232.37 113.367 231.834 113.623 231.139C113.794 230.534 113.943 230.165 114.07 230.022L114.196 229.117V227.309C114.196 225.359 114.3 223.922 114.516 222.995L115.026 221.326L115.279 219.726C115.323 219.307 115.279 218.869 115.152 218.401C114.981 218.121 114.94 217.727 115.026 217.219C115.193 216.663 115.215 216.269 115.089 216.037L114.39 214.855L114.133 214.161L114.323 213.466L115.215 212.142C115.427 211.724 115.662 211.029 115.915 210.054C116.253 208.71 116.487 207.922 116.618 207.69L118.656 201.638C118.994 200.85 119.337 199.9 119.675 198.787L119.995 196.488C120.081 195.33 120.058 194.469 119.932 193.913C119.805 193.263 119.657 192.288 119.485 190.988C119.359 189.692 119.4 188.787 119.612 188.275L119.932 187.3C119.932 187.162 119.805 186.906 119.549 186.532C119.292 186.207 119.337 185.63 119.675 184.794C119.973 183.961 120.248 183.449 120.505 183.262C120.672 183.124 120.802 182.592 120.888 181.662L120.951 179.505L121.587 174.846V174.777L121.97 171.089C122.182 169.513 122.033 168.282 121.524 167.401C121.397 167.125 121.461 166.8 121.713 166.426L122.543 165.87C122.84 165.776 123.012 165.082 123.053 163.782L123.179 160.788C123.265 160.094 123.242 159.562 123.116 159.188L122.733 158.006C122.476 157.218 122.625 156.174 123.179 154.874C123.35 154.549 123.328 154.017 123.116 153.274L122.606 152.161L122.669 152.092C124.284 150.699 125.24 150.004 125.537 150.004L125.727 149.935L125.746 149.931Z" fill="#00617F"/>
<path fill-rule="evenodd" clip-rule="evenodd" d="M131.035 152.856C130.737 152.856 130.737 153.205 131.035 153.899C131.291 154.407 131.522 154.663 131.734 154.663L131.861 154.594C132.285 154.22 132.352 153.806 132.054 153.343C131.756 153.018 131.418 152.856 131.035 152.856ZM133.52 125.369C134.2 124.906 134.836 124.674 135.431 124.674C135.941 124.674 136.153 125.418 136.067 126.9L135.937 129.683C135.978 129.87 136.32 130.308 136.956 131.007L138.548 132.469C138.846 132.794 139.463 133.074 140.397 133.302L142.499 133.789C143.432 134.208 144.41 134.927 145.43 135.946C145.642 136.226 146.3 136.409 147.405 136.503C148.469 136.596 149.082 136.803 149.253 137.128C149.465 137.408 149.529 137.802 149.447 138.31C149.402 138.822 149.488 139.261 149.7 139.634L150.719 141.722L150.972 142.14C151.184 142.742 151.418 143.184 151.675 143.465L152.121 143.741L152.184 143.81C152.608 143.903 152.969 143.924 153.267 143.879L154.796 143.741C155.134 143.834 155.305 144.184 155.305 144.785L155.368 145.134L155.305 146.596C155.305 146.966 155.54 147.291 156.004 147.571C156.685 147.945 157.046 148.176 157.087 148.266C157.384 148.591 157.511 149.334 157.47 150.492C157.429 151.649 157.172 152.51 156.704 153.067L156.514 153.485C155.112 152.372 154.264 151.791 153.966 151.747L153.583 151.678C152.776 151.678 151.608 152.047 150.079 152.791L149.443 152.933L146.512 152.027H146.192C145.511 152.027 145.002 152.445 144.663 153.278C144.492 153.786 144.407 154.671 144.407 155.922L144.344 161.698L143.451 161.418C142.77 161.235 142.134 161.138 141.539 161.138C140.773 161.138 140.2 161.345 139.817 161.763L139.181 162.876C139.095 163.25 139.013 163.433 138.928 163.433H138.865L137.656 163.156C135.829 162.787 134.661 162.6 134.152 162.6L133.516 162.738C133.304 162.783 132.24 163.571 130.328 165.102L130.071 165.309C129.774 165.126 129.584 164.753 129.499 164.196C129.115 161.645 128.565 159.533 127.843 157.864C127.631 157.259 127.587 156.751 127.717 156.333C127.843 156.008 127.739 155.593 127.397 155.081C126.973 154.476 126.612 153.875 126.315 153.274C126.058 152.673 125.932 152.116 125.932 151.605C126.103 150.91 126.188 150.398 126.188 150.073L125.995 149.655C127.695 147.941 128.416 146.641 128.163 145.76L128.033 145.134L127.907 145.203V145.134C127.736 144.858 127.524 144.602 127.271 144.366L125.679 142.835L125.359 142.279C125.061 141.535 124.998 141.003 125.165 140.678C125.377 140.353 125.571 139.098 125.738 136.921L125.928 134.626C125.928 134.301 125.969 134.094 126.054 134C126.225 133.582 126.14 132.193 125.798 129.825L125.608 128.574L127.52 128.363C128.074 128.318 128.837 128.013 129.815 127.457L133.512 125.369H133.52Z" fill="#00BCFF"/>
<path fill-rule="evenodd" clip-rule="evenodd" d="M94.3968 109.438C94.6534 109.02 95.0775 108.577 95.6726 108.114L96.119 108.464C95.866 108.882 95.6094 109.576 95.3564 110.551L95.0998 111.315L95.7991 111.108L96.8182 110.97C97.1158 110.97 97.3092 111.014 97.3911 111.108C97.6886 111.433 98.135 111.689 98.7301 111.871C99.3662 112.103 99.8981 112.221 100.322 112.221L100.768 112.152C101.025 112.107 101.341 111.571 101.724 110.551C102.36 109.158 102.851 108.394 103.19 108.252L104.529 107.765C105.846 107.44 106.824 107.115 107.46 106.79C108.141 106.42 108.52 106.095 108.606 105.815C108.65 105.628 109.03 105.259 109.751 104.702C110.811 103.634 111.366 102.895 111.407 102.476C111.492 101.826 111.492 101.014 111.407 100.039C111.619 100.039 111.894 100.133 112.236 100.315C112.362 100.409 112.597 100.709 112.935 101.221L114.081 102.684C114.843 103.52 116.015 104.239 117.585 104.84L119.497 105.815C120.133 106.234 120.75 106.441 121.342 106.441C121.68 106.441 122.045 106.347 122.424 106.165L122.55 106.095L122.807 106.026C122.893 106.538 122.766 107.233 122.424 108.114C122.212 108.484 122.338 109.065 122.807 109.853C123.019 110.316 123.105 110.596 123.064 110.685L122.428 111.035L122.617 111.173H122.364C121.643 111.128 121.111 111.173 120.772 111.311C120.601 111.449 120.412 111.522 120.2 111.522L119.88 111.591H118.667L117.838 111.729C117.328 111.867 116.882 112.265 116.499 112.911C116.201 113.512 116.052 114.024 116.052 114.443C116.052 114.768 115.543 115.231 114.524 115.836L112.805 117.018C112.72 117.294 112.891 118.086 113.315 119.382L114.207 122.652C114.419 123.626 116.034 124.459 119.05 125.158H119.497C119.921 125.064 120.322 124.902 120.706 124.67L121.025 124.532L122.428 123.769C122.513 123.862 122.554 124.512 122.554 125.718C122.64 127.111 122.725 127.944 122.811 128.224L123.001 128.432C123.253 128.712 123.808 128.805 124.656 128.712H124.782L125.165 128.643L125.612 131.705C125.738 132.774 125.76 133.468 125.675 133.793L125.481 134.626L125.292 137.132C125.165 139.082 125.017 140.17 124.845 140.402C124.548 140.865 124.592 141.559 124.972 142.49L124.079 143.046C123.484 143.42 123.718 144.045 124.778 144.927L125.545 145.69C125.798 145.971 126.225 146.109 126.821 146.109H126.947C127.33 146.109 127.605 146.04 127.776 145.902C127.944 146.365 127.605 147.128 126.757 148.197C126.077 148.985 125.653 149.427 125.481 149.517C125.057 149.561 124.038 150.305 122.424 151.743L122.361 151.535C122.316 151.21 121.937 150.792 121.215 150.284L119.813 149.171C119.474 148.802 118.812 148.314 117.838 147.709L115.799 146.596C115.461 146.503 114.739 146.109 113.631 145.414C112.653 144.858 111.976 144.37 111.592 143.952C110.276 142.282 109.383 141.308 108.914 141.031C108.531 140.889 108.193 140.337 107.895 139.362L106.939 136.787C106.683 136.137 106.515 135.418 106.43 134.63L106.366 134.281L106.493 132.611C106.493 132.055 106.195 131.385 105.6 130.592L104.198 128.781C101.988 124.561 100.861 122.172 100.821 121.616C100.735 121.197 100.437 120.71 99.9278 120.154L98.6557 118.622C98.3991 118.297 98.2726 117.948 98.2726 117.578V117.091L98.1461 116.603C97.9341 116.14 97.4022 115.608 96.5542 115.003C95.5759 114.309 94.8543 113.935 94.3856 113.89C93.9616 113.845 93.8128 113.703 93.9393 113.472C94.2368 113.147 94.4079 112.915 94.4489 112.777C94.62 112.546 94.6609 112.339 94.5753 112.152C94.5344 112.01 94.3001 111.758 93.876 111.384C93.4929 111.152 93.4111 110.852 93.6194 110.482L94.3856 109.438H94.3968Z" fill="#2B6636"/>
<path fill-rule="evenodd" clip-rule="evenodd" d="M99.6195 96.4932C99.958 96.3064 100.278 95.9814 100.575 95.5184L100.769 95.5875C101.915 95.8677 103.127 96.3754 104.399 97.1188C105.675 97.8133 106.438 98.2805 106.694 98.512C107.118 98.8369 107.799 99.1375 108.733 99.4178C109.413 99.698 110.176 99.8808 111.028 99.9742L111.091 102.338C111.005 102.712 110.537 103.289 109.688 104.077C108.796 104.913 108.309 105.446 108.223 105.677C108.096 105.957 107.33 106.351 105.928 106.859L102.997 107.834C102.573 108.065 102.104 108.74 101.595 109.853L100.639 111.729H100.319C100.081 111.729 99.839 111.705 99.5861 111.66L99.1732 111.522C98.5371 111.335 98.0461 111.104 97.7077 110.828C97.5403 110.547 97.1348 110.458 96.4988 110.547L95.6693 110.685L96.4356 108.74L96.562 108.602C96.7294 108.557 96.562 108.277 96.0524 107.769C96.2235 107.724 96.35 107.489 96.4356 107.074C96.5211 106.705 96.3946 106.38 96.0524 106.1C95.7549 105.819 95.6061 105.242 95.6061 104.361V102.342C95.6061 101.924 95.7549 101.53 96.0524 101.16C96.3091 100.791 96.6253 100.486 97.0084 100.255C97.3059 100.023 97.4733 99.8361 97.518 99.698L97.7077 98.5851C97.9197 97.8418 98.5594 97.1472 99.6195 96.4973V96.4932Z" fill="#66B512"/>
<path fill-rule="evenodd" clip-rule="evenodd" d="M126.575 176.999L126.958 174.006C127.17 172.661 127.512 171.755 127.977 171.292C128.744 170.598 129.569 169.623 130.462 168.368C131.44 166.93 131.801 166.073 131.544 165.792L131.161 165.581L130.588 165.512C131.693 164.631 132.627 163.912 133.393 163.355L133.776 163.075L134.159 163.006C134.669 163.006 135.346 163.099 136.198 163.286L138.872 163.912H138.935C139.233 163.912 139.445 163.725 139.571 163.355V163.286C139.783 162.681 139.954 162.287 140.081 162.104C140.635 161.503 141.717 161.41 143.332 161.824L144.351 162.173L144.288 162.454V162.734L144.481 162.872C145.203 163.339 145.776 163.867 146.2 164.472C146.538 164.891 146.836 165.098 147.092 165.098L147.602 164.96C147.687 164.866 147.877 164.777 148.175 164.684C148.387 164.684 148.811 165.216 149.451 166.284C150.213 167.49 150.916 168.372 151.552 168.928C152.188 169.436 153.125 170.11 154.357 170.947C155.376 171.597 156.012 172.06 156.269 172.34C156.354 172.572 156.079 173.408 155.439 174.846C154.844 176.097 154.528 176.958 154.483 177.422C154.442 177.791 154.528 178.096 154.74 178.327C155.123 178.835 156.079 179.091 157.608 179.091L159.073 179.022C159.456 179.022 159.795 178.928 160.092 178.742L160.412 178.604C160.539 178.604 160.687 178.742 160.859 179.022C161.115 179.392 161.413 179.578 161.751 179.578C162.134 179.578 162.495 179.184 162.834 178.396L163.154 177.145C163.194 176.776 163.853 175.313 165.129 172.763L165.954 173.25C166.423 173.482 166.743 174.18 166.91 175.338C167.081 176.126 167.122 176.918 167.037 177.706C166.951 178.075 166.103 178.912 164.489 180.212L161.111 182.925C160.39 183.575 159.795 184.319 159.326 185.151C158.902 185.939 158.582 186.683 158.37 187.377C158.24 187.796 157.946 188.259 157.477 188.77C157.139 189.095 156.923 189.372 156.841 189.603L156.778 189.672V189.741C156.778 193.36 156.566 195.842 156.142 197.187C155.93 198.117 155.718 199.599 155.506 201.638L154.803 201.431H154.74C154.528 201.525 154.505 201.732 154.677 202.057C154.933 202.52 155.168 202.82 155.376 202.962L158.623 205.952C158.921 206.232 158.962 206.626 158.753 207.134L158.18 208.178C158.054 208.503 158.095 208.803 158.307 209.08C158.519 209.311 158.776 209.449 159.073 209.498C159.624 209.64 159.943 210.172 160.029 211.098C160.07 211.517 159.899 212.118 159.519 212.906L158.374 215.201C158.076 215.895 157.12 216.639 155.506 217.427L153.594 218.19L150.023 218.885C149.175 219.072 148.431 219.165 147.795 219.165L146.393 219.234L145.5 219.722C145.244 219.953 145.14 220.465 145.18 221.253C145.266 222.459 145.288 223.109 145.244 223.203C145.203 223.39 145.203 223.922 145.244 224.803C145.329 225.595 145.244 226.127 144.991 226.403C144.738 226.773 144.373 227.029 143.908 227.167L142.316 227.309C141.851 227.403 141.383 227.354 140.914 227.167L140.404 227.029L138.623 226.192L138.113 226.054C137.559 226.054 137.369 226.635 137.54 227.793C137.626 228.349 137.901 229.019 138.37 229.811C138.794 230.555 139.132 231.018 139.389 231.204C139.601 231.436 139.538 231.712 139.199 232.037L138.374 233.012L138.31 233.223L138.563 233.43L139.393 233.711L139.519 233.849C139.519 234.08 139.285 234.405 138.82 234.824L137.801 236.079L137.674 236.148C137.418 236.566 137.291 237.793 137.291 239.836L136.971 240.392L136.398 241.087L136.015 241.851C135.889 242.131 135.74 242.269 135.569 242.269C135.312 242.269 134.784 242.452 133.977 242.825C132.999 243.337 132.404 243.8 132.192 244.219L130.726 246.725C130.555 247.05 130.789 247.651 131.425 248.536C132.061 249.369 132.571 249.93 132.954 250.206L135.312 251.53C135.569 251.762 135.695 252.225 135.695 252.919L135.632 253.687C135.506 254.849 135.312 255.519 135.059 255.706L134.23 256.4C133.72 256.819 133.296 257.074 132.954 257.164C132.526 257.302 132.039 257.838 131.489 258.764L130.916 259.877V260.015C130.789 260.434 130.789 260.779 130.916 261.059C131.042 261.522 131.042 262.058 130.916 262.659L130.789 263.216C130.577 263.866 130.28 264.398 129.897 264.816C129.811 264.861 129.662 265.141 129.45 265.653C129.324 265.933 129.089 266.14 128.751 266.279C128.58 266.417 128.346 266.441 128.048 266.348L127.921 266.14L127.538 265.86L127.345 265.929C127.133 266.112 127.111 266.299 127.282 266.486C127.538 266.811 127.706 267.136 127.791 267.461C127.918 267.785 127.769 267.972 127.345 268.017C126.835 268.062 126.56 268.155 126.519 268.293C126.393 268.48 126.497 268.919 126.839 269.617C127.178 270.454 127.349 270.986 127.349 271.218C127.349 271.961 127.605 272.887 128.115 274L128.241 274.488V274.626L128.115 274.695L127.921 274.557V274.488L127.475 274.28L127.155 274.073H127.029L126.519 273.862H126.326C125.05 273.492 124.012 273.306 123.205 273.306H121.74C121.144 273.306 120.739 273.281 120.531 273.237C119.764 273.143 119.236 273.005 118.939 272.818H118.875L118.492 272.4C118.325 272.075 118.195 271.518 118.109 270.73L118.046 269.963V267.387L117.983 267.038V266.969C117.983 266.754 117.96 266.603 117.919 266.518V266.413H117.793L117.157 266.689L116.138 267.452C116.03 267.53 115.903 267.578 115.755 267.591C115.61 267.57 115.461 267.481 115.308 267.314C115.011 266.941 114.843 266.384 114.799 265.645L114.736 264.881C114.691 263.63 114.925 262.562 115.435 261.681L117.09 259.243C117.388 258.78 117.622 258.244 117.789 257.643L117.853 257.156C117.853 256.274 117.938 255.442 118.109 254.649C118.28 253.675 118.578 252.842 119.002 252.143C119.385 251.538 119.575 250.45 119.575 248.874L119.192 245.535C119.106 244.978 119.34 244.446 119.891 243.934C120.315 243.471 120.441 243.077 120.274 242.752L119.318 241.847C119.106 241.615 119.061 241.477 119.192 241.428C119.359 241.335 119.764 241.29 120.4 241.29C120.996 241.197 121.122 240.941 120.784 240.526C120.739 240.433 120.252 240.015 119.318 239.271C118.768 238.853 118.596 238.39 118.808 237.878L119.575 236.696C119.787 236.278 119.809 235.839 119.638 235.376L119.318 234.612C118.98 233.869 118.808 233.43 118.808 233.288C118.596 232.407 118.511 231.781 118.556 231.408C119.065 228.719 119.363 226.814 119.448 225.701C119.448 225.144 119.534 224.612 119.705 224.1L119.831 222.849C119.831 222.386 119.939 221.761 120.151 220.969C120.449 220.132 120.661 219.669 120.787 219.575C120.873 219.482 120.914 219.019 120.914 218.182L120.787 213.588C120.787 212.658 120.977 211.732 121.36 210.806L122.636 208.86C122.974 208.442 123.168 207.56 123.209 206.216C123.335 204.872 123.465 204.014 123.592 203.641C123.804 203.129 123.826 201.923 123.655 200.022L123.019 193.064C122.893 191.671 122.956 190.675 123.209 190.074L126.586 176.991L126.575 176.999Z" fill="#0091DF"/>
<path fill-rule="evenodd" clip-rule="evenodd" d="M156.265 153.899C156.094 154.362 156.179 155.15 156.522 156.263C156.734 157.051 156.923 158.607 157.094 160.926C157.18 161.483 158.028 161.877 159.642 162.108L162.443 162.389C162.741 162.62 162.997 163.083 163.21 163.778C163.462 164.472 163.593 165.077 163.593 165.585C163.593 166.048 163.719 166.446 163.976 166.771L164.742 167.604C164.954 167.929 165.103 168.554 165.188 169.48C165.188 170.362 165.04 171.036 164.742 171.499C164.485 172.011 164.485 172.356 164.742 172.543C163.511 175.049 162.852 176.581 162.767 177.137C162.64 177.742 162.447 178.25 162.194 178.668C161.896 179.176 161.558 179.201 161.175 178.737L160.922 178.388C160.751 178.205 160.583 178.108 160.412 178.108L160.219 178.177H160.156L159.073 178.595H157.608C156.079 178.595 155.209 178.295 154.997 177.69L154.933 177.409C154.974 177.084 155.357 176.085 156.079 174.42C156.674 173.075 156.845 172.263 156.589 171.983L151.809 168.571L151.363 168.152L148.815 164.602C148.558 164.326 148.346 164.184 148.179 164.184L147.476 164.464L147.223 164.602C147.052 164.647 146.84 164.509 146.587 164.184C145.906 163.441 145.27 162.86 144.675 162.445L144.864 155.069C144.905 154.188 145.036 153.538 145.248 153.119C145.545 152.656 145.951 152.449 146.456 152.494L146.776 152.563L148.368 153.119H148.498L149.454 153.327H149.707L150.217 153.188C151.746 152.494 152.873 152.145 153.594 152.145H153.847C154.018 152.189 154.826 152.77 156.269 153.883L156.265 153.899Z" fill="#89D329"/>
<path fill-rule="evenodd" clip-rule="evenodd" d="M105.292 82.7155C105.121 82.2037 105.035 81.6959 105.035 81.1841C105.035 80.0224 104.864 79.2588 104.526 78.8851C105.206 77.3091 105.567 75.6153 105.608 73.8078L105.735 73.9459L105.991 74.084C106.162 74.1287 106.374 74.1287 106.627 74.084H106.754L107.453 73.8038L108.346 72.6908C108.855 71.9962 109.194 71.6469 109.365 71.6469C109.621 71.6469 109.703 71.5088 109.621 71.2285L109.495 70.3227C109.495 70.0912 109.621 69.7906 109.878 69.421C110.09 69.0026 110.176 68.7468 110.135 68.6574C110.094 68.1943 110.518 67.8694 111.411 67.6825C111.749 67.6379 112.11 67.382 112.493 66.9189L113.575 65.875L113.959 65.7369L114.215 65.806L114.278 65.875L114.725 66.0131L115.361 66.3624H115.424L116.38 65.806L118.675 63.7182C119.14 63.2998 119.59 63.0927 120.014 63.0927C120.353 63.0927 120.758 63.2551 121.227 63.5801H121.29C121.628 63.8604 121.799 64.1609 121.799 64.4859L121.736 64.7621C121.524 65.1805 121.182 65.481 120.717 65.6679L120.334 65.875L120.144 65.806L119.441 65.7369C118.634 65.7369 117.912 66.1797 117.276 67.0611C116.808 67.711 116.469 68.499 116.257 69.4251L116.068 70.3268C115.896 71.0214 115.811 71.6022 115.811 72.0653C115.811 72.6705 116.004 73.0645 116.384 73.2473C116.722 73.4788 116.893 74.4983 116.893 76.3099C116.893 77.0045 117.232 77.6991 117.912 78.3977C118.634 79.1857 119.356 79.5797 120.077 79.5797C120.46 79.5797 121.692 79.8356 123.775 80.3433L127.788 81.5253L128.551 81.6634C129.06 81.6634 129.57 81.5497 130.079 81.3141L130.336 81.2451L130.462 81.176V81.2451C130.25 81.8015 129.867 82.5205 129.317 83.4019L128.87 84.2346C128.658 84.6083 128.573 85.047 128.614 85.5587L129.443 87.9268C129.611 88.3899 129.741 88.926 129.826 89.5272C130.165 90.7335 130.548 91.5662 130.972 92.0333C131.27 92.4964 131.437 92.9635 131.482 93.4265L129.763 93.7068C129.506 93.7515 129.425 93.9383 129.506 94.2633L129.57 94.6817L129.826 95.3072L129.7 95.5875C129.614 95.7256 129.339 95.819 128.87 95.8677L128.108 95.9368H127.981C127.684 95.8921 127.45 95.823 127.282 95.7296H126.899C126.516 95.823 126.2 96.0099 125.943 96.2861L124.667 98.0246V98.2358C124.753 98.6054 124.943 98.9304 125.24 99.2066C126.003 100.088 126.408 100.714 126.449 101.087C126.62 102.155 126.129 103.987 124.983 106.583C124.388 107.834 123.964 109.414 123.708 111.315L123.261 111.035L123.451 110.828C123.492 110.596 123.388 110.153 123.131 109.503C122.874 109.085 122.748 108.76 122.748 108.528L122.811 108.321C123.023 107.854 123.15 107.302 123.194 106.652V106.234C123.194 105.815 123.109 105.584 122.938 105.539H122.874L121.662 105.888C121.45 105.982 121.238 105.982 121.026 105.888H120.706L120.323 105.746L116.882 104.077C115.863 103.614 115.037 103.033 114.397 102.338L112.869 100.393C112.445 99.8808 111.935 99.5803 111.34 99.4868C110.492 99.3934 109.685 99.2309 108.918 98.9994C108.026 98.7191 107.367 98.4186 106.943 98.0936C106.605 97.8133 105.839 97.3747 104.648 96.7735C103.075 95.9368 101.825 95.4047 100.888 95.1731L101.587 94.2674C101.844 93.9424 101.993 93.4103 102.034 92.667L102.097 91.554C102.182 91.3713 102.394 91.2535 102.733 91.2047C103.071 91.0666 103.413 90.9976 103.752 90.9976C104.009 90.9976 104.262 90.766 104.518 90.303L105.344 89.0519C105.601 88.7717 105.619 88.4508 105.407 88.0771L105.217 87.6587L105.028 86.8951C104.987 86.6636 105.028 86.2696 105.154 85.7131C105.24 85.3394 105.195 85.0632 105.028 84.8764C104.857 84.6895 104.816 84.4133 104.901 84.0437C104.901 83.7187 105.005 83.4872 105.221 83.3491C105.307 83.2557 105.329 83.0485 105.284 82.7236L105.292 82.7155Z" fill="#89D329"/>
<path fill-rule="evenodd" clip-rule="evenodd" d="M172.386 85.8472L173.468 86.8221L172.449 88.9099C171.98 89.9781 171.597 90.628 171.303 90.8555C170.794 91.4607 170.072 92.0375 169.139 92.5939C168.503 92.9676 167.93 93.1748 167.42 93.2195L165.508 92.8011C166.739 90.9936 167.357 89.6694 167.357 88.8367C167.357 88.2315 167.018 87.3501 166.338 86.1925C165.783 85.4045 165.553 84.8927 165.635 84.6612L166.591 82.3662L172.39 85.8432L172.386 85.8472Z" fill="#9AC945"/>
<path fill-rule="evenodd" clip-rule="evenodd" d="M121.476 69.8437C121.435 69.5188 121.305 69.3563 121.093 69.3563C120.836 69.3563 120.371 69.6569 119.69 70.258C119.307 70.583 119.162 70.9323 119.244 71.3019C119.329 71.9518 119.348 72.3214 119.307 72.4149V72.7642L119.434 72.8332C119.646 72.9713 119.984 73.0404 120.453 73.0404L121.855 72.9713C122.491 72.9713 122.662 72.5327 122.365 71.6472L121.472 69.8396L121.476 69.8437ZM139.572 69.2872L141.61 68.7308H141.736L142.119 68.6617H142.372C143.008 68.7551 143.499 68.9176 143.838 69.1491L145.114 69.9128L145.623 70.0509H145.943L146.39 69.9128L146.899 69.6325L146.962 69.5634L147.219 69.3563L147.855 68.6617C148 68.5033 148.227 68.4586 148.42 68.4383C148.83 68.3896 149.224 68.3774 149.633 68.4302C149.797 68.4505 150.258 68.5074 150.001 68.7795C149.83 68.9582 149.414 68.9176 149.209 68.9379C148.796 68.9745 148.268 69.2629 148.03 69.6487C147.777 70.0631 147.807 70.5748 147.918 71.0298L147.982 71.31L148.428 72.7723L148.554 73.8162C148.554 74.0477 148.703 74.1655 149.001 74.1655L150.656 74.6529L148.744 75.8349C148.361 76.2046 148.171 76.5295 148.171 76.8098C148.212 77.09 148.491 77.3216 149.001 77.5044L150.02 78.203L150.15 78.4101C150.065 78.5929 149.789 78.8488 149.321 79.1738C148.301 80.0552 147.684 80.6563 147.472 80.9854C147.089 81.4484 146.944 81.9602 147.026 82.5167C147.152 83.0731 147.621 83.5849 148.428 84.048L148.685 84.1861L148.495 84.7426L148.878 84.9497L148.368 86.0627C148.112 86.481 147.836 86.7816 147.543 86.9644C146.821 87.4762 144.995 87.7524 142.064 87.8011H140.725L140.341 87.7321L139.386 86.9685C139.002 86.5501 138.623 86.5054 138.24 86.8304H138.177C137.879 87.1106 137.857 87.6671 138.113 88.4998L138.497 89.4056L140.025 92.3301C140.282 92.9313 140.215 93.5121 139.832 94.0686C139.579 94.4382 139.069 94.8566 138.303 95.3196L137.537 95.8761C136.942 96.2457 136.414 96.4569 135.945 96.5016L135.115 96.5707C134.863 96.5707 134.457 96.3838 133.903 96.0142L133.393 95.5958C132.798 94.9906 132.396 94.4138 132.181 93.8574C132.181 93.6258 132.077 93.508 131.861 93.508C131.861 92.8581 131.671 92.2814 131.288 91.7696C130.864 91.3065 130.585 90.7013 130.459 89.962L129.119 85.8555C129.034 85.6687 128.993 85.4168 128.993 85.0919C128.993 84.9538 129.079 84.7426 129.25 84.4664L130.905 81.2656C131.031 80.896 130.99 80.7092 130.778 80.7092L129.503 81.0585H129.439L128.993 81.1966H128.42L127.911 81.1275L123.96 80.0146C122.004 79.4134 120.709 79.1128 120.073 79.1128C119.523 79.1128 118.905 78.7879 118.228 78.138C117.592 77.5328 117.273 76.9316 117.273 76.3305C117.273 74.2874 117.016 73.1297 116.506 72.8495C116.209 72.7114 116.123 72.2686 116.253 71.5253L116.636 69.5756C116.849 68.7389 117.146 68.0443 117.525 67.4878C117.782 67.0695 118.057 66.7689 118.355 66.5861L118.548 66.448L118.801 66.3099L119.248 66.2409L119.374 66.1718L120.01 66.2409C119.713 66.5658 119.564 67.0288 119.564 67.6341C119.564 67.8656 119.649 67.9834 119.82 67.9834L121.732 67.4269C122.115 67.4269 122.711 67.2888 123.514 67.0085L125.616 66.0337L126.125 65.9646L127.271 66.1718C128.164 66.4033 128.822 66.6592 129.246 66.9395C129.584 67.2157 129.715 67.5406 129.629 67.9103C129.544 68.3733 129.588 68.6983 129.756 68.8851C129.841 68.9785 129.968 69.0273 130.139 69.0273C130.436 69.0273 130.905 68.8648 131.541 68.5399C132.222 68.1702 132.69 67.9834 132.943 67.9834C133.241 67.9834 133.899 68.2596 134.918 68.8201C135.937 69.3766 136.808 69.6772 137.529 69.7259H137.723C138.188 69.7259 138.805 69.5837 139.572 69.3075V69.2872Z" fill="#0091DF"/>
<path fill-rule="evenodd" clip-rule="evenodd" d="M164.612 81.7445C164.995 81.7445 165.527 81.8867 166.204 82.1629C165.649 83.418 165.333 84.2263 165.248 84.6C165.162 85.0184 165.397 85.6439 165.947 86.4806C166.583 87.5489 166.903 88.3369 166.903 88.8487C166.903 89.5433 166.267 90.8187 164.991 92.675L163.782 92.3947H163.399L162.953 92.3257L162.759 92.3947L162.439 92.4638L162.187 92.1835C160.401 90.6075 159.129 89.3321 158.363 88.3572C157.853 87.6626 157.619 87.2199 157.66 87.0331L158.426 85.6398C159.021 84.6203 159.319 83.8323 159.319 83.2758V81.5374L160.018 81.8867L161.231 82.0248L164.608 81.7445H164.612Z" fill="#2B6636"/>
<path fill-rule="evenodd" clip-rule="evenodd" d="M157.285 87.1713C157.326 87.5897 157.687 88.2396 158.367 89.121L161.871 92.5289C161.235 92.667 160.257 93.0407 158.94 93.6418C157.921 94.0602 157.095 94.3161 156.455 94.4095C156.117 94.4542 155.689 94.7588 155.18 95.3153C154.923 95.5956 154.625 95.8271 154.287 96.0099H153.967L153.647 95.9408C153.264 95.7093 152.881 95.2666 152.502 94.6207C152.163 93.9262 151.929 93.2966 151.802 92.7442L151.676 92.0496C151.631 91.4484 151.631 90.6808 151.676 89.7547V87.6669C151.676 87.017 151.505 86.2736 151.166 85.441C150.783 84.653 150.337 84.1859 149.827 84.0478C149.489 83.9056 149.169 84.2102 148.871 84.9495L149.128 84.0478L147.982 83.211C147.302 82.6545 147.238 82.0046 147.793 81.2613C148.045 80.8917 148.748 80.2418 149.894 79.3116C150.53 78.8486 150.679 78.3815 150.34 77.9184C150.043 77.5935 149.556 77.2929 148.875 77.0126C148.536 76.7811 148.577 76.5008 149.001 76.1759L151.103 74.8517L151.423 74.9208L151.676 75.0589C152.185 75.2904 152.587 75.5707 152.885 75.8916L154.797 78.6049C154.923 78.8364 155.157 78.9542 155.5 78.9542C155.838 79.0476 156.325 79.3482 156.965 79.86L158.877 81.3223V83.2719C158.877 83.7797 158.687 84.3361 158.304 84.9414L157.285 86.822V87.1713Z" fill="#00BCFF"/>
<path fill-rule="evenodd" clip-rule="evenodd" d="M129.949 288.464L130.715 288.326C131.31 288.326 131.693 288.395 131.861 288.533C132.032 288.671 132.117 288.789 132.117 288.883L132.054 289.021L131.861 289.301L131.671 289.37H131.541L131.221 289.301L130.585 289.09L130.138 288.883C129.882 288.745 129.778 288.627 129.819 288.533L129.945 288.464H129.949Z" fill="#27AFE5"/>
<path fill-rule="evenodd" clip-rule="evenodd" d="M126.192 289.996H126.066L124.92 289.301C124.582 289.07 124.515 288.883 124.73 288.745L126.516 288.607C127.364 288.607 127.702 288.652 127.535 288.745L127.152 289.163L126.962 289.444C126.624 289.813 126.367 290 126.2 290L126.192 289.996Z" fill="#002776"/>
<path fill-rule="evenodd" clip-rule="evenodd" d="M111.6 277.404H111.726C112.024 277.449 112.556 277.729 113.318 278.237L116.886 280.95C117.778 281.645 118.225 282.039 118.225 282.132L117.841 282.969L117.395 283.456L117.138 283.594H117.012C116.376 283.412 115.673 282.9 114.907 282.063L114.334 281.088C114.248 280.808 114.248 280.625 114.334 280.532C114.419 280.438 114.356 280.276 114.144 280.044L114.018 279.975C113.891 279.695 113.765 279.581 113.635 279.626C113.423 279.626 113.211 279.533 112.999 279.346C112.701 279.159 112.511 278.952 112.426 278.72L111.533 277.538L111.596 277.4L111.6 277.404Z" fill="#002776"/>
<path fill-rule="evenodd" clip-rule="evenodd" d="M121.539 280.881C121.412 281.949 121.219 282.501 120.966 282.55H120.903C120.308 282.319 119.776 282.018 119.311 281.648C118.76 281.23 118.481 280.836 118.481 280.466C118.481 280.142 118.589 279.91 118.801 279.772L119.631 279.496C120.14 279.171 120.564 279.008 120.906 279.008C121.118 278.964 121.29 278.964 121.416 279.008C121.543 279.146 121.606 279.54 121.606 280.19L121.543 280.885L121.539 280.881Z" fill="#002776"/>
<path fill-rule="evenodd" clip-rule="evenodd" d="M127.274 275.735C127.274 275.592 127.337 275.527 127.468 275.527V287.425H127.404C126.724 287.425 126.259 287.4 126.002 287.356C125.366 287.307 124.875 287.169 124.537 286.937C124.325 286.75 123.941 286.706 123.391 286.799C122.796 286.893 122.394 286.893 122.182 286.799C121.884 286.661 121.78 286.336 121.862 285.824C121.862 285.455 121.966 285.15 122.182 284.918C122.353 284.736 122.863 284.825 123.711 285.199L124.031 285.268L124.22 285.061V284.849L124.284 284.642L124.347 284.573H124.603L126.322 284.923C126.534 284.967 126.426 284.76 126.002 284.297C125.704 283.972 125.258 283.578 124.663 283.115C124.239 282.835 124.027 282.559 124.027 282.282C124.113 281.957 124.239 281.771 124.41 281.726C125.474 281.076 126.11 280.613 126.322 280.337C126.62 280.056 126.66 279.805 126.448 279.573L125.749 278.879L124.987 278.46C124.73 278.415 124.54 278.273 124.414 278.042C124.243 277.855 124.202 277.648 124.287 277.416C124.373 277.185 124.477 277.067 124.607 277.067C124.819 277.067 125.199 276.693 125.753 275.954L125.879 275.816H125.943L126.069 276.096L126.195 276.515L126.385 276.726L126.579 276.864C126.791 276.864 126.962 276.653 127.088 276.238L127.278 275.751L127.274 275.735Z" fill="#002776"/>
<path fill-rule="evenodd" clip-rule="evenodd" d="M132.37 284.013C132.497 284.337 133.114 284.825 134.219 285.475L136.577 286.726L136.897 287.006V287.075L136.834 287.144H136.771L136.451 287.282H136.388L135.878 287.351H135.625C135.54 287.351 135.283 287.445 134.863 287.628L134.033 288.046H133.713L131.675 287.282L130.782 287.144L128.297 287.351L127.914 287.42V275.661L128.807 276.912C129.105 277.469 129.209 277.887 129.127 278.163C129.086 278.257 128.915 278.513 128.617 278.927C128.491 279.207 128.576 279.484 128.874 279.76L129.573 280.527C129.659 280.759 130.105 281.315 130.912 282.197C131.507 282.847 131.995 283.452 132.378 284.008L132.37 284.013Z" fill="#27AFE5"/>
</g>
</svg>
