<svg width="73" height="73" viewBox="0 0 73 73" fill="none" xmlns="http://www.w3.org/2000/svg">
<path d="M36.4059 6.08337C19.6159 6.08337 5.98926 19.71 5.98926 36.5C5.98926 53.29 19.6159 66.9167 36.4059 66.9167C53.1959 66.9167 66.8226 53.29 66.8226 36.5C66.8226 19.71 53.2263 6.08337 36.4059 6.08337ZM45.5309 43.283L36.7101 48.3625C35.6482 48.9814 34.4412 49.3074 33.2122 49.3074C31.9832 49.3074 30.7761 48.9814 29.7143 48.3625C28.644 47.75 27.7559 46.8638 27.1412 45.7947C26.5265 44.7257 26.2073 43.5123 26.2163 42.2792V32.0896C26.2163 29.565 27.5243 27.2838 29.7143 26.0063C31.9043 24.7288 34.5201 24.7288 36.7405 26.0063L45.5613 31.0859C47.7513 32.3634 49.0593 34.6142 49.0593 37.1692C49.0593 39.7242 47.7513 42.0055 45.5309 43.283Z" fill="white"/>
</svg>
