<svg width="141" height="102" viewBox="0 0 141 102" fill="none" xmlns="http://www.w3.org/2000/svg">
<path d="M140.513 38.6599L140.508 82.5782C140.508 83.0712 140.12 83.4704 139.64 83.4704H136.171C136.171 88.4402 134.175 93.3049 130.695 96.8151C127.295 100.244 122.87 102.093 118.211 101.996C109.668 101.831 102.552 95.2897 101.167 86.877C101.095 86.4428 100.742 86.1178 100.313 86.1178H40.202C39.7727 86.1178 39.4183 86.4428 39.3475 86.8784C37.956 95.4466 30.6905 101.999 21.964 101.999C12.2468 101.999 4.34075 93.8736 4.34075 83.8864H7.8406C8.30943 83.8864 8.67877 84.2702 8.70739 84.7507C9.15577 92.1017 15.2914 97.8937 22.6332 97.5211C29.7678 97.1583 35.2466 90.8326 35.2466 83.49V82.5488C35.2466 82.0557 35.635 81.6565 36.1147 81.6565H104.397C104.877 81.6565 105.265 82.0557 105.265 82.5488V83.8878C105.265 91.2753 111.109 97.3978 118.293 97.5365C121.77 97.5953 125.091 96.217 127.655 93.6313C130.105 91.159 131.592 87.8099 131.803 84.3333C131.832 83.8528 132.201 83.4718 132.669 83.4718H136.166V41.3003C136.166 40.8072 135.777 40.408 135.298 40.408H68.423C64.9218 40.408 62.0829 37.4903 62.0829 33.8919V4.4613H5.21026C4.73053 4.4613 4.34211 4.86051 4.34211 5.35356V83.8822H0.868149C0.388418 83.8822 0 83.483 0 82.99V0.89226C0 0.399206 0.388418 0 0.868149 0H102.403C106.538 0 110.425 1.65425 113.349 4.6588L113.524 4.86331L140.139 37.552C140.381 37.8671 140.513 38.2579 140.513 38.6599Z" fill="url(#paint0_linear_591_28935)"/>
<path d="M68.5717 23.5475L73.2 14.7145H76.8225V23.5475H78.1513V26.2355H76.8225V29.0705H73.6824V26.2355H68.5703V23.5475H68.5717ZM73.6838 18.6449H73.6443L71.2497 23.5475H73.6852V18.6449H73.6838Z" fill="white"/>
<path d="M82.4984 23.2562L78.8555 14.3H82.5993L84.2088 19.781H84.2483L85.8988 14.3H89.5213L85.8783 23.2562V29.0692H82.4971V23.2562H82.4984Z" fill="white"/>
<path d="M99.8665 21.6846C99.8665 22.7057 99.8269 23.6806 99.7465 24.6121C99.6661 25.5435 99.4617 26.3602 99.1332 27.0633C98.8048 27.7651 98.3005 28.3254 97.6232 28.7386C96.9458 29.1532 96.0095 29.3591 94.8157 29.3591C93.7022 29.3591 92.8122 29.1798 92.1485 28.8212C91.4834 28.4626 90.9737 27.95 90.618 27.2804C90.2623 26.6123 90.0306 25.8055 89.9243 24.86C89.8166 23.9159 89.7635 22.857 89.7635 21.6846C89.7635 20.5121 89.8166 19.4546 89.9243 18.5091C90.032 17.565 90.2623 16.7582 90.618 16.0887C90.9737 15.4205 91.4834 14.9065 92.1485 14.5479C92.8122 14.1893 93.7008 14.01 94.8157 14.01C96.0095 14.01 96.9458 14.2173 97.6232 14.6305C98.3005 15.0451 98.8048 15.6026 99.1332 16.3058C99.4617 17.0089 99.6661 17.827 99.7465 18.757C99.8269 19.6871 99.8665 20.6634 99.8665 21.6832V21.6846ZM93.2647 21.6846C93.2647 22.7057 93.2811 23.5573 93.3151 24.2395C93.3492 24.923 93.4187 25.4707 93.5264 25.8839C93.634 26.2985 93.788 26.5941 93.9898 26.7734C94.1901 26.9527 94.4586 27.0423 94.7952 27.0423C95.1318 27.0423 95.4017 26.9527 95.6102 26.7734C95.8187 26.5941 95.9795 26.2971 96.094 25.8839C96.2071 25.4707 96.2821 24.923 96.3162 24.2395C96.3489 23.5573 96.3666 22.7057 96.3666 21.6846C96.3666 20.6634 96.3502 19.83 96.3162 19.1408C96.2821 18.4517 96.2085 17.8998 96.094 17.4866C95.9795 17.0734 95.8187 16.7764 95.6102 16.5971C95.4017 16.4178 95.1305 16.3296 94.7952 16.3296C94.4599 16.3296 94.1915 16.4192 93.9898 16.5971C93.7894 16.7764 93.634 17.0734 93.5264 17.4866C93.4187 17.9012 93.3492 18.4517 93.3151 19.1408C93.2824 19.83 93.2647 20.6788 93.2647 21.6846Z" fill="white"/>
<path d="M111.116 24.1877C111.116 24.9189 111.052 25.5982 110.925 26.2258C110.797 26.8533 110.562 27.3982 110.22 27.8604C109.878 28.3226 109.398 28.6882 108.782 28.9572C108.165 29.2261 107.366 29.3606 106.388 29.3606C105.409 29.3606 104.611 29.2261 103.993 28.9572C103.376 28.6882 102.896 28.3226 102.554 27.8604C102.212 27.3982 101.978 26.8547 101.85 26.2258C101.721 25.5982 101.659 24.9189 101.659 24.1877V14.3H105.04V25.2004C105.04 25.7803 105.15 26.2314 105.373 26.5563C105.595 26.8799 105.933 27.0424 106.389 27.0424C106.846 27.0424 107.184 26.8813 107.405 26.5563C107.627 26.2328 107.737 25.7803 107.737 25.2004V14.3H111.118V24.1877H111.116Z" fill="white"/>
<path d="M30.7929 48.8418C31.0055 48.8418 31.1881 48.9216 31.3422 49.0785C31.4948 49.2368 31.5725 49.4259 31.5725 49.643V53.0677C31.5725 53.2862 31.4948 53.4697 31.3422 53.6154C31.1881 53.7611 31.0042 53.8339 30.7929 53.8339H24.2688V73.035C24.2688 73.2535 24.1925 73.4426 24.0385 73.5995C23.8845 73.7578 23.7005 73.8362 23.4893 73.8362H20.1571C19.9445 73.8362 19.7659 73.7578 19.6255 73.5995C19.4838 73.4426 19.4129 73.2535 19.4129 73.035V53.8339H12.8902C12.6776 53.8339 12.495 53.7611 12.341 53.6154C12.187 53.4697 12.1107 53.2876 12.1107 53.0677V49.643C12.1107 49.4245 12.187 49.2368 12.341 49.0785C12.495 48.9216 12.6776 48.8418 12.8902 48.8418H30.7929Z" fill="#002C4A"/>
<path d="M55.2175 73.1078C55.3116 73.3025 55.3116 73.4734 55.2175 73.6177C55.1221 73.7633 54.9695 73.8362 54.7569 73.8362H50.9626C50.75 73.8362 50.5429 73.7633 50.3425 73.6177C50.1408 73.472 49.9923 73.3025 49.8982 73.1078L45.8219 63.8546H41.0001V73.035C41.0001 73.2535 40.9237 73.4426 40.7697 73.5995C40.6157 73.7577 40.4317 73.8362 40.2205 73.8362H36.8883C36.6757 73.8362 36.493 73.7577 36.339 73.5995C36.185 73.4426 36.1087 73.2535 36.1087 73.035V49.6443C36.1087 49.4258 36.185 49.2381 36.339 49.0798C36.493 48.9229 36.6757 48.8431 36.8883 48.8431H49.2959C50.1708 48.8431 50.9858 49.0126 51.7422 49.353C52.4986 49.6933 53.1596 50.1556 53.7266 50.7383C54.2935 51.321 54.7433 52.0003 55.0744 52.7777C55.4056 53.5551 55.5705 54.3942 55.5705 55.292V57.4043C55.5705 58.1327 55.4574 58.8316 55.2339 59.4984C55.009 60.1665 54.6956 60.7744 54.2935 61.3207C53.8915 61.867 53.4131 62.3349 52.8584 62.7243C52.3024 63.1123 51.6931 63.4036 51.0322 63.5983L55.2162 73.1078H55.2175ZM49.2972 58.8611C49.6993 58.8611 50.0359 58.721 50.3085 58.4422C50.5797 58.1635 50.716 57.8175 50.716 57.4043V55.292C50.716 54.8788 50.5797 54.5328 50.3085 54.2527C50.0359 53.9739 49.6993 53.8339 49.2972 53.8339H41.0014V58.8611H49.2972Z" fill="#002C4A"/>
<path d="M66.3479 73.8362C65.4975 73.8362 64.6934 73.6667 63.937 73.3264C63.1806 72.986 62.5196 72.5238 61.9527 71.9411C61.3857 71.3584 60.936 70.679 60.6048 69.9016C60.2736 69.1242 60.1087 68.2866 60.1087 67.3873V49.643C60.1087 49.4245 60.185 49.2368 60.339 49.0785C60.493 48.9216 60.6757 48.8418 60.8883 48.8418H64.1851C64.3977 48.8418 64.5803 48.9216 64.7343 49.0785C64.8883 49.2368 64.9646 49.4259 64.9646 49.643V67.3873C64.9646 67.8005 65.1009 68.1479 65.3735 68.4267C65.6447 68.7054 65.9704 68.8455 66.3479 68.8455H73.2959C73.6979 68.8455 74.0277 68.7054 74.2894 68.4267C74.5483 68.1479 74.6792 67.8005 74.6792 67.3873V49.643C74.6792 49.4245 74.7555 49.2368 74.9095 49.0785C75.0635 48.9202 75.2461 48.8418 75.4587 48.8418H78.791C79.0036 48.8418 79.1862 48.9216 79.3402 49.0785C79.4928 49.2368 79.5705 49.4259 79.5705 49.643V67.3873C79.5705 68.2866 79.4056 69.1242 79.0744 69.9016C78.7433 70.679 78.2935 71.3584 77.7266 71.9411C77.1596 72.5238 76.4918 72.986 75.7245 73.3264C74.9572 73.6667 74.1477 73.8362 73.2959 73.8362H66.3479Z" fill="#002C4A"/>
<path d="M99.4948 56.3482C99.2822 56.3482 99.0995 56.2697 98.9455 56.1114C98.7915 55.9532 98.7152 55.7655 98.7152 55.547V55.292C98.7152 54.8788 98.5789 54.5328 98.3077 54.2527C98.0351 53.9739 97.6985 53.8339 97.2965 53.8339H90.384C89.9819 53.8339 89.6507 53.9739 89.3918 54.2527C89.1315 54.5328 89.0007 54.8788 89.0007 55.292V67.3873C89.0007 67.8005 89.1301 68.1479 89.3918 68.4266C89.6507 68.7053 89.9819 68.8454 90.384 68.8454H97.2965C97.6985 68.8454 98.0351 68.7053 98.3077 68.4266C98.5789 68.1479 98.7152 67.8005 98.7152 67.3873V67.1323C98.7152 66.9138 98.7915 66.7261 98.9455 66.5678C99.0995 66.4096 99.2835 66.3311 99.4948 66.3311H102.793C103.006 66.3311 103.188 66.411 103.342 66.5678C103.495 66.7261 103.572 66.9138 103.572 67.1323V67.3873C103.572 68.2865 103.408 69.1242 103.076 69.9016C102.745 70.679 102.295 71.3583 101.729 71.941C101.162 72.5237 100.501 72.9859 99.7442 73.3263C98.9878 73.6667 98.1714 73.8362 97.2978 73.8362H90.3853C89.5335 73.8362 88.724 73.6667 87.9567 73.3263C87.1894 72.9859 86.5216 72.5237 85.9546 71.941C85.3877 71.3583 84.9379 70.679 84.6067 69.9016C84.2756 69.1242 84.1107 68.2865 84.1107 67.3873V55.292C84.1107 54.3928 84.2756 53.5551 84.6067 52.7777C84.9379 52.0003 85.3877 51.321 85.9546 50.7383C86.5216 50.1556 87.1894 49.6933 87.9567 49.353C88.724 49.0126 89.5335 48.8431 90.3853 48.8431H97.2978C98.1728 48.8431 98.9878 49.0126 99.7442 49.353C100.501 49.6933 101.162 50.1556 101.729 50.7383C102.295 51.321 102.745 52.0003 103.076 52.7777C103.408 53.5551 103.572 54.3942 103.572 55.292V55.547C103.572 55.7655 103.495 55.9532 103.342 56.1114C103.188 56.2697 103.004 56.3482 102.793 56.3482H99.4948Z" fill="#002C4A"/>
<path d="M127.286 73.1442C127.405 73.3389 127.422 73.5028 127.339 73.6359C127.256 73.7704 127.109 73.8362 126.895 73.8362H122.854C122.641 73.8362 122.428 73.769 122.216 73.6359C122.004 73.5028 121.839 73.3389 121.72 73.1442L116.579 63.8546H113.141V73.035C113.141 73.2535 113.063 73.4426 112.911 73.5995C112.757 73.7577 112.573 73.8362 112.361 73.8362H109.029C108.817 73.8362 108.638 73.7577 108.498 73.5995C108.356 73.4426 108.285 73.2535 108.285 73.035V49.6443C108.285 49.4258 108.356 49.2381 108.498 49.0798C108.639 48.9229 108.817 48.8431 109.029 48.8431H112.361C112.574 48.8431 112.757 48.9229 112.911 49.0798C113.063 49.2381 113.141 49.4272 113.141 49.6443V58.8625H116.579L121.72 49.5351C121.839 49.3404 122.004 49.1765 122.216 49.0434C122.429 48.9103 122.641 48.8431 122.854 48.8431H126.895C127.108 48.8431 127.255 48.9103 127.339 49.0434C127.422 49.1765 127.405 49.3404 127.286 49.5351L120.798 61.3403L127.286 73.1456V73.1442Z" fill="#002C4A"/>
<path d="M30.2316 39.4975H13.287C12.8795 39.4975 12.5115 39.3392 12.2212 39.0394C11.9337 38.7467 11.7796 38.3685 11.7796 37.9483V34.5599C11.7796 34.1425 11.9337 33.7657 12.2239 33.466C12.5156 33.1676 12.8822 33.0107 13.287 33.0107H18.5858V19.4938H13.287C12.8931 19.4938 12.5333 19.3509 12.2457 19.0792C11.9405 18.792 11.7796 18.4124 11.7796 17.981V14.5562C11.7796 14.1388 11.9337 13.762 12.2239 13.4623C12.5156 13.1639 12.8822 13.007 13.287 13.007H30.2316C30.6363 13.007 31.003 13.1639 31.2946 13.4609C31.5863 13.7634 31.7389 14.1402 31.7389 14.5562V17.981C31.7389 18.4096 31.5781 18.7878 31.2742 19.0777C30.9852 19.3509 30.6254 19.4938 30.2316 19.4938H24.8973V33.0107H30.2316C30.6363 33.0107 31.003 33.1676 31.2946 33.4646C31.5863 33.7671 31.7389 34.1439 31.7389 34.5599V37.9483C31.7389 38.3671 31.5849 38.7453 31.2946 39.0436C31.0084 39.3392 30.6391 39.4975 30.2316 39.4975ZM13.287 34.5067L13.2338 37.9483L30.2316 38.0029L30.2847 34.5599L23.4431 34.5067V18.0006L30.2847 17.9824V14.5576L13.287 14.5044L13.2338 17.9838L20.04 18.002V34.5081H13.287V34.5067Z" fill="#002C4A"/>
<path d="M46.481 39.4974H43.1488C42.7291 39.4974 42.3597 39.3307 42.0803 39.017C41.8187 38.727 41.6769 38.3558 41.6769 37.9482V19.4951H35.8806C35.4868 19.4951 35.127 19.3522 34.8394 19.0805C34.5341 18.7933 34.3733 18.4138 34.3733 17.9823V14.5576C34.3733 14.1401 34.5273 13.7634 34.8176 13.4636C35.1092 13.1652 35.4759 13.0084 35.8806 13.0084H53.7833C54.1867 13.0084 54.5533 13.1638 54.8436 13.4608C55.138 13.7662 55.2893 14.143 55.2893 14.5576V17.9823C55.2893 18.4096 55.1298 18.7877 54.8273 19.0777C54.5343 19.3522 54.1745 19.4951 53.782 19.4951H47.9857V37.9482C47.9857 38.367 47.8317 38.7466 47.5414 39.0436C47.2524 39.3405 46.8845 39.4974 46.4783 39.4974H46.481ZM35.8806 14.5029L35.8275 17.9823L43.1297 18.0005V37.9482L46.4797 38.0029L46.5315 18.0005H53.782L53.8337 14.5576L53.782 14.5043H35.8793L35.8806 14.5029Z" fill="#002C4A"/>
<defs>
<linearGradient id="paint0_linear_591_28935" x1="-5.73497" y1="10.8626" x2="136.154" y2="90.5687" gradientUnits="userSpaceOnUse">
<stop stop-color="#00BFF3"/>
<stop offset="0.12" stop-color="#04BFED"/>
<stop offset="0.28" stop-color="#0FBFDC"/>
<stop offset="0.46" stop-color="#22BFC0"/>
<stop offset="0.65" stop-color="#3DC09A"/>
<stop offset="0.86" stop-color="#5FC069"/>
<stop offset="1" stop-color="#7AC143"/>
</linearGradient>
</defs>
</svg>
